<svg width="15" height="16" viewBox="0 0 15 16" fill="none" xmlns="http://www.w3.org/2000/svg">
<g clip-path="url(#clip0_166_700)">
<path d="M0.901583 6.94707C0.962946 6.93712 1.02506 6.93252 1.08722 6.93332H11.6694L11.4387 6.826C11.2131 6.71924 11.0079 6.57396 10.8323 6.3967L7.86478 3.42919C7.47395 3.0561 7.40828 2.45592 7.70916 2.00714C8.05934 1.52891 8.73088 1.42508 9.20915 1.77525C9.24779 1.80356 9.2845 1.83442 9.31902 1.86762L14.6852 7.23383C15.1046 7.65273 15.105 8.33226 14.6861 8.75163L14.6852 8.75247L9.31902 14.1187C8.89931 14.5372 8.21978 14.5363 7.80122 14.1166C7.76828 14.0835 7.73753 14.0484 7.70916 14.0114C7.40828 13.5626 7.47395 12.9624 7.86478 12.5893L10.8269 9.61643C10.9844 9.45879 11.1654 9.32663 11.3635 9.2247L11.6855 9.07981H1.14628C0.598022 9.10017 0.117008 8.71719 0.0140104 8.17828C-0.0808706 7.5932 0.316498 7.04199 0.901583 6.94707Z" fill="#2DB4C9"/>
</g>
<defs>
<clipPath id="clip0_166_700">
<rect width="15" height="15" fill="white" transform="matrix(-1 0 0 1 15 0.5)"/>
</clipPath>
</defs>
</svg>
