<svg width="15" height="15" viewBox="0 0 15 15" fill="none" xmlns="http://www.w3.org/2000/svg">
<path d="M9.15207 7.5L14.7604 1.89146C14.9146 1.73707 14.9998 1.5311 15 1.31146C15 1.09171 14.9149 0.885488 14.7604 0.731342L14.2689 0.240001C14.1144 0.0852444 13.9084 0.000488281 13.6885 0.000488281C13.469 0.000488281 13.263 0.0852444 13.1085 0.240001L7.50024 5.84817L1.89171 0.240001C1.73744 0.0852444 1.53134 0.000488281 1.31159 0.000488281C1.09207 0.000488281 0.885976 0.0852444 0.731707 0.240001L0.24 0.731342C-0.08 1.05134 -0.08 1.57183 0.24 1.89146L5.84841 7.5L0.24 13.1083C0.0856097 13.2629 0.000609756 13.4689 0.000609756 13.6885C0.000609756 13.9082 0.0856097 14.1141 0.24 14.2687L0.731585 14.76C0.885854 14.9146 1.09207 14.9995 1.31146 14.9995C1.53122 14.9995 1.73732 14.9146 1.89159 14.76L7.50012 9.15171L13.1084 14.76C13.2629 14.9146 13.4689 14.9995 13.6884 14.9995H13.6887C13.9083 14.9995 14.1143 14.9146 14.2688 14.76L14.7602 14.2687C14.9145 14.1143 14.9996 13.9082 14.9996 13.6885C14.9996 13.4689 14.9145 13.2629 14.7602 13.1084L9.15207 7.5Z" fill="#2D3748"/>
</svg>
