<svg width="15" height="15" viewBox="0 0 15 15" fill="none" xmlns="http://www.w3.org/2000/svg">
<path d="M9.15213 7.5L14.7604 1.89146C14.9147 1.73707 14.9998 1.5311 15.0001 1.31146C15.0001 1.09171 14.9149 0.885488 14.7604 0.731342L14.269 0.240001C14.1144 0.0852444 13.9085 0.000488281 13.6886 0.000488281C13.4691 0.000488281 13.2631 0.0852444 13.1086 0.240001L7.5003 5.84817L1.89177 0.240001C1.7375 0.0852444 1.5314 0.000488281 1.31165 0.000488281C1.09213 0.000488281 0.886037 0.0852444 0.731768 0.240001L0.240061 0.731342C-0.079939 1.05134 -0.079939 1.57183 0.240061 1.89146L5.84847 7.5L0.240061 13.1083C0.0856708 13.2629 0.000670791 13.4689 0.000670791 13.6885C0.000670791 13.9082 0.0856708 14.1141 0.240061 14.2687L0.731646 14.76C0.885915 14.9146 1.09213 14.9995 1.31152 14.9995C1.53128 14.9995 1.73738 14.9146 1.89165 14.76L7.50018 9.15171L13.1085 14.76C13.263 14.9146 13.469 14.9995 13.6885 14.9995H13.6887C13.9084 14.9995 14.1143 14.9146 14.2688 14.76L14.7603 14.2687C14.9146 14.1143 14.9997 13.9082 14.9997 13.6885C14.9997 13.4689 14.9146 13.2629 14.7603 13.1084L9.15213 7.5Z" fill="#F1F3F3"/>
</svg>
