<svg width="211" height="55" viewBox="0 0 211 55" fill="none" xmlns="http://www.w3.org/2000/svg">
<path fill-rule="evenodd" clip-rule="evenodd" d="M7.04506 50.3051C8.19532 50.3047 9.29883 49.8493 10.1144 49.0382C10.93 48.2271 11.3915 47.1263 11.398 45.9762V32.9874C11.4182 30.6919 12.3443 28.4974 13.9749 26.8812C15.6054 25.2652 17.8084 24.3584 20.1043 24.3584C22.4002 24.3584 24.6032 25.2652 26.2337 26.8812C27.8642 28.4974 28.7904 30.6919 28.8106 32.9874V45.9762C28.8171 47.1263 29.2786 48.2271 30.0942 49.0382C30.9098 49.8493 32.0132 50.3047 33.1635 50.3051C34.3139 50.3047 35.4173 49.8493 36.2329 49.0382C37.0485 48.2271 37.5099 47.1263 37.5165 45.9762V32.9874C37.4965 29.9021 36.6577 26.8774 35.086 24.2222C33.5142 21.5671 31.2657 19.3767 28.5702 17.8747C25.8747 16.3728 22.8287 15.6132 19.7435 15.6735C16.6583 15.7338 13.6444 16.6119 11.0096 18.2179C10.6616 17.4585 10.1031 16.8148 9.40026 16.363C8.6975 15.9112 7.87984 15.6704 7.04439 15.6691C5.89405 15.6695 4.79061 16.1249 3.97502 16.936C3.15943 17.7471 2.69796 18.8479 2.69141 19.998V45.9762C2.69796 47.1264 3.15952 48.2273 3.97525 49.0384C4.79099 49.8496 5.89461 50.3049 7.04506 50.3051ZM20.104 2.68312C20.9594 2.68763 21.7943 2.94538 22.5034 3.42385C23.2125 3.90232 23.764 4.58007 24.0882 5.37158C24.4125 6.16309 24.495 7.03287 24.3253 7.87122C24.1557 8.70956 23.7414 9.47889 23.1349 10.0821C22.5285 10.6853 21.7569 11.0954 20.9175 11.2607C20.0782 11.4259 19.2088 11.3388 18.4189 11.0104C17.6289 10.6821 16.954 10.1272 16.4792 9.41571C16.0044 8.7042 15.751 7.868 15.751 7.01268C15.7525 6.44263 15.8662 5.87844 16.0858 5.35234C16.3054 4.82624 16.6264 4.34853 17.0307 3.9465C17.4348 3.54446 17.9143 3.22596 18.4416 3.00919C18.9689 2.79242 19.5338 2.68162 20.104 2.68312Z" fill="#2DB4C9"/>
<path fill-rule="evenodd" clip-rule="evenodd" d="M7.02411 2.68311C7.88062 2.68284 8.71794 2.93654 9.43022 3.41212C10.1425 3.8877 10.6977 4.56379 11.0256 5.35489C11.3536 6.146 11.4395 7.01657 11.2726 7.85653C11.1057 8.69648 10.6934 9.46803 10.0878 10.0737C9.48227 10.6793 8.71076 11.0918 7.87076 11.2589C7.03075 11.4262 6.16002 11.3404 5.3687 11.0128C4.57739 10.6851 3.90104 10.1302 3.42517 9.41819C2.94931 8.70621 2.69531 7.86907 2.69531 7.01268C2.69523 6.4442 2.80713 5.88127 3.02462 5.35602C3.24211 4.83079 3.56095 4.35352 3.96292 3.95149C4.36488 3.54945 4.84211 3.23051 5.36736 3.01288C5.8926 2.79525 6.45557 2.68319 7.02411 2.68311ZM20.0099 50.3051C21.1571 50.3015 22.2563 49.8442 23.0674 49.0329C23.8785 48.2218 24.3356 47.1226 24.3387 45.9755V32.9874C24.3356 31.8403 23.8785 30.7412 23.0674 29.93C22.2563 29.1187 21.1571 28.6614 20.0099 28.6579C18.8627 28.6614 17.7635 29.1187 16.9524 29.93C16.1413 30.7412 15.6843 31.8403 15.6811 32.9874V45.9762C15.6844 47.1231 16.1416 48.2221 16.9526 49.0332C17.7637 49.8443 18.8628 50.3015 20.0099 50.3051ZM45.9821 50.3051C47.1291 50.3014 48.228 49.844 49.039 49.0329C49.8499 48.2219 50.3069 47.123 50.3103 45.9762V32.9874C50.311 28.3955 48.4874 23.9914 45.2405 20.7438C41.9937 17.4963 37.5896 15.6714 32.997 15.6705C35.6865 17.6857 37.8689 20.3001 39.3711 23.3062C40.8733 26.3122 41.6538 29.6271 41.6506 32.9874V45.9762C41.654 47.1236 42.1115 48.223 42.9232 49.0342C43.7348 49.8453 44.8346 50.3022 45.9821 50.3051Z" fill="white"/>
<path fill-rule="evenodd" clip-rule="evenodd" d="M62.7463 35.8918H66.1917V22.7186H62.7463V35.8918ZM62.3881 17.9759C62.3776 18.2597 62.4266 18.5425 62.5319 18.8063C62.6373 19.0699 62.7966 19.3087 62.9997 19.5072C63.2028 19.7057 63.4452 19.8595 63.7113 19.9587C63.9774 20.0579 64.2613 20.1004 64.5448 20.0833C64.8151 20.0813 65.0821 20.0245 65.3296 19.9161C65.5772 19.8078 65.8002 19.6504 65.9851 19.4533C66.1699 19.2562 66.3128 19.0237 66.4051 18.7696C66.4973 18.5157 66.537 18.2457 66.5217 17.9759C66.5222 17.7169 66.4713 17.4604 66.3719 17.2212C66.2725 16.9819 66.1267 16.7648 65.9428 16.5824C65.759 16.4 65.5407 16.2557 65.3008 16.1582C65.0608 16.0606 64.8039 16.0116 64.5448 16.014C64.2727 15.9934 63.9992 16.0286 63.741 16.1174C63.4829 16.2062 63.2456 16.3467 63.0437 16.5303C62.8419 16.7141 62.6796 16.9369 62.5668 17.1855C62.4541 17.4341 62.3933 17.703 62.3881 17.9759ZM77.0516 35.8918H80.4962V26.904C80.8759 26.5076 81.3314 26.1918 81.8359 25.9756C82.3403 25.7594 82.8837 25.6472 83.4324 25.6457C85.349 25.6457 86.4578 26.6411 86.4578 28.7492V35.8918H89.9025V28.1636C89.9025 24.036 87.6559 22.4839 84.3608 22.4839C82.9186 22.4729 81.53 23.0305 80.4962 24.036V22.7186H77.0516V35.8918ZM100.432 35.8918H103.877V22.7186H100.432V35.8918ZM100.072 17.9759C100.061 18.2597 100.11 18.5425 100.216 18.8063C100.321 19.0699 100.481 19.3087 100.684 19.5072C100.887 19.7057 101.129 19.8595 101.396 19.9587C101.661 20.0579 101.946 20.1004 102.229 20.0833C102.499 20.0813 102.766 20.0245 103.014 19.9161C103.261 19.8078 103.484 19.6504 103.669 19.4533C103.854 19.2562 103.997 19.0237 104.089 18.7696C104.182 18.5157 104.221 18.2457 104.206 17.9759C104.206 17.7169 104.155 17.4604 104.056 17.2212C103.957 16.9819 103.811 16.7648 103.627 16.5824C103.443 16.4 103.225 16.2557 102.985 16.1582C102.745 16.0606 102.488 16.0116 102.229 16.014C101.957 15.9936 101.683 16.0288 101.425 16.1176C101.167 16.2064 100.93 16.347 100.728 16.5306C100.526 16.7143 100.364 16.9371 100.251 17.1856C100.139 17.4342 100.078 17.703 100.072 17.9759ZM114.736 35.8918H118.18V26.904C118.56 26.5076 119.016 26.1918 119.52 25.9756C120.024 25.7594 120.568 25.6472 121.117 25.6457C123.034 25.6457 124.142 26.6411 124.142 28.7492V35.8918H127.587V28.1636C127.587 24.036 125.34 22.4839 122.045 22.4839C120.603 22.4729 119.214 23.0305 118.18 24.036V22.7186H114.736V35.8918Z" fill="white"/>
<path fill-rule="evenodd" clip-rule="evenodd" d="M173.742 36.2128H177.187V27.225C177.567 26.8286 178.022 26.5128 178.526 26.2965C179.031 26.0804 179.574 25.9682 180.123 25.9667C182.04 25.9667 183.148 26.962 183.148 29.0702V36.2128H186.593V28.4846C186.593 24.3569 184.347 22.8048 181.051 22.8048C179.609 22.7938 178.221 23.3515 177.187 24.3569V23.0396H173.742V36.2128Z" fill="#2DB4C9"/>
<path fill-rule="evenodd" clip-rule="evenodd" d="M136.176 33.6936C136.173 34.0067 136.232 34.3172 136.352 34.6065C136.472 34.8958 136.65 35.1578 136.874 35.3766C137.098 35.5954 137.363 35.7667 137.655 35.8798C137.948 35.993 138.259 36.0458 138.572 36.0351C139.172 36.0124 139.739 35.7535 140.148 35.3149C140.558 34.8762 140.778 34.2935 140.759 33.6936C140.742 33.1211 140.505 32.5772 140.098 32.1741C139.691 31.771 139.145 31.5394 138.572 31.5271C137.968 31.4977 137.375 31.7093 136.927 32.1153C136.477 32.5214 136.207 33.089 136.176 33.6936Z" fill="#2DB4C9"/>
<path fill-rule="evenodd" clip-rule="evenodd" d="M206.73 31.9417C205.624 32.7411 204.29 33.162 202.926 33.1417C200.798 33.1417 199.18 32.0591 198.881 30.0677H208.617C208.78 29.4771 208.85 28.8649 208.826 28.2527C208.826 24.5637 205.921 22.1343 202.446 22.1343C198.012 22.1343 195.316 25.2082 195.316 29.0428C195.316 33.2014 198.222 35.9514 202.566 35.9514C204.419 36.004 206.236 35.4263 207.718 34.3128L206.73 31.9417ZM202.296 24.9446C204.273 24.9446 205.412 26.2036 205.382 27.814H198.762C198.872 26.9741 199.3 26.2083 199.957 25.6744C200.615 25.1405 201.452 24.8793 202.296 24.9446Z" fill="#2DB4C9"/>
<path d="M156.662 36.5013C154.659 36.5013 152.987 35.8502 151.647 34.5481C150.32 33.2335 149.656 31.5996 149.656 29.6464C149.656 27.6932 150.32 26.0655 151.647 24.7635C152.987 23.4488 154.659 22.7915 156.662 22.7915C157.977 22.7915 159.167 23.092 160.231 23.693C161.308 24.2814 162.147 25.1015 162.748 26.1532C163.349 27.1924 163.65 28.3568 163.65 29.6464C163.65 31.6121 162.986 33.246 161.659 34.5481C160.331 35.8502 158.666 36.5013 156.662 36.5013ZM156.662 33.8157C157.438 33.8157 158.14 33.6404 158.766 33.2898C159.392 32.9267 159.88 32.4259 160.231 31.7874C160.594 31.1488 160.776 30.4352 160.776 29.6464C160.776 28.457 160.381 27.4678 159.592 26.6791C158.816 25.8777 157.84 25.4771 156.662 25.4771C155.498 25.4771 154.515 25.8777 153.713 26.6791C152.925 27.4678 152.53 28.457 152.53 29.6464C152.53 30.8358 152.925 31.8312 153.713 32.6325C154.515 33.4213 155.498 33.8157 156.662 33.8157Z" fill="#2DB4C9"/>
<path d="M65.9512 41.7598C66.757 41.7598 67.4287 42.0202 67.9654 42.541C68.5108 43.0619 68.7838 43.7129 68.7838 44.4942C68.7838 45.2755 68.5108 45.9266 67.9654 46.4474C67.4287 46.9682 66.757 47.2286 65.9512 47.2286H63.9489V50.3049H62.8867V41.7598H65.9512ZM65.8901 46.191C66.411 46.191 66.8383 46.0323 67.1718 45.7149C67.5139 45.3894 67.685 44.9825 67.685 44.4942C67.685 44.0059 67.5139 43.6031 67.1718 43.2857C66.8383 42.9602 66.411 42.7974 65.8901 42.7974H63.9489V46.191H65.8901ZM75.761 43.7129H76.5915V50.3049H75.7241L75.6148 49.3039C75.3049 49.6701 74.9265 49.955 74.4791 50.1584C74.0397 50.3537 73.5553 50.4514 73.0261 50.4514C72.0574 50.4514 71.2477 50.1259 70.5963 49.4748C69.9456 48.8156 69.6196 47.9936 69.6196 47.0089C69.6196 46.0242 69.9456 45.2063 70.5963 44.5552C71.2477 43.896 72.0574 43.5664 73.0261 43.5664C73.5634 43.5664 74.0518 43.6682 74.4911 43.8716C74.9386 44.0751 75.3176 44.3599 75.6268 44.7261L75.761 43.7129ZM71.3658 48.7546C71.83 49.2184 72.4116 49.4504 73.1119 49.4504C73.8116 49.4504 74.3892 49.2184 74.8453 48.7546C75.3008 48.2907 75.5289 47.7088 75.5289 47.0089C75.5289 46.309 75.3008 45.7271 74.8453 45.2633C74.3892 44.7994 73.8116 44.5674 73.1119 44.5674C72.4116 44.5674 71.83 44.8035 71.3658 45.2755C70.9096 45.7394 70.6822 46.3172 70.6822 47.0089C70.6822 47.7006 70.9096 48.2826 71.3658 48.7546ZM82.1124 46.8258C82.7148 47.1513 83.016 47.6884 83.016 48.4372C83.016 48.8278 82.9059 49.1777 82.6859 49.487C82.4746 49.7881 82.1734 50.0241 81.783 50.195C81.3999 50.3659 80.9686 50.4514 80.4883 50.4514C79.7886 50.4514 79.2104 50.2724 78.7549 49.9143C78.3075 49.5562 78.0546 49.076 77.9982 48.4738H78.938C79.0031 48.7831 79.1742 49.0272 79.4505 49.2062C79.7276 49.3771 80.0737 49.4626 80.4883 49.4626C80.9284 49.4626 81.2899 49.3608 81.575 49.1574C81.8601 48.954 82.0023 48.6854 82.0023 48.3517C82.0023 48.0424 81.8803 47.7861 81.6361 47.5827C81.3999 47.3792 81.0987 47.2775 80.7325 47.2775H79.7558V46.4352H80.7325C81.0746 46.4352 81.3469 46.3497 81.5509 46.1788C81.7622 45.9998 81.8682 45.7719 81.8682 45.4952C81.8682 45.1941 81.7421 44.95 81.4898 44.7628C81.2376 44.5756 80.9035 44.482 80.4883 44.482C80.122 44.482 79.8168 44.5634 79.5726 44.7261C79.3284 44.8889 79.1742 45.1087 79.1091 45.3853H78.1686C78.2015 45.0272 78.3195 44.7098 78.5228 44.4332C78.7348 44.1565 79.0111 43.9449 79.3533 43.7984C79.7028 43.6438 80.0898 43.5664 80.5131 43.5664C81.1886 43.5664 81.7461 43.7414 82.1855 44.0914C82.6249 44.4413 82.8449 44.8807 82.8449 45.4098C82.8449 46.0445 82.6007 46.5165 82.1124 46.8258ZM89.3458 43.7129H90.4574L87.3193 50.5734C87.0751 51.1106 86.8349 51.5256 86.5988 51.8186C86.3627 52.1116 86.0984 52.3232 85.8052 52.4534C85.5128 52.5917 85.1545 52.6609 84.7312 52.6609H84.1087V51.7209H84.6454C85.0854 51.7209 85.4148 51.6314 85.6348 51.4524C85.8542 51.2734 86.0984 50.9071 86.3674 50.3537L86.5988 49.8532L83.6687 43.7129H84.8044L87.1482 48.7057L89.3458 43.7129ZM99.5122 50.3049H98.5106L97.5708 45.4098L95.239 50.1706H95.0069L92.6872 45.4098L91.7474 50.3049H90.7458L92.0036 43.7129H92.8703L95.129 48.3273L97.3756 43.7129H98.2423L99.5122 50.3049ZM105.578 43.7129H106.592V50.3049H105.578V47.3873H102.051V50.3049H101.037V43.7129H102.051V46.4108H105.578V43.7129ZM111.658 50.4514C111.007 50.4514 110.413 50.3049 109.876 50.0119C109.338 49.7108 108.919 49.2998 108.618 48.779C108.317 48.25 108.166 47.66 108.166 47.0089C108.166 46.016 108.496 45.1941 109.155 44.543C109.823 43.892 110.657 43.5664 111.658 43.5664C112.317 43.5664 112.912 43.717 113.44 44.0181C113.978 44.3111 114.397 44.7221 114.698 45.2511C115.007 45.7719 115.162 46.3578 115.162 47.0089C115.162 47.9936 114.828 48.8156 114.161 49.4748C113.493 50.1259 112.659 50.4514 111.658 50.4514ZM109.912 48.7668C110.376 49.2225 110.958 49.4504 111.658 49.4504C112.366 49.4504 112.948 49.2225 113.404 48.7668C113.868 48.3029 114.1 47.7169 114.1 47.0089C114.1 46.3009 113.868 45.719 113.404 45.2633C112.948 44.7994 112.366 44.5674 111.658 44.5674C110.958 44.5674 110.376 44.7994 109.912 45.2633C109.456 45.719 109.228 46.3009 109.228 47.0089C109.228 47.7169 109.456 48.3029 109.912 48.7668ZM122.905 47.0333C122.905 47.1229 122.896 47.249 122.88 47.4118H117.252C117.333 48.0221 117.585 48.5145 118.009 48.8888C118.432 49.2551 118.953 49.4382 119.572 49.4382C120.027 49.4382 120.43 49.3405 120.781 49.1452C121.139 48.9418 121.423 48.6569 121.635 48.2907H122.722C122.445 48.9743 122.03 49.5073 121.476 49.8898C120.923 50.2642 120.288 50.4514 119.572 50.4514C118.619 50.4514 117.822 50.1218 117.179 49.4626C116.536 48.8034 116.214 47.9855 116.214 47.0089C116.214 46.0242 116.536 45.2063 117.179 44.5552C117.822 43.896 118.619 43.5664 119.572 43.5664C120.557 43.5664 121.358 43.9001 121.977 44.5674C122.595 45.2348 122.905 46.0567 122.905 47.0333ZM119.572 44.5552C119.181 44.5552 118.823 44.6326 118.497 44.7872C118.18 44.9418 117.915 45.1656 117.704 45.4586C117.492 45.7434 117.35 46.073 117.276 46.4474H121.855C121.781 46.0649 121.639 45.7312 121.427 45.4464C121.216 45.1534 120.952 44.9337 120.634 44.7872C120.316 44.6326 119.962 44.5552 119.572 44.5552ZM130.554 50.4514C129.911 50.4514 129.326 50.3049 128.796 50.0119C128.276 49.7108 127.864 49.2958 127.563 48.7668C127.27 48.2378 127.124 47.6518 127.124 47.0089C127.124 46.0242 127.449 45.2063 128.101 44.5552C128.759 43.896 129.578 43.5664 130.554 43.5664C131.336 43.5664 132.011 43.7821 132.581 44.2134C133.159 44.6448 133.55 45.2185 133.753 45.9347H132.727C132.532 45.5115 132.239 45.1778 131.848 44.9337C131.466 44.6895 131.035 44.5674 130.554 44.5674C129.879 44.5674 129.313 44.8035 128.857 45.2755C128.41 45.7394 128.186 46.3172 128.186 47.0089C128.186 47.4647 128.288 47.8797 128.491 48.2541C128.694 48.6203 128.975 48.9133 129.334 49.133C129.7 49.3446 130.107 49.4504 130.554 49.4504C131.035 49.4504 131.462 49.3283 131.836 49.0842C132.219 48.8319 132.512 48.486 132.715 48.0465H133.765C133.562 48.779 133.167 49.3649 132.581 49.8044C132.003 50.2357 131.328 50.4514 130.554 50.4514ZM140.239 43.7129V44.6529H137.785V50.3049H136.772V44.6529H134.318V43.7129H140.239ZM144.983 43.5664C145.968 43.5664 146.778 43.892 147.412 44.543C148.056 45.1941 148.377 46.016 148.377 47.0089C148.377 47.9936 148.056 48.8156 147.412 49.4748C146.778 50.1259 145.968 50.4514 144.983 50.4514C143.99 50.4514 143.172 50.1096 142.529 49.426V52.6609H141.491V43.7129H142.199L142.407 44.7261C142.716 44.3599 143.09 44.0751 143.53 43.8716C143.978 43.6682 144.462 43.5664 144.983 43.5664ZM144.909 49.4504C145.61 49.4504 146.187 49.2184 146.643 48.7546C147.099 48.2907 147.327 47.7088 147.327 47.0089C147.327 46.309 147.099 45.7271 146.643 45.2633C146.187 44.7994 145.61 44.5674 144.909 44.5674C144.21 44.5674 143.627 44.8035 143.164 45.2755C142.708 45.7394 142.48 46.3172 142.48 47.0089C142.48 47.4647 142.582 47.8797 142.785 48.2541C142.997 48.6284 143.29 48.9214 143.664 49.133C144.039 49.3446 144.454 49.4504 144.909 49.4504ZM155.572 43.7129H156.403V50.3049H155.536L155.426 49.3039C155.117 49.6701 154.738 49.955 154.29 50.1584C153.851 50.3537 153.366 50.4514 152.838 50.4514C151.869 50.4514 151.059 50.1259 150.408 49.4748C149.757 48.8156 149.431 47.9936 149.431 47.0089C149.431 46.0242 149.757 45.2063 150.408 44.5552C151.059 43.896 151.869 43.5664 152.838 43.5664C153.374 43.5664 153.863 43.6682 154.303 43.8716C154.75 44.0751 155.129 44.3599 155.438 44.7261L155.572 43.7129ZM151.177 48.7546C151.641 49.2184 152.223 49.4504 152.923 49.4504C153.623 49.4504 154.201 49.2184 154.656 48.7546C155.113 48.2907 155.341 47.7088 155.341 47.0089C155.341 46.309 155.113 45.7271 154.656 45.2633C154.201 44.7994 153.623 44.5674 152.923 44.5674C152.223 44.5674 151.641 44.8035 151.177 45.2755C150.721 45.7394 150.493 46.3172 150.493 47.0089C150.493 47.7006 150.721 48.2826 151.177 48.7546ZM163.633 50.3049H162.461L160.58 47.5582L158.676 50.3049H157.541L159.958 46.8746L157.736 43.7129H158.896L160.58 46.1544L162.302 43.7129H163.438L161.204 46.838L163.633 50.3049ZM167.528 50.4514C166.877 50.4514 166.283 50.3049 165.746 50.0119C165.208 49.7108 164.79 49.2998 164.489 48.779C164.187 48.25 164.037 47.66 164.037 47.0089C164.037 46.016 164.367 45.1941 165.025 44.543C165.693 43.892 166.527 43.5664 167.528 43.5664C168.188 43.5664 168.782 43.717 169.311 44.0181C169.848 44.3111 170.267 44.7221 170.568 45.2511C170.878 45.7719 171.033 46.3578 171.033 47.0089C171.033 47.9936 170.698 48.8156 170.031 49.4748C169.364 50.1259 168.53 50.4514 167.528 50.4514ZM165.783 48.7668C166.246 49.2225 166.829 49.4504 167.528 49.4504C168.237 49.4504 168.819 49.2225 169.274 48.7668C169.739 48.3029 169.97 47.7169 169.97 47.0089C169.97 46.3009 169.739 45.719 169.274 45.2633C168.819 44.7994 168.237 44.5674 167.528 44.5674C166.829 44.5674 166.246 44.7994 165.783 45.2633C165.327 45.719 165.099 46.3009 165.099 47.0089C165.099 47.7169 165.327 48.3029 165.783 48.7668ZM176.846 46.8868C177.18 47.0089 177.444 47.2123 177.639 47.4972C177.843 47.7821 177.945 48.1035 177.945 48.4616C177.945 48.9906 177.75 49.4301 177.359 49.78C176.976 50.1299 176.496 50.3049 175.918 50.3049H172.61V43.7129H175.881C176.427 43.7129 176.871 43.8716 177.212 44.189C177.554 44.4983 177.725 44.897 177.725 45.3853C177.725 45.6051 177.688 45.8126 177.615 46.0079C177.542 46.2032 177.44 46.3782 177.31 46.5328C177.18 46.6793 177.025 46.7973 176.846 46.8868ZM176.7 45.5684C176.7 45.2999 176.61 45.0883 176.431 44.9337C176.252 44.7709 176.02 44.6895 175.735 44.6895H173.623V46.4352H175.735C176.028 46.4352 176.26 46.3578 176.431 46.2032C176.61 46.0404 176.7 45.8289 176.7 45.5684ZM175.796 49.3283C175.999 49.3283 176.182 49.2876 176.345 49.2062C176.517 49.1167 176.647 48.9987 176.736 48.8522C176.826 48.7057 176.871 48.5429 176.871 48.3639C176.871 48.1767 176.826 48.0099 176.736 47.8634C176.647 47.7088 176.517 47.5908 176.345 47.5094C176.182 47.4281 175.995 47.3873 175.784 47.3873H173.623V49.3283H175.796ZM185.237 43.7129H186.066V50.3049H185.2L185.09 49.3039C184.78 49.6701 184.402 49.955 183.955 50.1584C183.515 50.3537 183.031 50.4514 182.502 50.4514C181.533 50.4514 180.723 50.1259 180.072 49.4748C179.421 48.8156 179.095 47.9936 179.095 47.0089C179.095 46.0242 179.421 45.2063 180.072 44.5552C180.723 43.896 181.533 43.5664 182.502 43.5664C183.039 43.5664 183.527 43.6682 183.967 43.8716C184.414 44.0751 184.792 44.3599 185.102 44.7261L185.237 43.7129ZM180.841 48.7546C181.305 49.2184 181.887 49.4504 182.587 49.4504C183.287 49.4504 183.865 49.2184 184.321 48.7546C184.776 48.2907 185.004 47.7088 185.004 47.0089C185.004 46.309 184.776 45.7271 184.321 45.2633C183.865 44.7994 183.287 44.5674 182.587 44.5674C181.887 44.5674 181.305 44.8035 180.841 45.2755C180.385 45.7394 180.157 46.3172 180.157 47.0089C180.157 47.7006 180.385 48.2826 180.841 48.7546ZM192.699 43.7129H193.712V50.3049H192.699V47.3873H189.17V50.3049H188.157V43.7129H189.17V46.4108H192.699V43.7129ZM200.658 43.7129H201.232V50.3049H200.256V45.5929L196.41 50.3049H195.811V43.7129H196.8V48.3883L200.658 43.7129ZM209.5 47.0333C209.5 47.1229 209.492 47.249 209.476 47.4118H203.847C203.929 48.0221 204.181 48.5145 204.605 48.8888C205.028 49.2551 205.548 49.4382 206.167 49.4382C206.623 49.4382 207.026 49.3405 207.376 49.1452C207.734 48.9418 208.019 48.6569 208.23 48.2907H209.317C209.041 48.9743 208.625 49.5073 208.072 49.8898C207.519 50.2642 206.883 50.4514 206.167 50.4514C205.215 50.4514 204.417 50.1218 203.774 49.4626C203.131 48.8034 202.809 47.9855 202.809 47.0089C202.809 46.0242 203.131 45.2063 203.774 44.5552C204.417 43.896 205.215 43.5664 206.167 43.5664C207.152 43.5664 207.954 43.9001 208.572 44.5674C209.191 45.2348 209.5 46.0567 209.5 47.0333ZM206.167 44.5552C205.776 44.5552 205.418 44.6326 205.093 44.7872C204.776 44.9418 204.511 45.1656 204.299 45.4586C204.087 45.7434 203.945 46.073 203.872 46.4474H208.45C208.377 46.0649 208.234 45.7312 208.023 45.4464C207.811 45.1534 207.547 44.9337 207.229 44.7872C206.912 44.6326 206.558 44.5552 206.167 44.5552Z" fill="white"/>
</svg>
