<svg width="20" height="15" viewBox="0 0 20 15" fill="none" xmlns="http://www.w3.org/2000/svg">
<path fill-rule="evenodd" clip-rule="evenodd" d="M16.0465 0.00699571C15.9807 0.0205941 14.1032 2.03102 11.8743 4.47468C9.64547 6.91841 7.7568 8.93724 7.67727 8.96102C7.59782 8.9848 7.45515 8.96522 7.36023 8.91745C7.26524 8.86961 6.28371 8.0196 5.17889 7.02848C4.07415 6.03736 3.08952 5.19768 2.99083 5.16258C2.89222 5.12755 2.74358 5.12321 2.66059 5.15311C2.51218 5.20651 0.171939 7.52457 0.0373355 7.75148C-0.000540516 7.81534 -0.0114053 7.94306 0.013116 8.03526C0.0595179 8.20976 7.49559 14.9011 7.73529 14.9841C7.80757 15.009 7.93901 15.0041 8.02744 14.973C8.21734 14.9063 19.1516 2.94838 19.2547 2.69478C19.3032 2.5751 19.2951 2.47123 19.2283 2.35931C19.1007 2.14544 16.524 0.0727095 16.3226 0.0218756C16.2366 0.000160879 16.1123 -0.00653151 16.0465 0.00699571Z" fill="#97C92D"/>
</svg>
