<svg width="288" height="75" viewBox="0 0 288 75" fill="none" xmlns="http://www.w3.org/2000/svg">
<path fill-rule="evenodd" clip-rule="evenodd" d="M9.60397 68.5977C11.1723 68.5973 12.6769 67.9762 13.7889 66.8702C14.9009 65.7642 15.5301 64.2631 15.539 62.6947V44.9828C15.5665 41.8525 16.8292 38.8599 19.0524 36.6561C21.2756 34.4524 24.2793 33.2159 27.4096 33.2159C30.5399 33.2159 33.5436 34.4524 35.7667 36.6561C37.9899 38.8599 39.2527 41.8525 39.2802 44.9828V62.6947C39.2891 64.2631 39.9183 65.7642 41.0303 66.8702C42.1424 67.9762 43.6468 68.5973 45.2152 68.5977C46.7837 68.5973 48.2881 67.9762 49.4002 66.8702C50.5122 65.7642 51.1413 64.2631 51.1503 62.6947V44.9828C51.123 40.7756 49.9794 36.6509 47.8364 33.0302C45.6933 29.4096 42.6277 26.4227 38.9525 24.3745C35.2772 22.3265 31.1242 21.2906 26.9177 21.3729C22.7111 21.4551 18.6018 22.6524 15.0095 24.8425C14.5349 23.8069 13.7734 22.9291 12.8152 22.3131C11.857 21.697 10.7421 21.3687 9.60306 21.3669C8.03462 21.3674 6.53013 21.9884 5.41811 23.0945C4.30609 24.2005 3.6769 25.7016 3.66797 27.27V62.6947C3.6769 64.2632 4.30622 65.7644 5.41843 66.8705C6.53065 67.9766 8.03538 68.5975 9.60397 68.5977ZM27.4092 3.65871C28.5755 3.66486 29.7138 4.01633 30.6807 4.6688C31.6475 5.32125 32.3994 6.24546 32.8414 7.32479C33.2836 8.40413 33.3961 9.59019 33.1648 10.7334C32.9335 11.8766 32.3687 12.9257 31.5417 13.7483C30.7148 14.5708 29.6628 15.13 28.5184 15.3554C27.374 15.5807 26.1886 15.462 25.1116 15.0141C24.0345 14.5664 23.1143 13.8097 22.4669 12.8395C21.8195 11.8693 21.4741 10.729 21.4741 9.56266C21.4761 8.78532 21.6312 8.01596 21.9306 7.29856C22.2299 6.58115 22.6677 5.92973 23.2188 5.3815C23.7699 4.83327 24.4237 4.39895 25.1426 4.10335C25.8616 3.80776 26.6317 3.65667 27.4092 3.65871Z" fill="#2DB4C9"/>
<path fill-rule="evenodd" clip-rule="evenodd" d="M9.57789 3.65869C10.7457 3.65833 11.8873 4.00429 12.8585 4.6528C13.8297 5.30132 14.5866 6.22326 15.0338 7.30204C15.4809 8.38082 15.5981 9.56796 15.3705 10.7134C15.1429 11.8588 14.5808 12.9109 13.7551 13.7368C12.9295 14.5626 11.8776 15.1251 10.7322 15.353C9.58694 15.581 8.39974 15.4641 7.32082 15.0173C6.24191 14.5706 5.31973 13.8139 4.6709 12.8429C4.02209 11.872 3.67578 10.7305 3.67578 9.56265C3.67566 8.78746 3.82823 8.01982 4.12478 7.30358C4.42132 6.58735 4.85603 5.93653 5.4041 5.3883C5.95216 4.84007 6.60284 4.40515 7.31899 4.10839C8.03513 3.81162 8.80272 3.65881 9.57789 3.65869ZM27.2834 68.5977C28.8476 68.5929 30.3463 67.9693 31.4522 66.863C32.5581 65.7569 33.1812 64.258 33.1855 62.6937V44.9828C33.1812 43.4186 32.5581 41.9197 31.4522 40.8135C30.3463 39.7073 28.8476 39.0837 27.2834 39.0788C25.7193 39.0837 24.2205 39.7073 23.1147 40.8135C22.0088 41.9197 21.3856 43.4186 21.3812 44.9828V62.6947C21.3858 64.2587 22.0091 65.7573 23.1149 66.8634C24.2208 67.9694 25.7194 68.5929 27.2834 68.5977ZM62.6953 68.5977C64.2591 68.5927 65.7575 67.969 66.8632 66.863C67.9688 65.757 68.5919 64.2585 68.5965 62.6947V44.9828C68.5975 38.7211 66.1111 32.7154 61.6841 28.287C57.2572 23.8585 51.2525 21.3699 44.9907 21.3688C48.6576 24.1168 51.6333 27.6819 53.6815 31.781C55.7296 35.8802 56.7938 40.4005 56.7895 44.9828V62.6947C56.7941 64.2593 57.4178 65.7585 58.5245 66.8647C59.6311 67.9707 61.1306 68.5939 62.6953 68.5977Z" fill="#33393B"/>
<path fill-rule="evenodd" clip-rule="evenodd" d="M85.5489 48.9435H90.2465V30.9801H85.5489V48.9435ZM85.0605 24.5127C85.0461 24.8997 85.1129 25.2854 85.2565 25.645C85.4002 26.0045 85.6174 26.3302 85.8944 26.6008C86.1712 26.8715 86.5018 27.0812 86.8646 27.2165C87.2275 27.3518 87.6145 27.4097 88.0011 27.3865C88.3696 27.3837 88.7336 27.3062 89.0711 27.1584C89.4087 27.0107 89.7127 26.7961 89.9648 26.5273C90.2168 26.2585 90.4117 25.9414 90.5374 25.5951C90.6632 25.2488 90.7173 24.8806 90.6965 24.5127C90.6971 24.1595 90.6277 23.8097 90.4922 23.4835C90.3567 23.1573 90.1579 22.8612 89.9072 22.6124C89.6565 22.3637 89.3589 22.167 89.0318 22.0339C88.7046 21.9009 88.3543 21.8341 88.0011 21.8374C87.63 21.8093 87.2571 21.8573 86.9051 21.9783C86.5532 22.0994 86.2297 22.291 85.9544 22.5415C85.6792 22.792 85.4579 23.0959 85.3042 23.4349C85.1505 23.7738 85.0675 24.1406 85.0605 24.5127ZM105.053 48.9435H109.75V36.6874C110.268 36.1468 110.889 35.7162 111.577 35.4213C112.264 35.1266 113.005 34.9735 113.753 34.9715C116.367 34.9715 117.878 36.3288 117.878 39.2035V48.9435H122.575V38.4051C122.575 32.7764 119.512 30.6599 115.019 30.6599C113.053 30.6449 111.159 31.4053 109.75 32.7764V30.9801H105.053V48.9435ZM136.932 48.9435H141.629V30.9801H136.932V48.9435ZM136.441 24.5127C136.426 24.8997 136.493 25.2854 136.637 25.645C136.78 26.0045 136.998 26.3302 137.275 26.6008C137.552 26.8715 137.882 27.0812 138.245 27.2165C138.608 27.3518 138.995 27.4097 139.381 27.3865C139.75 27.3837 140.114 27.3062 140.452 27.1584C140.789 27.0107 141.093 26.7961 141.345 26.5273C141.598 26.2585 141.792 25.9414 141.918 25.5951C142.044 25.2488 142.098 24.8806 142.077 24.5127C142.078 24.1595 142.008 23.8097 141.873 23.4835C141.738 23.1573 141.538 22.8612 141.288 22.6124C141.037 22.3637 140.74 22.167 140.412 22.0339C140.085 21.9009 139.734 21.8341 139.381 21.8374C139.01 21.8095 138.638 21.8575 138.286 21.9786C137.934 22.0998 137.611 22.2914 137.335 22.5418C137.06 22.7923 136.839 23.0962 136.685 23.4351C136.531 23.7739 136.448 24.1406 136.441 24.5127ZM156.434 48.9435H161.131V36.6874C161.648 36.1468 162.269 35.7162 162.957 35.4213C163.645 35.1266 164.386 34.9735 165.134 34.9715C167.748 34.9715 169.259 36.3288 169.259 39.2035V48.9435H173.956V38.4051C173.956 32.7764 170.892 30.6599 166.4 30.6599C164.433 30.6449 162.54 31.4053 161.131 32.7764V30.9801H156.434V48.9435Z" fill="#33393B"/>
<path fill-rule="evenodd" clip-rule="evenodd" d="M236.891 49.3814H241.587V37.1253C242.105 36.5848 242.726 36.1542 243.414 35.8593C244.102 35.5645 244.842 35.4115 245.591 35.4095C248.204 35.4095 249.716 36.7668 249.716 39.6415V49.3814H254.412V38.843C254.412 33.2143 251.349 31.0979 246.856 31.0979C244.89 31.0829 242.997 31.8433 241.587 33.2143V31.418H236.891V49.3814Z" fill="#2DB4C9"/>
<path fill-rule="evenodd" clip-rule="evenodd" d="M185.67 45.9457C185.666 46.3727 185.747 46.7962 185.911 47.1906C186.074 47.5851 186.316 47.9424 186.621 48.2407C186.927 48.5392 187.289 48.7727 187.687 48.927C188.086 49.0813 188.511 49.1534 188.937 49.1387C189.755 49.1077 190.528 48.7547 191.086 48.1566C191.644 47.5584 191.944 46.7638 191.919 45.9457C191.895 45.1651 191.572 44.4234 191.018 43.8737C190.463 43.324 189.718 43.0082 188.937 42.9915C188.113 42.9514 187.305 43.2399 186.694 43.7936C186.081 44.3473 185.713 45.1213 185.67 45.9457Z" fill="#2DB4C9"/>
<path fill-rule="evenodd" clip-rule="evenodd" d="M281.864 43.5569C280.357 44.6469 278.538 45.2209 276.677 45.1932C273.777 45.1932 271.571 43.7169 271.163 41.0014H284.437C284.659 40.1961 284.755 39.3612 284.723 38.5264C284.723 33.4959 280.761 30.1831 276.023 30.1831C269.979 30.1831 266.303 34.3749 266.303 39.6038C266.303 45.2746 270.264 49.0246 276.187 49.0246C278.714 49.0964 281.191 48.3086 283.212 46.7901L281.864 43.5569ZM275.82 34.0154C278.515 34.0154 280.067 35.7322 280.027 37.9282H271.001C271.15 36.7829 271.734 35.7386 272.63 35.0105C273.527 34.2825 274.668 33.9263 275.82 34.0154Z" fill="#2DB4C9"/>
<path d="M213.599 49.7742C210.867 49.7742 208.588 48.8864 206.762 47.1108C204.951 45.3181 204.047 43.0901 204.047 40.4267C204.047 37.7632 204.951 35.5437 206.762 33.7681C208.588 31.9754 210.867 31.0791 213.599 31.0791C215.392 31.0791 217.014 31.4889 218.465 32.3084C219.933 33.1108 221.077 34.2291 221.897 35.6632C222.716 37.0803 223.126 38.6681 223.126 40.4267C223.126 43.1072 222.222 45.3352 220.412 47.1108C218.601 48.8864 216.331 49.7742 213.599 49.7742ZM213.599 46.112C214.658 46.112 215.614 45.873 216.468 45.395C217.321 44.8999 217.987 44.2169 218.465 43.3462C218.96 42.4754 219.208 41.5023 219.208 40.4267C219.208 38.8047 218.67 37.4559 217.594 36.3803C216.536 35.2876 215.204 34.7413 213.599 34.7413C212.012 34.7413 210.672 35.2876 209.579 36.3803C208.503 37.4559 207.965 38.8047 207.965 40.4267C207.965 42.0486 208.503 43.4059 209.579 44.4986C210.672 45.5742 212.012 46.112 213.599 46.112Z" fill="#2DB4C9"/>
<path d="M89.9224 56.9453C91.021 56.9453 91.9369 57.3005 92.6687 58.0107C93.4122 58.7209 93.7845 59.6087 93.7845 60.6741C93.7845 61.7395 93.4122 62.6273 92.6687 63.3375C91.9369 64.0477 91.021 64.4029 89.9224 64.4029H87.1924V68.5978H85.7441V56.9453H89.9224ZM89.8391 62.9879C90.5494 62.9879 91.132 62.7715 91.5866 62.3387C92.0531 61.8949 92.2863 61.3399 92.2863 60.6741C92.2863 60.0082 92.0531 59.4589 91.5866 59.0261C91.132 58.5822 90.5494 58.3603 89.8391 58.3603H87.1924V62.9879H89.8391ZM103.298 59.6087H104.43V68.5978H103.247L103.098 67.2328C102.676 67.7321 102.16 68.1206 101.55 68.398C100.951 68.6643 100.29 68.7975 99.5686 68.7975C98.2479 68.7975 97.144 68.3536 96.2558 67.4658C95.3686 66.5669 94.9241 65.446 94.9241 64.1032C94.9241 62.7605 95.3686 61.6452 96.2558 60.7573C97.144 59.8584 98.2479 59.409 99.5686 59.409C100.301 59.409 100.967 59.5477 101.566 59.8251C102.176 60.1025 102.693 60.491 103.115 60.9904L103.298 59.6087ZM97.3049 66.4837C97.9379 67.1162 98.7308 67.4325 99.6857 67.4325C100.64 67.4325 101.427 67.1162 102.049 66.4837C102.67 65.8511 102.981 65.0577 102.981 64.1032C102.981 63.1488 102.67 62.3554 102.049 61.7228C101.427 61.0903 100.64 60.774 99.6857 60.774C98.7308 60.774 97.9379 61.0958 97.3049 61.7395C96.683 62.372 96.3729 63.16 96.3729 64.1032C96.3729 65.0465 96.683 65.84 97.3049 66.4837ZM111.957 63.8535C112.779 64.2974 113.189 65.0299 113.189 66.0509C113.189 66.5835 113.039 67.0607 112.739 67.4824C112.451 67.893 112.041 68.2149 111.508 68.4479C110.986 68.681 110.398 68.7975 109.743 68.7975C108.789 68.7975 108.001 68.5534 107.38 68.0651C106.77 67.5767 106.425 66.922 106.348 66.1008H107.629C107.718 66.5225 107.951 66.8555 108.328 67.0996C108.706 67.3326 109.178 67.4492 109.743 67.4492C110.343 67.4492 110.836 67.3104 111.225 67.033C111.613 66.7556 111.807 66.3894 111.807 65.9343C111.807 65.5126 111.641 65.163 111.308 64.8856C110.986 64.6082 110.575 64.4695 110.076 64.4695H108.744V63.3209H110.076C110.542 63.3209 110.914 63.2043 111.192 62.9713C111.48 62.7272 111.624 62.4164 111.624 62.0391C111.624 61.6285 111.452 61.2956 111.109 61.0403C110.765 60.785 110.309 60.6575 109.743 60.6575C109.244 60.6575 108.827 60.7684 108.495 60.9904C108.162 61.2124 107.951 61.512 107.863 61.8893H106.58C106.625 61.401 106.786 60.9681 107.063 60.5909C107.352 60.2136 107.729 59.925 108.195 59.7253C108.672 59.5144 109.2 59.409 109.777 59.409C110.698 59.409 111.458 59.6476 112.057 60.1248C112.656 60.6019 112.956 61.2012 112.956 61.9226C112.956 62.7882 112.623 63.4318 111.957 63.8535ZM121.82 59.6087H123.335L119.057 68.964C118.724 69.6964 118.396 70.2624 118.074 70.6619C117.752 71.0614 117.392 71.35 116.992 71.5275C116.594 71.7162 116.105 71.8105 115.528 71.8105H114.679V70.5287H115.411C116.011 70.5287 116.46 70.4066 116.76 70.1625C117.059 69.9184 117.392 69.419 117.759 68.6643L118.074 67.9818L114.079 59.6087H115.628L118.824 66.4171L121.82 59.6087ZM135.681 68.5978H134.316L133.034 61.9226L129.855 68.4146H129.538L126.376 61.9226L125.094 68.5978H123.729L125.444 59.6087H126.625L129.705 65.901L132.768 59.6087H133.95L135.681 68.5978ZM143.952 59.6087H145.334V68.5978H143.952V64.6193H139.142V68.5978H137.76V59.6087H139.142V63.2876H143.952V59.6087ZM152.242 68.7975C151.353 68.7975 150.544 68.5978 149.811 68.1982C149.079 67.7877 148.507 67.2272 148.096 66.517C147.686 65.7956 147.481 64.9911 147.481 64.1032C147.481 62.7493 147.93 61.6285 148.829 60.7407C149.739 59.8528 150.877 59.409 152.242 59.409C153.141 59.409 153.951 59.6143 154.672 60.0249C155.404 60.4244 155.976 60.9848 156.387 61.7062C156.808 62.4164 157.019 63.2154 157.019 64.1032C157.019 65.446 156.564 66.5669 155.654 67.4658C154.744 68.3536 153.606 68.7975 152.242 68.7975ZM149.861 66.5003C150.494 67.1218 151.288 67.4325 152.242 67.4325C153.207 67.4325 154 67.1218 154.622 66.5003C155.254 65.8678 155.571 65.0687 155.571 64.1032C155.571 63.1378 155.254 62.3443 154.622 61.7228C154 61.0903 153.207 60.774 152.242 60.774C151.288 60.774 150.494 61.0903 149.861 61.7228C149.24 62.3443 148.929 63.1378 148.929 64.1032C148.929 65.0687 149.24 65.8678 149.861 66.5003ZM167.576 64.1365C167.576 64.2586 167.564 64.4306 167.542 64.6526H159.869C159.979 65.4849 160.323 66.1563 160.9 66.6668C161.477 67.1662 162.188 67.4159 163.031 67.4159C163.652 67.4159 164.202 67.2827 164.68 67.0164C165.168 66.7389 165.556 66.3505 165.845 65.8511H167.327C166.949 66.7833 166.383 67.5102 165.628 68.0318C164.874 68.5422 164.008 68.7975 163.031 68.7975C161.733 68.7975 160.645 68.3481 159.769 67.4492C158.892 66.5503 158.454 65.4349 158.454 64.1032C158.454 62.7605 158.892 61.6452 159.769 60.7573C160.645 59.8584 161.733 59.409 163.031 59.409C164.374 59.409 165.467 59.864 166.31 60.774C167.154 61.6839 167.576 62.8048 167.576 64.1365ZM163.031 60.7573C162.499 60.7573 162.011 60.8628 161.566 61.0736C161.134 61.2844 160.773 61.5896 160.484 61.9892C160.196 62.3776 160.002 62.8271 159.902 63.3375H166.144C166.044 62.8159 165.85 62.361 165.561 61.9725C165.273 61.573 164.913 61.2734 164.479 61.0736C164.047 60.8628 163.564 60.7573 163.031 60.7573ZM178.006 68.7975C177.129 68.7975 176.33 68.5978 175.609 68.1982C174.899 67.7877 174.338 67.2217 173.927 66.5003C173.528 65.7789 173.328 64.9799 173.328 64.1032C173.328 62.7605 173.772 61.6452 174.66 60.7573C175.558 59.8584 176.674 59.409 178.006 59.409C179.071 59.409 179.992 59.703 180.769 60.2912C181.557 60.8794 182.09 61.6618 182.367 62.6384H180.968C180.702 62.0613 180.302 61.6063 179.77 61.2734C179.249 60.9404 178.661 60.774 178.006 60.774C177.085 60.774 176.314 61.0958 175.692 61.7395C175.082 62.372 174.776 63.16 174.776 64.1032C174.776 64.7247 174.915 65.2907 175.192 65.8012C175.47 66.3006 175.853 66.7001 176.341 66.9997C176.841 67.2883 177.396 67.4325 178.006 67.4325C178.661 67.4325 179.243 67.266 179.754 66.9331C180.275 66.5891 180.675 66.1175 180.952 65.5182H182.383C182.106 66.517 181.568 67.316 180.769 67.9153C179.981 68.5035 179.06 68.7975 178.006 68.7975ZM191.21 59.6087V60.8905H187.865V68.5978H186.483V60.8905H183.137V59.6087H191.21ZM197.678 59.409C199.021 59.409 200.125 59.8528 200.991 60.7407C201.868 61.6285 202.306 62.7493 202.306 64.1032C202.306 65.446 201.868 66.5669 200.991 67.4658C200.125 68.3536 199.021 68.7975 197.678 68.7975C196.324 68.7975 195.209 68.3314 194.332 67.3992V71.8105H192.917V59.6087H193.883L194.166 60.9904C194.587 60.491 195.098 60.1025 195.698 59.8251C196.308 59.5477 196.968 59.409 197.678 59.409ZM197.578 67.4325C198.533 67.4325 199.32 67.1162 199.942 66.4837C200.563 65.8511 200.874 65.0577 200.874 64.1032C200.874 63.1488 200.563 62.3554 199.942 61.7228C199.32 61.0903 198.533 60.774 197.578 60.774C196.624 60.774 195.83 61.0958 195.198 61.7395C194.576 62.372 194.265 63.16 194.265 64.1032C194.265 64.7247 194.404 65.2907 194.681 65.8012C194.97 66.3116 195.37 66.7111 195.881 66.9997C196.391 67.2883 196.957 67.4325 197.578 67.4325ZM212.116 59.6087H213.248V68.5978H212.067L211.917 67.2328C211.495 67.7321 210.979 68.1206 210.368 68.398C209.769 68.6643 209.109 68.7975 208.388 68.7975C207.067 68.7975 205.963 68.3536 205.075 67.4658C204.187 66.5669 203.744 65.446 203.744 64.1032C203.744 62.7605 204.187 61.6452 205.075 60.7573C205.963 59.8584 207.067 59.409 208.388 59.409C209.12 59.409 209.786 59.5477 210.386 59.8251C210.996 60.1025 211.512 60.491 211.933 60.9904L212.116 59.6087ZM206.124 66.4837C206.756 67.1162 207.549 67.4325 208.504 67.4325C209.458 67.4325 210.247 67.1162 210.868 66.4837C211.49 65.8511 211.801 65.0577 211.801 64.1032C211.801 63.1488 211.49 62.3554 210.868 61.7228C210.247 61.0903 209.458 60.774 208.504 60.774C207.549 60.774 206.756 61.0958 206.124 61.7395C205.502 62.372 205.191 63.16 205.191 64.1032C205.191 65.0465 205.502 65.84 206.124 66.4837ZM223.106 68.5978H221.509L218.945 64.8523L216.348 68.5978H214.801L218.096 63.9201L215.067 59.6087H216.648L218.945 62.938L221.293 59.6087H222.84L219.795 63.8702L223.106 68.5978ZM228.418 68.7975C227.531 68.7975 226.72 68.5978 225.988 68.1982C225.255 67.7877 224.684 67.2272 224.274 66.517C223.863 65.7956 223.657 64.9911 223.657 64.1032C223.657 62.7493 224.107 61.6285 225.005 60.7407C225.915 59.8528 227.053 59.409 228.418 59.409C229.317 59.409 230.127 59.6143 230.849 60.0249C231.581 60.4244 232.152 60.9848 232.563 61.7062C232.984 62.4164 233.196 63.2154 233.196 64.1032C233.196 65.446 232.74 66.5669 231.83 67.4658C230.92 68.3536 229.783 68.7975 228.418 68.7975ZM226.038 66.5003C226.67 67.1218 227.464 67.4325 228.418 67.4325C229.384 67.4325 230.177 67.1218 230.799 66.5003C231.431 65.8678 231.747 65.0687 231.747 64.1032C231.747 63.1378 231.431 62.3443 230.799 61.7228C230.177 61.0903 229.384 60.774 228.418 60.774C227.464 60.774 226.67 61.0903 226.038 61.7228C225.416 62.3443 225.106 63.1378 225.106 64.1032C225.106 65.0687 225.416 65.8678 226.038 66.5003ZM241.122 63.9368C241.577 64.1032 241.938 64.3807 242.204 64.7691C242.482 65.1575 242.62 65.5958 242.62 66.0842C242.62 66.8055 242.354 67.4048 241.822 67.882C241.299 68.3591 240.645 68.5978 239.857 68.5978H235.346V59.6087H239.807C240.55 59.6087 241.156 59.8251 241.621 60.2579C242.088 60.6797 242.321 61.2234 242.321 61.8893C242.321 62.1889 242.271 62.4719 242.171 62.7382C242.071 63.0046 241.932 63.2432 241.755 63.454C241.577 63.6538 241.366 63.8147 241.122 63.9368ZM240.923 62.139C240.923 61.7728 240.8 61.4842 240.556 61.2734C240.313 61.0514 239.996 60.9404 239.607 60.9404H236.727V63.3209H239.607C240.007 63.3209 240.324 63.2154 240.556 63.0046C240.8 62.7826 240.923 62.4941 240.923 62.139ZM239.691 67.266C239.968 67.266 240.217 67.2105 240.44 67.0996C240.673 66.9775 240.85 66.8166 240.972 66.6168C241.095 66.4171 241.156 66.1951 241.156 65.951C241.156 65.6957 241.095 65.4682 240.972 65.2685C240.85 65.0577 240.673 64.8967 240.44 64.7857C240.217 64.6748 239.962 64.6193 239.674 64.6193H236.727V67.266H239.691ZM252.562 59.6087H253.694V68.5978H252.512L252.362 67.2328C251.94 67.7321 251.424 68.1206 250.814 68.398C250.214 68.6643 249.555 68.7975 248.833 68.7975C247.513 68.7975 246.409 68.3536 245.52 67.4658C244.632 66.5669 244.189 65.446 244.189 64.1032C244.189 62.7605 244.632 61.6452 245.52 60.7573C246.409 59.8584 247.513 59.409 248.833 59.409C249.566 59.409 250.232 59.5477 250.831 59.8251C251.441 60.1025 251.957 60.491 252.378 60.9904L252.562 59.6087ZM246.57 66.4837C247.202 67.1162 247.995 67.4325 248.949 67.4325C249.904 67.4325 250.692 67.1162 251.314 66.4837C251.935 65.8511 252.246 65.0577 252.246 64.1032C252.246 63.1488 251.935 62.3554 251.314 61.7228C250.692 61.0903 249.904 60.774 248.949 60.774C247.995 60.774 247.202 61.0958 246.57 61.7395C245.948 62.372 245.637 63.16 245.637 64.1032C245.637 65.0465 245.948 65.84 246.57 66.4837ZM262.737 59.6087H264.118V68.5978H262.737V64.6193H257.926V68.5978H256.544V59.6087H257.926V63.2876H262.737V59.6087ZM273.589 59.6087H274.372V68.5978H273.04V62.1723L267.796 68.5978H266.981V59.6087H268.329V65.9843L273.589 59.6087ZM285.645 64.1365C285.645 64.2586 285.634 64.4306 285.612 64.6526H277.937C278.048 65.4849 278.392 66.1563 278.97 66.6668C279.547 67.1662 280.256 67.4159 281.1 67.4159C281.722 67.4159 282.271 67.2827 282.748 67.0164C283.236 66.7389 283.625 66.3505 283.913 65.8511H285.395C285.018 66.7833 284.452 67.5102 283.697 68.0318C282.943 68.5422 282.077 68.7975 281.1 68.7975C279.802 68.7975 278.714 68.3481 277.837 67.4492C276.961 66.5503 276.522 65.4349 276.522 64.1032C276.522 62.7605 276.961 61.6452 277.837 60.7573C278.714 59.8584 279.802 59.409 281.1 59.409C282.443 59.409 283.536 59.864 284.38 60.774C285.223 61.6839 285.645 62.8048 285.645 64.1365ZM281.1 60.7573C280.567 60.7573 280.079 60.8628 279.635 61.0736C279.203 61.2844 278.841 61.5896 278.553 61.9892C278.264 62.3776 278.07 62.8271 277.971 63.3375H284.213C284.113 62.8159 283.919 62.361 283.631 61.9725C283.341 61.573 282.981 61.2734 282.549 61.0736C282.116 60.8628 281.633 60.7573 281.1 60.7573Z" fill="#33393B"/>
</svg>
