<svg width="14" height="10" viewBox="0 0 14 10" fill="none" xmlns="http://www.w3.org/2000/svg">
<path d="M7.79178 6.50459C7.4596 6.72604 7.07375 6.84311 6.67593 6.84311C6.27814 6.84311 5.89229 6.72604 5.56011 6.50459L0.0888994 2.857C0.0586962 2.83681 0.0290519 2.81579 0 2.79397L0 8.77094C0 9.45621 0.55611 10.0001 1.22913 10.0001H12.1227C12.808 10.0001 13.3518 9.44396 13.3518 8.77094V2.79395C13.3227 2.81582 13.293 2.83688 13.2628 2.85711L7.79178 6.50459Z" fill="#9CA5A9"/>
<path d="M0.522862 2.20598L5.99408 5.85359C6.20119 5.99168 6.43855 6.0607 6.67591 6.0607C6.91329 6.0607 7.15068 5.99165 7.35779 5.85359L12.829 2.20598C13.1564 1.98784 13.3519 1.62275 13.3519 1.22871C13.3519 0.551182 12.8007 0 12.1232 0H1.22871C0.551209 2.60779e-05 6.46758e-07 0.551208 6.46758e-07 1.22936C-0.000202463 1.42265 0.0474364 1.61299 0.138668 1.7834C0.2299 1.9538 0.361889 2.09898 0.522862 2.20598Z" fill="#9CA5A9"/>
</svg>
