<svg width="14" height="15" viewBox="0 0 14 15" fill="none" xmlns="http://www.w3.org/2000/svg">
<path d="M9.49325 15C9.49325 14.9209 9.48527 14.8437 9.46997 14.7691C9.36314 14.2469 8.90109 13.8542 8.34735 13.8542H6.24149C5.97433 13.8542 5.71213 13.782 5.4826 13.6453L0.396044 10.6304C0.324047 10.5876 0.259113 10.5339 0.203554 10.4712C0.114561 10.3706 0.0519872 10.2494 0.0214608 10.1185C0.00324624 10.0407 -0.00342975 9.96059 0.00164678 9.88082C0.0102354 9.74739 0.0519729 9.61412 0.129873 9.4935L0.139215 9.47904C0.156543 9.45229 0.175604 9.42728 0.195418 9.40317C0.201143 9.39617 0.20717 9.38954 0.213122 9.38283C0.228717 9.36513 0.24499 9.34825 0.261866 9.3322C0.267818 9.32655 0.273619 9.32068 0.279646 9.31518C0.302248 9.29491 0.325678 9.27577 0.350163 9.25837C0.353779 9.25581 0.357622 9.2537 0.361238 9.25114C0.409334 9.21825 0.460806 9.1906 0.514778 9.16864C0.521182 9.16608 0.527359 9.16314 0.533839 9.16066C0.561563 9.15019 0.58989 9.14122 0.618519 9.13384C0.624772 9.13225 0.631251 9.13112 0.63758 9.12969C0.69375 9.11661 0.751157 9.10956 0.808824 9.10867C0.814023 9.1086 0.819221 9.10807 0.824419 9.10815C0.852822 9.1083 0.881375 9.10995 0.909853 9.11312C0.917237 9.11395 0.924545 9.11538 0.931928 9.11643C0.983723 9.12351 1.03468 9.13575 1.08404 9.15297C1.09262 9.15591 1.10121 9.15862 1.10973 9.16186C1.13745 9.17249 1.16495 9.18424 1.19192 9.1981L4.35509 10.8748L4.44866 10.9243L5.41563 11.4369C5.78015 11.6246 6.18426 11.7226 6.5943 11.7226H8.43467C8.47216 11.7226 8.50924 11.7149 8.5436 11.6999C8.57795 11.6849 8.60883 11.6629 8.63431 11.6354C8.65979 11.6079 8.67931 11.5754 8.69165 11.54C8.704 11.5046 8.70889 11.4671 8.70604 11.4297C8.69768 11.3171 8.61466 11.2236 8.50745 11.1879L6.31366 10.4566C6.15762 10.4046 6.02399 10.3009 5.93482 10.1627C5.84565 10.0245 5.80628 9.86 5.82321 9.69639C5.86103 9.32309 6.19275 9.0481 6.56793 9.0481C7.03503 9.0481 7.501 9.09323 7.95944 9.18288L12.119 9.99646C12.4542 10.0618 12.7615 10.2278 12.9999 10.4723C13.307 10.7865 13.4788 11.2084 13.4785 11.6477V14.9999H9.49325V15ZM1.96738 5.94717H2.55751V8.64323L4.68884 9.77293C4.68891 9.71003 4.69208 9.64659 4.69856 9.5827C4.79469 8.63381 5.59817 7.91817 6.56763 7.91817C7.1063 7.91817 7.64746 7.97061 8.17603 8.07397L10.9452 8.61558V5.94717H11.6815C11.7936 5.94713 11.9032 5.91373 11.9963 5.85123C12.0893 5.78873 12.1617 5.69995 12.2042 5.59619C12.2467 5.49243 12.2574 5.37837 12.2349 5.26853C12.2123 5.15869 12.1576 5.05803 12.0777 4.97937L7.18074 0.162217C7.07447 0.0577002 6.93122 -0.000602062 6.78217 4.68879e-06C6.63312 0.00061144 6.49035 0.060078 6.38493 0.165456L1.56779 4.98261C1.48877 5.06163 1.43496 5.16232 1.41316 5.27192C1.39137 5.38153 1.40256 5.49514 1.44533 5.59839C1.48811 5.70163 1.56053 5.78987 1.65346 5.85196C1.74638 5.91404 1.85563 5.94717 1.96738 5.94717Z" fill="#2DB4C9"/>
</svg>
