<svg width="14" height="12" viewBox="0 0 14 12" fill="none" xmlns="http://www.w3.org/2000/svg">
<path d="M13.5002 3.65682C13.4071 1.68247 11.883 0.0154219 9.94561 0.000123048C8.56844 -0.0106917 7.45954 0.692001 6.75263 1.85999C6.04228 0.686462 4.93127 -0.0104279 3.55965 0.000123048C1.6217 0.0154219 0.0981479 1.683 0.00503581 3.65682C-0.0411246 4.63673 0.23109 5.48793 0.779211 6.33069H3.31935L4.33857 3.78316L6.01037 7.12649L6.54082 6.33069H8.06727L9.12659 3.68267L10.1859 6.33069H12.7266C13.2747 5.48846 13.5466 4.63753 13.5002 3.65682ZM9.12659 5.81345L8.60326 7.12204H6.96444L5.91224 8.70019L4.41876 5.71296L3.85534 7.12204H1.37217C2.53515 8.50078 4.38974 9.95549 6.75263 12C9.11868 9.95259 10.9719 8.49867 12.1333 7.12204H9.64991L9.12659 5.81345Z" fill="#2DB4C9"/>
</svg>
