<svg width="18" height="14" viewBox="0 0 18 14" fill="none" xmlns="http://www.w3.org/2000/svg">
<path d="M17.1348 4.52999H16.6181C15.7281 4.52999 14.93 3.98187 14.6105 3.1512C14.059 1.72999 12.6802 0.817871 11.1529 0.817871H6.95294C5.42566 0.817871 4.06809 1.72999 3.49536 3.1512C3.16226 3.98395 2.35573 4.52999 1.45884 4.52999H0.949905C0.737784 4.52999 0.546875 4.69969 0.546875 4.93302C0.546875 4.9916 0.575237 5.04806 0.588736 5.10506L0.758996 5.82393C0.80142 5.99363 0.971117 6.1209 1.14081 6.1209C1.38212 6.1209 1.51552 6.44689 1.39185 6.65409C1.2028 6.97083 1.09839 7.33329 1.09839 7.71181V9.30272C1.09839 9.32559 1.09878 9.34842 1.09954 9.37119C1.13126 10.3135 1.62869 11.2198 1.62869 12.1626V12.4845C1.62869 13.0785 2.09536 13.5451 2.6893 13.5451H3.74991C4.34385 13.5451 4.81051 13.0785 4.81051 12.4845C4.81051 11.8988 5.28536 11.4239 5.87112 11.4239H12.2348C12.8205 11.4239 13.2954 11.8988 13.2954 12.4845C13.2954 13.0785 13.762 13.5451 14.356 13.5451H15.4166C16.0105 13.5451 16.4772 13.0785 16.4772 12.4845V12.2023C16.4772 11.2226 17.0075 10.2612 17.0075 9.28151V7.6906C17.0075 7.29757 16.8949 6.92187 16.6919 6.59667C16.5719 6.40438 16.696 6.09969 16.9226 6.09969C17.1135 6.09969 17.262 5.97242 17.3045 5.80272L17.4954 4.99666C17.5329 4.80885 17.4375 4.62104 17.2679 4.53629C17.2345 4.51963 17.172 4.52999 17.1348 4.52999ZM5.46809 3.93605C5.70142 3.3209 6.29536 2.93908 6.95294 2.93908H11.1529C11.8105 2.93908 12.4045 3.34211 12.6378 3.93605C12.9531 4.72937 12.3686 5.5906 11.5149 5.5906H6.59094C5.73726 5.5906 5.15279 4.72937 5.46809 3.93605ZM3.74991 9.30272C3.19839 9.34514 2.73172 8.9209 2.6893 8.36939V8.24211C2.64688 7.6906 3.07112 7.22393 3.62263 7.18151H3.74991C4.38627 7.18151 5.34082 8.13605 5.34082 8.77242C5.34082 9.40878 4.38627 9.30272 3.74991 9.30272ZM14.356 9.30272C13.7196 9.30272 12.7651 9.40878 12.7651 8.77242C12.7651 8.13605 13.7196 7.18151 14.356 7.18151C14.9075 7.13908 15.3741 7.56333 15.4166 8.11484V8.24211C15.459 8.79363 15.0348 9.2603 14.4832 9.30272H14.356Z" fill="#2DB4C9"/>
</svg>
