<svg width="15" height="14" viewBox="0 0 15 14" fill="none" xmlns="http://www.w3.org/2000/svg">
<path d="M2.33435 3.23942V13.5456H1.1831C0.631144 13.5456 0.183594 13.0981 0.183594 12.5461V4.23852C0.183594 3.68657 0.631144 3.23942 1.1831 3.23942H2.33435ZM14.6922 4.23852V12.5461C14.6922 13.0981 14.2446 13.5456 13.6927 13.5456H12.5414V3.23942H13.6927C14.2446 3.23942 14.6922 3.68657 14.6922 4.23852ZM5.74803 2.99663L5.76624 2.0384C5.76948 1.85873 5.91637 1.71508 6.09604 1.71508H8.82545C9.00997 1.71508 9.15889 1.86642 9.15524 2.05135L9.13703 2.99703H10.0342V1.14815C10.0342 0.966059 9.88646 0.818359 9.70436 0.818359H5.1714C4.9893 0.818359 4.8416 0.966059 4.8416 1.14815V2.99703H5.74803V2.99663ZM3.29621 3.23942V13.5456H11.5799V3.23942H3.29621ZM4.98121 11.1934L5.33609 9.30968L6.79002 10.5589L4.98121 11.1934ZM5.19487 7.5296L4.66112 6.00849L6.92558 5.21374L7.45933 6.73485L5.19487 7.5296ZM10.5582 9.03371C10.3356 9.41934 9.67927 9.45698 9.09212 9.11788C8.50496 8.77877 8.20956 8.19162 8.43212 7.80598C8.65468 7.42034 9.31104 7.38271 9.89819 7.72181C10.4853 8.06091 10.7807 8.64807 10.5582 9.03371Z" fill="#2DB4C9"/>
</svg>
