<svg width="172" height="45" viewBox="0 0 172 45" fill="none" xmlns="http://www.w3.org/2000/svg">
<g clip-path="url(#clip0_1_1644)">
<path fill-rule="evenodd" clip-rule="evenodd" d="M12.7056 15.104C13.023 14.3135 13.1981 13.436 13.1981 12.4984C13.1981 8.62008 10.3007 5.94177 6.5386 5.94177H0.660889V26.9603H3.93202V18.9096H6.56674C7.55183 18.9096 8.44936 18.7641 9.25932 18.4416C10.0693 18.1191 10.7651 17.6795 11.3452 17.1246C11.9238 16.568 12.3866 15.8945 12.7056 15.104ZM6.97329 15.455H3.93202V9.63037H7.02958C7.87082 9.63037 8.56507 9.92287 9.08576 10.4794C9.60645 11.0359 9.86758 11.7379 9.86758 12.5569C9.86758 13.436 9.57831 14.138 9.02791 14.666C8.47907 15.1909 7.78325 15.455 6.97329 15.455Z" fill="#F1F3F3"/>
<path d="M35.2138 17.6225H42.2783V12.1188H45.4337V26.9618H42.2783V21.0186H35.2138V26.9618H32.0583V12.1188H35.2138V17.6225Z" fill="#F1F3F3"/>
<path fill-rule="evenodd" clip-rule="evenodd" d="M61.3561 22.2168C60.9511 22.7449 59.4156 24.1789 56.8106 24.1789C53.6474 24.1789 52.3824 21.8374 52.237 20.6943H63.2966C63.3544 20.3433 63.3826 19.9638 63.3826 19.5243C63.3826 18.4997 63.209 17.5053 62.8916 16.5677C62.5726 15.6301 62.1098 14.8111 61.5015 14.1092C60.8932 13.4072 60.1411 12.8491 59.2733 12.4396C58.4039 12.0301 57.4486 11.8261 56.3775 11.8261C55.2485 11.8261 54.2353 12.0301 53.3378 12.4396C52.4402 12.8491 51.6584 13.4356 51.022 14.1677C50.384 14.8981 49.8931 15.7187 49.5444 16.6562C49.1972 17.5922 49.0237 18.5883 49.0237 19.6413C49.0237 20.8413 49.2254 21.9243 49.6022 22.8903C49.9791 23.8564 50.5295 24.6769 51.2237 25.3505C51.918 26.0224 52.7295 26.5505 53.6849 26.9015C54.6403 27.2525 55.5003 27.428 56.7543 27.428C59.9942 27.428 62.08 25.0564 62.2833 24.7054L61.3561 22.2168ZM52.2479 18.065C52.3902 17.2128 53.4269 15.1621 56.232 15.1621C58.5212 15.1621 59.8691 16.6135 60.2068 18.065H52.2479Z" fill="#F1F3F3"/>
<path fill-rule="evenodd" clip-rule="evenodd" d="M26.6172 22.2168C26.2106 22.7449 24.6751 24.1789 22.0717 24.1789C18.9069 24.1789 17.6419 21.8374 17.4965 20.6943H28.5561C28.6139 20.3433 28.6436 19.9638 28.6436 19.5243C28.6436 18.4997 28.4701 17.5053 28.1511 16.5677C27.8337 15.6301 27.3693 14.8111 26.761 14.1092C26.1543 13.4072 25.4007 12.8491 24.5328 12.4396C23.6635 12.0301 22.7081 11.8261 21.637 11.8261C20.508 11.8261 19.4948 12.0301 18.5973 12.4396C17.6997 12.8491 16.9179 13.4356 16.2815 14.1677C15.6436 14.8981 15.1526 15.7187 14.8039 16.6562C14.4568 17.5922 14.2832 18.5883 14.2832 19.6413C14.2832 20.8413 14.4865 21.9243 14.8617 22.8903C15.2386 23.8564 15.7874 24.6769 16.4832 25.3505C17.1791 26.0224 17.989 26.5505 18.9444 26.9015C19.8998 27.2525 20.7613 27.428 22.0138 27.428C25.2537 27.428 27.3411 25.0564 27.5428 24.7054L26.6172 22.2168ZM17.5074 18.065C17.6497 17.2128 18.6864 15.1621 21.4931 15.1621C23.7807 15.1621 25.1301 16.6135 25.4663 18.065H17.5074Z" fill="#F1F3F3"/>
<path d="M89.2078 27.4034C85.6442 27.4034 81.6226 24.6666 81.6226 19.5866C81.6226 15.1075 84.9359 11.7999 89.2375 11.7999C92.2647 11.7999 94.2458 13.6434 94.6211 14.317L93.7532 16.951C93.7532 16.951 91.9003 15.1945 89.7003 15.1945C86.301 15.1945 84.8077 17.6071 84.8077 19.5566C84.8077 20.8752 85.2705 21.9297 86.1681 22.7487C87.0656 23.5677 88.2524 23.9772 89.73 23.9772C91.7893 23.9772 93.5547 22.7234 93.9596 22.2554L94.8869 24.8895C94.8869 24.8895 92.8635 27.4034 89.2078 27.4034Z" fill="#F1F3F3"/>
<path d="M73.4553 27.4034C69.8918 27.4034 65.8701 24.6666 65.8701 19.5866C65.8701 15.1075 69.1835 11.7999 73.485 11.7999C76.5122 11.7999 78.4934 13.6434 78.8702 14.317L78.0008 16.951C78.0008 16.951 76.1479 15.1945 73.9479 15.1945C70.5485 15.1945 69.0552 17.6071 69.0552 19.5566C69.0552 20.8752 69.5181 21.9297 70.4156 22.7487C71.3131 23.5677 72.4999 23.9772 73.9776 23.9772C76.0369 23.9772 77.8022 22.7234 78.2088 22.2554L79.1344 24.8895C79.1344 24.8895 77.1127 27.4034 73.4553 27.4034Z" fill="#F1F3F3"/>
<path d="M140.863 27.4034C137.299 27.4034 133.277 24.6666 133.277 19.5866C133.277 15.1075 136.591 11.7999 140.892 11.7999C143.919 11.7999 145.901 13.6434 146.277 14.317L145.408 16.951C145.408 16.951 143.557 15.1945 141.355 15.1945C137.956 15.1945 136.462 17.6071 136.462 19.5566C136.462 20.8752 136.925 21.9297 137.823 22.7487C138.72 23.5677 139.907 23.9772 141.385 23.9772C143.444 23.9772 145.211 22.7234 145.616 22.2554L146.542 24.8895C146.542 24.8895 144.52 27.4034 140.863 27.4034Z" fill="#F1F3F3"/>
<path fill-rule="evenodd" clip-rule="evenodd" d="M109.122 25.4071V26.9596H112.134V12.1183H109.069V13.6234C109.069 13.6234 107.323 11.7372 104.467 11.7372C101.231 11.7372 97.1636 13.8938 97.1636 19.5824C97.1636 24.6434 101.018 27.3691 104.692 27.3691C107.521 27.3691 109.122 25.4071 109.122 25.4071ZM104.924 23.9161C101.77 23.9161 100.291 21.524 100.291 19.5824C100.291 17.048 102.18 15.1618 104.924 15.1618C106.567 15.1618 108.018 15.7832 109.007 16.9089V22.1517C109.007 22.1517 107.728 23.9161 104.924 23.9161Z" fill="#F1F3F3"/>
<path d="M119.921 17.6225H126.985V12.1188H130.141V26.9618H126.985V21.0186H119.921V26.9618H116.765V12.1188H119.921V17.6225Z" fill="#F1F3F3"/>
<path d="M4.6159 45.0005C3.99185 45.0005 3.39955 44.8907 2.83812 44.67C2.2767 44.4493 1.79377 44.1341 1.37259 43.7242C0.951415 43.314 0.623733 42.8248 0.374111 42.2575C0.124932 41.6894 0.00012207 41.0589 0.00012207 40.3645C0.00012207 39.6715 0.124932 39.041 0.374111 38.4728C0.623733 37.9056 0.951415 37.4165 1.37259 37.0062C1.79377 36.5964 2.2767 36.2811 2.83812 36.0602C3.39955 35.8395 3.99185 35.729 4.63133 35.729C5.05251 35.729 5.45781 35.7763 5.83225 35.8708C6.20624 35.9658 6.54935 36.0915 6.86159 36.2498C7.1734 36.4068 7.43847 36.5807 7.6572 36.7855C7.87508 36.9905 8.04664 37.1957 8.17189 37.4165L7.81289 38.505C7.6722 38.2998 7.4852 38.1107 7.2669 37.9208C7.04904 37.7317 6.79897 37.5747 6.53436 37.432C6.26887 37.2906 5.98837 37.1806 5.67612 37.1007C5.36432 37.0218 5.05251 36.9753 4.72484 36.9753C4.19472 36.9753 3.71135 37.0542 3.27474 37.2112C2.83812 37.3697 2.46369 37.5904 2.15189 37.89C1.84008 38.1896 1.60634 38.5362 1.43478 38.9465C1.26322 39.3563 1.18516 39.8285 1.18516 40.3488C1.18516 40.8693 1.2791 41.3429 1.45021 41.7688C1.62177 42.1938 1.87139 42.5407 2.18319 42.8248C2.495 43.1087 2.86944 43.3296 3.30606 43.4865C3.74311 43.6453 4.22604 43.7242 4.75614 43.7242C5.47369 43.7242 6.11317 43.5815 6.67416 43.2819C7.23558 42.983 7.6572 42.6352 7.93727 42.2254L8.28081 43.2983C7.85214 43.8152 6.59169 45.0005 4.6159 45.0005Z" fill="#F1F3F3"/>
<path d="M16.4843 35.8859V37.1159H13.4915V44.8109H12.3375V37.1159H9.31189V35.8859H16.4843Z" fill="#F1F3F3"/>
<path fill-rule="evenodd" clip-rule="evenodd" d="M23.5821 39.6994C23.7228 39.3689 23.7854 39.0069 23.7854 38.6132C23.7854 37.8227 23.2506 35.8859 21.0256 35.8859H18.2485V44.8093H19.4025V41.2931H21.0256C21.4305 41.2931 21.8042 41.2298 22.1482 41.1033C22.4907 40.9784 22.7878 40.7887 23.0208 40.5516C23.2553 40.3144 23.4414 40.0314 23.5821 39.6994ZM22.475 38.0614C22.5532 38.2337 22.5845 38.4235 22.5845 38.6274C22.5845 39.3626 22.203 40.1104 21.1804 40.1104H19.3728V37.1618H21.1804C21.3836 37.1618 21.5713 37.2092 21.7433 37.2883C21.9137 37.3673 22.0544 37.4764 22.1795 37.6029C22.303 37.7294 22.3969 37.8875 22.475 38.0614Z" fill="#F1F3F3"/>
<path fill-rule="evenodd" clip-rule="evenodd" d="M25.3299 44.8109L26.1727 42.7303H30.5556L31.3812 44.8109H32.629L28.9951 35.8859H27.716L24.0822 44.8109H25.3299ZM28.3556 37.3831L30.0396 41.4986H26.6715L28.3556 37.3831Z" fill="#F1F3F3"/>
<path d="M33.4419 44.8109L36.5754 40.1911L33.6123 35.8859H35.0634L37.2931 39.0875L39.5385 35.8859H40.9724L38.0108 40.1911L41.1756 44.8109H39.7559L37.3088 41.2947L34.907 44.8109H33.4419Z" fill="#F1F3F3"/>
<path fill-rule="evenodd" clip-rule="evenodd" d="M44.9367 44.6385C45.498 44.8757 46.0906 44.9847 46.7302 44.9847C49.5213 44.9847 51.4555 42.6495 51.4555 40.3507C51.4555 39.704 51.3304 39.0558 51.0818 38.4898C50.8316 37.9206 50.4876 37.4336 50.0529 37.0226C49.6151 36.6131 49.1163 36.2984 48.5549 36.0613C47.9936 35.8241 47.3853 35.7134 46.7458 35.7134C46.1063 35.7134 45.498 35.8241 44.9367 36.0613C44.3753 36.2984 43.8765 36.6131 43.4403 37.0226C43.004 37.4336 42.66 37.9206 42.4114 38.4898C42.1612 39.0558 42.0361 39.6708 42.0361 40.3507C42.0361 41.0274 42.1612 41.6424 42.4114 42.2116C42.66 42.7776 43.004 43.2677 43.4403 43.6772C43.8765 44.0867 44.3753 44.4029 44.9367 44.6385ZM50.2546 40.3665C50.2546 40.3712 50.2546 40.376 50.2546 40.3807V40.3507C50.2546 40.3554 50.2546 40.3602 50.2546 40.3665ZM49.9732 39.0558C50.1592 39.4621 50.253 39.8985 50.2546 40.3665C50.253 40.8329 50.1592 41.2677 49.9732 41.674C49.7871 42.0835 49.5385 42.4472 49.2257 42.7476C48.913 43.0464 48.5393 43.2835 48.103 43.4559C47.6652 43.6298 47.1977 43.7246 46.6989 43.7246C46.2001 43.7246 45.7326 43.6456 45.2963 43.4717C44.8601 43.2978 44.4848 43.0622 44.1736 42.7634C43.8609 42.463 43.6123 42.0993 43.4246 41.6914C43.237 41.2803 43.1432 40.8392 43.1432 40.3665C43.1432 39.8922 43.237 39.4511 43.4246 39.0416C43.6123 38.6305 43.8609 38.2684 44.1736 37.9696C44.4848 37.6692 44.8601 37.4336 45.2963 37.2597C45.7326 37.0858 46.2001 37.0067 46.6989 37.0067C47.1977 37.0067 47.6652 37.1016 48.103 37.2755C48.5393 37.4494 48.913 37.685 49.2257 37.9838C49.5385 38.2842 49.7871 38.6463 49.9732 39.0558Z" fill="#F1F3F3"/>
<path fill-rule="evenodd" clip-rule="evenodd" d="M58.9263 40.8535C58.6933 40.4899 58.3962 40.2227 58.0538 40.0488L58.0694 40.033C58.3024 39.8432 58.49 39.6061 58.6308 39.3231C58.7715 39.0401 58.8497 38.6922 58.8497 38.2827C58.8497 37.9049 58.7715 37.5729 58.6308 37.274C58.49 36.9752 58.3024 36.7222 58.0694 36.5167C57.8349 36.3112 57.5393 36.1546 57.1953 36.044C56.8529 35.9333 56.4948 35.8859 56.1039 35.8859H53.5317V44.8109H56.4948C56.8842 44.8109 57.2423 44.7477 57.5863 44.637C57.9287 44.5263 58.2242 44.354 58.4744 44.1326C58.723 43.9113 58.9263 43.6441 59.067 43.3137C59.2077 42.9816 59.2859 42.6038 59.2859 42.1785C59.2859 41.6567 59.1608 41.2156 58.9263 40.8535ZM56.3228 39.6061C56.6809 39.6061 56.9936 39.497 57.2595 39.2756C57.5237 39.0559 57.6644 38.7555 57.6644 38.3776C57.6644 38.0155 57.5393 37.7151 57.2892 37.4796C57.0405 37.2408 56.7278 37.1159 56.3385 37.1159H54.6857V39.6393L56.3228 39.6061ZM56.6809 43.5651C56.8685 43.5651 57.0562 43.5334 57.2266 43.4702C57.3986 43.4069 57.555 43.3137 57.6785 43.1872C57.8036 43.0607 57.913 42.9184 57.9912 42.7445C58.0694 42.5706 58.1163 42.3824 58.1163 42.1785C58.1163 41.8306 57.9912 41.5144 57.727 41.2472C57.4612 40.9784 57.1344 40.8377 56.7278 40.8377H54.6701V43.5492L56.6809 43.5651Z" fill="#F1F3F3"/>
<path fill-rule="evenodd" clip-rule="evenodd" d="M61.7366 44.8109L62.5778 42.7303H66.9607L67.7878 44.8109H69.034L65.4017 35.8859H64.1227L60.4888 44.8109H61.7366ZM64.7622 37.3831L66.4462 41.4986H63.0766L64.7622 37.3831Z" fill="#F1F3F3"/>
<path d="M71.9218 35.8859V39.5919H77.1772V35.8859H78.3296V44.8109H77.1772V40.8203H71.9218V44.8109H70.7678V35.8859H71.9218Z" fill="#F1F3F3"/>
<path d="M87.6113 44.8109V37.731L82.4028 44.8109H81.1082V35.8859H82.2621V42.9816L87.5019 35.8859H88.7653V44.8109H87.6113Z" fill="#F1F3F3"/>
<path d="M96.5176 35.8859V37.1159H92.6977V39.5919H96.1283V40.8203H92.6977V43.5809H96.5176V44.8109H91.5437V35.8859H96.5176Z" fill="#F1F3F3"/>
<path d="M149.68 26.9618H153.722V22.8732H149.68V26.9618Z" fill="#F1F3F3"/>
<path d="M160.839 21.0186L149.678 6.10352e-05H172.001L160.839 21.0186Z" fill="#F1F3F3"/>
</g>
<defs>
<clipPath id="clip0_1_1644">
<rect width="172" height="45" fill="white"/>
</clipPath>
</defs>
</svg>
