<svg width="219" height="45" viewBox="0 0 219 45" fill="none" xmlns="http://www.w3.org/2000/svg">
<g clip-path="url(#clip0_166_492)">
<path d="M20.3447 11.8568C18.4441 11.8568 17.0331 12.6867 15.9086 14.4659C14.7105 16.3606 14.1035 19.0115 14.1035 22.349C14.1035 25.9891 14.6767 28.7773 15.8091 30.6382C16.8878 32.4154 18.3526 33.2752 20.291 33.2752C21.9548 33.2752 23.4315 32.4094 24.5619 30.7695C25.6724 29.1595 26.5879 26.3652 27.5233 21.742C26.777 18.3249 25.7381 15.664 24.5062 14.054C23.3579 12.5534 22.0364 11.8568 20.3447 11.8568Z" fill="#66747A"/>
<path fill-rule="evenodd" clip-rule="evenodd" d="M13.5213 0.00012207H31.9205C39.3718 0.00012207 45.4378 6.00649 45.4378 13.3881V31.6122C45.4378 38.9918 39.3718 45.0001 31.9205 45.0001H13.5213C6.06408 45.0001 0 38.9918 0 31.6122V13.3881C0 6.00649 6.06408 0.00012207 13.5213 0.00012207ZM39.3359 34.4104C39.9987 33.2541 40.2693 31.8211 40.2693 29.4608V28.0298H37.0632L37.0472 28.2309C36.9836 29.011 36.488 29.8011 35.668 29.8011C35.0411 29.8011 34.5376 29.5722 34.1257 29.0986C33.6321 28.5353 33.1863 27.8587 32.7365 26.6327C34.0102 22.3499 37.9428 8.63154 37.9428 8.63154H30.4836C30.4836 8.63154 29.793 11.8477 29.1721 14.7752C29.1402 14.7036 29.1084 14.6319 29.0766 14.5643C28.4556 13.2508 27.4625 11.788 26.358 10.759C24.4374 8.96987 22.1766 8.09817 19.4481 8.09817C15.6826 8.09817 12.4964 9.47737 9.97877 12.1999C7.47114 14.9046 6.14966 18.3775 6.14966 22.2364C6.14966 26.5372 7.40547 30.0678 9.88523 32.7287C12.4705 35.5089 15.5612 36.8046 19.6113 36.8046C21.9696 36.8046 24.2225 36.11 26.3102 34.7427C27.6595 33.8611 28.8915 32.6391 30.0537 31.0509C30.5413 32.6172 31.0349 33.6879 31.624 34.49C32.5753 35.7816 34.0023 36.5239 35.5367 36.5239C37.1328 36.5239 38.5896 35.7139 39.3359 34.4104Z" fill="#66747A"/>
<path fill-rule="evenodd" clip-rule="evenodd" d="M62.9918 5.37634C66.2059 5.37634 67.6707 6.98242 68.1861 9.28108L70.5206 19.6917H68.0249C67.4577 19.6917 66.8925 19.2419 66.7691 18.6907L66.2974 16.5731H59.6861L59.2144 18.6907C59.093 19.2419 58.5278 19.6917 57.9586 19.6917H55.4629L57.7974 9.28108C58.3128 6.98242 59.9707 5.37634 62.9918 5.37634ZM61.1608 9.95376L60.3388 13.6396H65.6447L64.8227 9.95376C64.6894 9.35671 64.2217 8.44719 62.9918 8.44719C61.7638 8.44719 61.2941 9.35671 61.1608 9.95376Z" fill="#66747A"/>
<path d="M76.6701 8.85653H82.2346V19.6951H85.6796V5.71802H75.2909C74.1545 5.71802 73.2231 6.63748 73.2231 7.76392V14.8271C73.2231 15.7724 72.7852 16.3735 72.021 16.5247L71.3125 16.6919L71.9533 19.6951H72.6081C74.9665 19.6951 76.6701 17.9576 76.6701 15.0022V8.85653Z" fill="#66747A"/>
<path fill-rule="evenodd" clip-rule="evenodd" d="M114.363 5.71212H115.617C119.876 5.71212 122.537 8.58595 122.537 12.6997C122.537 16.8134 119.876 19.6892 115.617 19.6892H114.363V20.3619C114.363 20.9211 113.899 21.3828 113.328 21.3828H110.918V19.6892H109.662C105.405 19.6892 102.742 16.8134 102.742 12.6997C102.742 8.58595 105.405 5.71212 109.662 5.71212H110.918V5.1091C110.918 4.54588 111.382 4.08813 111.951 4.08813H114.363V5.71212ZM109.662 16.6024C107.304 16.6024 106.189 15.1237 106.189 12.6997C106.189 10.2776 107.304 8.79889 109.662 8.79889H110.918V16.6024H109.662ZM115.617 16.6024H114.363V8.79889H115.617C117.977 8.79889 119.09 10.2776 119.09 12.6997C119.09 15.1237 117.977 16.6024 115.617 16.6024Z" fill="#66747A"/>
<path fill-rule="evenodd" clip-rule="evenodd" d="M91.4255 9.26054H96.3691C99.7365 9.26054 101.633 11.5035 101.633 14.4788C101.633 17.4541 99.3723 19.6951 96.3691 19.6951H89.0134C88.4462 19.6951 87.9785 19.2333 87.9785 18.6721V5.71802H91.4255V9.26054ZM91.4255 16.5565H96.3691C97.209 16.5565 98.1901 15.8102 98.1901 14.4788C98.1901 13.1454 97.209 12.401 96.3691 12.401H91.4255V16.5565Z" fill="#66747A"/>
<path fill-rule="evenodd" clip-rule="evenodd" d="M130.191 5.37634C133.405 5.37634 134.87 6.98242 135.385 9.28108L137.718 19.6917H135.224C134.657 19.6917 134.09 19.2419 133.968 18.6907L133.497 16.5731H126.885L126.414 18.6907C126.294 19.2419 125.727 19.6917 125.158 19.6917H122.662L124.997 9.28108C125.512 6.98242 127.17 5.37634 130.191 5.37634ZM128.36 9.95376L127.54 13.6396H132.844L132.022 9.95376C131.889 9.35671 131.421 8.44719 130.191 8.44719C128.963 8.44719 128.495 9.35671 128.36 9.95376Z" fill="#66747A"/>
<path fill-rule="evenodd" clip-rule="evenodd" d="M156.356 29.5377C156.356 30.6562 155.966 31.4642 155.357 32.0573C156.241 32.7379 156.838 33.7131 156.838 34.9609C156.838 37.4387 155.087 39.3075 152.448 39.3075L143.494 39.3055C142.925 39.3055 142.459 38.8458 142.459 38.2845V26.3514C142.459 25.7882 142.925 25.3304 143.494 25.3304H151.916C154.418 25.3304 156.356 27.0619 156.356 29.5377ZM151.912 28.2301C152.37 28.2301 152.997 28.7396 152.997 29.6073C152.997 30.483 152.37 30.9308 151.912 30.9865H145.836V28.2301H151.912ZM152.189 36.4078H145.836V33.6514H152.189C152.647 33.7071 153.272 34.1529 153.272 35.0286C153.272 35.8963 152.647 36.4078 152.189 36.4078Z" fill="#66747A"/>
<path fill-rule="evenodd" clip-rule="evenodd" d="M125.365 32.3118C125.365 28.005 128.341 25.0018 132.602 25.0018H133.78C138.041 25.0018 141.016 28.005 141.016 32.3118C141.016 36.6165 138.041 39.6217 133.78 39.6217H132.602C128.341 39.6217 125.365 36.6165 125.365 32.3118ZM132.809 27.8876C130.434 27.8876 129.085 29.8061 129.085 32.3118C129.085 34.8174 130.434 36.7359 132.809 36.7359H133.573C135.945 36.7359 137.294 34.8174 137.294 32.3118C137.294 29.8061 135.945 27.8876 133.573 27.8876H132.809Z" fill="#66747A"/>
<path d="M68.3066 25.3304L68.7604 27.444C68.8798 28.0072 69.445 28.467 70.0142 28.467H73.2244V39.3055H76.6714V28.467H79.782C80.3492 28.467 80.9125 28.0072 81.0339 27.444L81.4876 25.3304H68.3066Z" fill="#66747A"/>
<path d="M184.357 25.3304V30.8791H177.654V25.3304H174.207V39.3055H177.654V33.8763H184.357V39.3055H187.802V25.3304H184.357Z" fill="#66747A"/>
<path fill-rule="evenodd" clip-rule="evenodd" d="M103.208 24.9888C106.425 24.9888 107.885 26.5948 108.403 28.8955L110.737 39.3041H108.244C107.674 39.3041 107.107 38.8544 106.986 38.3051L106.514 36.1855H99.9068L99.4351 38.3051C99.3117 38.8544 98.7485 39.3041 98.1773 39.3041H95.6836L98.0181 28.8955C98.5315 26.5948 100.189 24.9888 103.208 24.9888ZM101.379 29.5642L100.558 33.252H105.861L105.041 29.5682C104.906 28.9691 104.438 28.0576 103.208 28.0576C101.979 28.0576 101.513 28.9691 101.379 29.5642Z" fill="#66747A"/>
<path fill-rule="evenodd" clip-rule="evenodd" d="M165.158 24.9888C168.372 24.9888 169.835 26.5948 170.352 28.8955L172.689 39.3041H170.191C169.624 39.3041 169.059 38.8544 168.935 38.3051L168.463 36.1855H161.854L161.38 38.3051C161.261 38.8544 160.694 39.3041 160.127 39.3041H157.629L159.963 28.8955C160.481 26.5948 162.135 24.9888 165.158 24.9888ZM163.327 29.5642L162.505 33.252H167.809L166.989 29.5682C166.855 28.9691 166.386 28.0576 165.158 28.0576C163.928 28.0576 163.462 28.9691 163.327 29.5642Z" fill="#66747A"/>
<path d="M69.3773 39.2631V39.3029H62.6465C58.5706 39.3029 55.7246 36.4291 55.7246 32.3134C55.7246 28.1977 58.5706 25.3239 62.6465 25.3239H67.7513L67.2517 27.4673C67.1244 28.0166 66.5552 28.4624 65.986 28.4624H62.6465C60.4672 28.4624 59.1696 30.0724 59.1696 32.3134C59.1696 34.5543 60.4672 36.1644 62.6465 36.1644H67.6219C68.1891 36.1644 68.7583 36.6122 68.8877 37.1615L69.3773 39.2631Z" fill="#66747A"/>
<path fill-rule="evenodd" clip-rule="evenodd" d="M83.3649 25.3258L90.7206 25.3239C93.7238 25.3239 95.9867 27.5688 95.9867 30.5421C95.9867 33.5154 94.09 35.7564 90.7206 35.7564H85.777V39.3029H82.332V26.3488C82.332 25.7876 82.7957 25.3258 83.3649 25.3258ZM85.777 32.6199H90.7206C91.5605 32.6199 92.5437 31.8735 92.5437 30.5421C92.5437 29.2087 91.5605 28.4663 90.7206 28.4663H85.777V32.6199Z" fill="#66747A"/>
<path d="M217.011 36.3561H209.59V33.6713H217.658V30.9766H209.59V28.2799H217.011C217.622 28.2799 218.106 28.0132 218.275 27.2828L218.734 25.3304H207.177C206.61 25.3304 206.145 25.7882 206.145 26.3534V38.2825C206.145 38.8458 206.61 39.3075 207.177 39.3075H218.734L218.275 37.3551C218.106 36.6227 217.622 36.3561 217.011 36.3561Z" fill="#66747A"/>
<path d="M190.164 39.3055V25.3304H193.611V34.551L199.58 26.1524C199.918 25.7006 200.654 25.3304 201.227 25.3304H203.781V39.3055H200.336V30.085L194.363 38.4816C194.029 38.9353 193.289 39.3055 192.719 39.3055H190.164Z" fill="#66747A"/>
<path d="M121.129 32.2443L125.937 25.3304H122.773C122.088 25.3304 121.609 25.5354 121.185 26.1922L118.623 30.1765H118.163L115.6 26.1922C115.18 25.5354 114.701 25.3304 114.012 25.3304H110.746L115.658 32.3916L110.85 39.3055H114.012C114.701 39.3055 115.18 39.1025 115.6 38.4438L118.163 34.4594H118.623L121.185 38.4438C121.609 39.1025 122.088 39.3055 122.773 39.3055H126.039L121.129 32.2443Z" fill="#66747A"/>
</g>
<defs>
<clipPath id="clip0_166_492">
<rect width="218.733" height="45" fill="white"/>
</clipPath>
</defs>
</svg>
