<svg width="20" height="20" viewBox="0 0 20 20" fill="none" xmlns="http://www.w3.org/2000/svg">
<g clip-path="url(#clip0_166_856)">
<path d="M19.5664 9.10282C19.7589 8.91658 19.895 8.6799 19.9592 8.41989C20.0233 8.15988 20.013 7.88705 19.9293 7.63266C19.8475 7.37753 19.6954 7.15061 19.4906 6.97792C19.2857 6.80524 19.0364 6.69376 18.7711 6.65629L13.9285 5.95264C13.8269 5.93788 13.7304 5.89864 13.6474 5.83828C13.5644 5.77793 13.4973 5.69829 13.4519 5.60623L11.2869 1.21856C11.1692 0.977938 10.9861 0.775332 10.7586 0.633955C10.5311 0.492579 10.2684 0.418152 10.0005 0.4192C9.73276 0.418227 9.47012 0.49269 9.24269 0.634062C9.01526 0.775434 8.83225 0.977999 8.7146 1.21856L6.5492 5.60663C6.45709 5.79365 6.27848 5.92301 6.07223 5.95304L1.22962 6.65669C0.964332 6.69416 0.714971 6.80564 0.510125 6.97833C0.305279 7.15101 0.153238 7.37793 0.0714312 7.63306C-0.0122765 7.88745 -0.0226385 8.16028 0.0415321 8.42029C0.105703 8.6803 0.241811 8.91698 0.434267 9.10322L3.93807 12.5185C4.08745 12.6643 4.15593 12.8741 4.12069 13.0792L3.2941 17.9018C3.2567 18.1067 3.26537 18.3174 3.31946 18.5185C3.37356 18.7197 3.47174 18.9063 3.60687 19.0648C4.03379 19.5722 4.77908 19.7268 5.375 19.4136L9.70579 17.1365C9.79706 17.0899 9.89807 17.0656 10.0005 17.0656C10.103 17.0656 10.204 17.0899 10.2953 17.1365L14.6265 19.4136C14.8318 19.5231 15.061 19.5805 15.2937 19.5806C15.717 19.5806 16.1183 19.3924 16.3942 19.0648C16.5294 18.9063 16.6276 18.7197 16.6817 18.5185C16.7358 18.3174 16.7444 18.1067 16.707 17.9018L15.88 13.0792C15.8627 12.9779 15.8703 12.874 15.9021 12.7763C15.9339 12.6786 15.989 12.5902 16.0626 12.5185L19.5664 9.10282Z" fill="#FFE75F"/>
</g>
<defs>
<clipPath id="clip0_166_856">
<rect width="20" height="20" fill="white"/>
</clipPath>
</defs>
</svg>
