<svg width="120" height="20" viewBox="0 0 120 20" fill="none" xmlns="http://www.w3.org/2000/svg">
<g clip-path="url(#clip0_166_411)">
<path d="M19.5664 9.10294C19.7589 8.91671 19.895 8.68003 19.9592 8.42001C20.0233 8.16 20.013 7.88717 19.9293 7.63278C19.8475 7.37765 19.6954 7.15073 19.4906 6.97805C19.2857 6.80536 19.0364 6.69389 18.7711 6.65641L13.9285 5.95276C13.8269 5.938 13.7304 5.89876 13.6474 5.83841C13.5644 5.77806 13.4973 5.69841 13.4519 5.60635L11.2869 1.21868C11.1692 0.97806 10.9861 0.775454 10.7586 0.634077C10.5311 0.492701 10.2684 0.418274 10.0005 0.419322C9.73276 0.418349 9.47012 0.492812 9.24269 0.634184C9.01526 0.775556 8.83225 0.978121 8.7146 1.21868L6.5492 5.60675C6.45709 5.79377 6.27848 5.92313 6.07223 5.95316L1.22962 6.65681C0.964332 6.69429 0.714971 6.80576 0.510125 6.97845C0.305279 7.15114 0.153238 7.37805 0.0714312 7.63318C-0.0122765 7.88757 -0.0226385 8.1604 0.0415321 8.42041C0.105703 8.68043 0.241811 8.91711 0.434267 9.10334L3.93807 12.5186C4.08745 12.6644 4.15593 12.8743 4.12069 13.0793L3.2941 17.9019C3.2567 18.1068 3.26537 18.3175 3.31946 18.5186C3.37356 18.7198 3.47174 18.9064 3.60687 19.0649C4.03379 19.5723 4.77908 19.7269 5.375 19.4137L9.70579 17.1366C9.79706 17.09 9.89807 17.0657 10.0005 17.0657C10.103 17.0657 10.204 17.09 10.2953 17.1366L14.6265 19.4137C14.8318 19.5232 15.061 19.5806 15.2937 19.5807C15.717 19.5807 16.1183 19.3925 16.3942 19.0649C16.5294 18.9064 16.6276 18.7198 16.6817 18.5186C16.7358 18.3175 16.7444 18.1068 16.707 17.9019L15.88 13.0793C15.8627 12.9781 15.8703 12.8741 15.9021 12.7764C15.9339 12.6788 15.989 12.5903 16.0626 12.5186L19.5664 9.10294Z" fill="#F9C82B"/>
</g>
<g clip-path="url(#clip1_166_411)">
<path d="M44.5664 9.10294C44.7589 8.91671 44.895 8.68003 44.9592 8.42001C45.0233 8.16 45.013 7.88717 44.9293 7.63278C44.8475 7.37765 44.6954 7.15073 44.4906 6.97805C44.2857 6.80536 44.0364 6.69389 43.7711 6.65641L38.9285 5.95276C38.8269 5.938 38.7304 5.89876 38.6474 5.83841C38.5644 5.77806 38.4973 5.69841 38.4519 5.60635L36.2869 1.21868C36.1692 0.97806 35.9861 0.775454 35.7586 0.634077C35.5311 0.492701 35.2684 0.418274 35.0005 0.419322C34.7328 0.418349 34.4701 0.492812 34.2427 0.634184C34.0153 0.775556 33.8322 0.978121 33.7146 1.21868L31.5492 5.60675C31.4571 5.79377 31.2785 5.92313 31.0722 5.95316L26.2296 6.65681C25.9643 6.69429 25.715 6.80576 25.5101 6.97845C25.3053 7.15114 25.1532 7.37805 25.0714 7.63318C24.9877 7.88757 24.9774 8.1604 25.0415 8.42041C25.1057 8.68043 25.2418 8.91711 25.4343 9.10334L28.9381 12.5186C29.0875 12.6644 29.1559 12.8743 29.1207 13.0793L28.2941 17.9019C28.2567 18.1068 28.2654 18.3175 28.3195 18.5186C28.3736 18.7198 28.4717 18.9064 28.6069 19.0649C29.0338 19.5723 29.7791 19.7269 30.375 19.4137L34.7058 17.1366C34.7971 17.09 34.8981 17.0657 35.0005 17.0657C35.103 17.0657 35.204 17.09 35.2953 17.1366L39.6265 19.4137C39.8318 19.5232 40.061 19.5806 40.2937 19.5807C40.717 19.5807 41.1183 19.3925 41.3942 19.0649C41.5294 18.9064 41.6276 18.7198 41.6817 18.5186C41.7358 18.3175 41.7444 18.1068 41.707 17.9019L40.88 13.0793C40.8627 12.9781 40.8703 12.8741 40.9021 12.7764C40.9339 12.6788 40.989 12.5903 41.0626 12.5186L44.5664 9.10294Z" fill="#F9C82B"/>
</g>
<g clip-path="url(#clip2_166_411)">
<path d="M69.5664 9.10294C69.7589 8.91671 69.895 8.68003 69.9592 8.42001C70.0233 8.16 70.013 7.88717 69.9293 7.63278C69.8475 7.37765 69.6954 7.15073 69.4906 6.97805C69.2857 6.80536 69.0364 6.69389 68.7711 6.65641L63.9285 5.95276C63.8269 5.938 63.7304 5.89876 63.6474 5.83841C63.5644 5.77806 63.4973 5.69841 63.4519 5.60635L61.2869 1.21868C61.1692 0.97806 60.9861 0.775454 60.7586 0.634077C60.5311 0.492701 60.2684 0.418274 60.0005 0.419322C59.7328 0.418349 59.4701 0.492812 59.2427 0.634184C59.0153 0.775556 58.8322 0.978121 58.7146 1.21868L56.5492 5.60675C56.4571 5.79377 56.2785 5.92313 56.0722 5.95316L51.2296 6.65681C50.9643 6.69429 50.715 6.80576 50.5101 6.97845C50.3053 7.15114 50.1532 7.37805 50.0714 7.63318C49.9877 7.88757 49.9774 8.1604 50.0415 8.42041C50.1057 8.68043 50.2418 8.91711 50.4343 9.10334L53.9381 12.5186C54.0875 12.6644 54.1559 12.8743 54.1207 13.0793L53.2941 17.9019C53.2567 18.1068 53.2654 18.3175 53.3195 18.5186C53.3736 18.7198 53.4717 18.9064 53.6069 19.0649C54.0338 19.5723 54.7791 19.7269 55.375 19.4137L59.7058 17.1366C59.7971 17.09 59.8981 17.0657 60.0005 17.0657C60.103 17.0657 60.204 17.09 60.2953 17.1366L64.6265 19.4137C64.8318 19.5232 65.061 19.5806 65.2937 19.5807C65.717 19.5807 66.1183 19.3925 66.3942 19.0649C66.5294 18.9064 66.6276 18.7198 66.6817 18.5186C66.7358 18.3175 66.7444 18.1068 66.707 17.9019L65.88 13.0793C65.8627 12.9781 65.8703 12.8741 65.9021 12.7764C65.9339 12.6788 65.989 12.5903 66.0626 12.5186L69.5664 9.10294Z" fill="#F9C82B"/>
</g>
<g clip-path="url(#clip3_166_411)">
<path d="M94.5664 9.10294C94.7589 8.91671 94.895 8.68003 94.9592 8.42001C95.0233 8.16 95.013 7.88717 94.9293 7.63278C94.8475 7.37765 94.6954 7.15073 94.4906 6.97805C94.2857 6.80536 94.0364 6.69389 93.7711 6.65641L88.9285 5.95276C88.8269 5.938 88.7304 5.89876 88.6474 5.83841C88.5644 5.77806 88.4973 5.69841 88.4519 5.60635L86.2869 1.21868C86.1692 0.97806 85.9861 0.775454 85.7586 0.634077C85.5311 0.492701 85.2684 0.418274 85.0005 0.419322C84.7328 0.418349 84.4701 0.492812 84.2427 0.634184C84.0153 0.775556 83.8322 0.978121 83.7146 1.21868L81.5492 5.60675C81.4571 5.79377 81.2785 5.92313 81.0722 5.95316L76.2296 6.65681C75.9643 6.69429 75.715 6.80576 75.5101 6.97845C75.3053 7.15114 75.1532 7.37805 75.0714 7.63318C74.9877 7.88757 74.9774 8.1604 75.0415 8.42041C75.1057 8.68043 75.2418 8.91711 75.4343 9.10334L78.9381 12.5186C79.0875 12.6644 79.1559 12.8743 79.1207 13.0793L78.2941 17.9019C78.2567 18.1068 78.2654 18.3175 78.3195 18.5186C78.3736 18.7198 78.4717 18.9064 78.6069 19.0649C79.0338 19.5723 79.7791 19.7269 80.375 19.4137L84.7058 17.1366C84.7971 17.09 84.8981 17.0657 85.0005 17.0657C85.103 17.0657 85.204 17.09 85.2953 17.1366L89.6265 19.4137C89.8318 19.5232 90.061 19.5806 90.2937 19.5807C90.717 19.5807 91.1183 19.3925 91.3942 19.0649C91.5294 18.9064 91.6276 18.7198 91.6817 18.5186C91.7358 18.3175 91.7444 18.1068 91.707 17.9019L90.88 13.0793C90.8627 12.9781 90.8703 12.8741 90.9021 12.7764C90.9339 12.6788 90.989 12.5903 91.0626 12.5186L94.5664 9.10294Z" fill="#F9C82B"/>
</g>
<g clip-path="url(#clip4_166_411)">
<path d="M119.566 9.10294C119.759 8.91671 119.895 8.68003 119.959 8.42001C120.023 8.16 120.013 7.88717 119.929 7.63278C119.847 7.37765 119.695 7.15073 119.491 6.97805C119.286 6.80536 119.036 6.69389 118.771 6.65641L113.928 5.95276C113.827 5.938 113.73 5.89876 113.647 5.83841C113.564 5.77806 113.497 5.69841 113.452 5.60635L111.287 1.21868C111.169 0.97806 110.986 0.775454 110.759 0.634077C110.531 0.492701 110.268 0.418274 110.001 0.419322C109.733 0.418349 109.47 0.492812 109.243 0.634184C109.015 0.775556 108.832 0.978121 108.715 1.21868L106.549 5.60675C106.457 5.79377 106.278 5.92313 106.072 5.95316L101.23 6.65681C100.964 6.69429 100.715 6.80576 100.51 6.97845C100.305 7.15114 100.153 7.37805 100.071 7.63318C99.9877 7.88757 99.9774 8.1604 100.042 8.42041C100.106 8.68043 100.242 8.91711 100.434 9.10334L103.938 12.5186C104.087 12.6644 104.156 12.8743 104.121 13.0793L103.294 17.9019C103.257 18.1068 103.265 18.3175 103.319 18.5186C103.374 18.7198 103.472 18.9064 103.607 19.0649C104.034 19.5723 104.779 19.7269 105.375 19.4137L109.706 17.1366C109.797 17.09 109.898 17.0657 110.001 17.0657C110.103 17.0657 110.204 17.09 110.295 17.1366L114.626 19.4137C114.832 19.5232 115.061 19.5806 115.294 19.5807C115.717 19.5807 116.118 19.3925 116.394 19.0649C116.529 18.9064 116.628 18.7198 116.682 18.5186C116.736 18.3175 116.744 18.1068 116.707 17.9019L115.88 13.0793C115.863 12.9781 115.87 12.8741 115.902 12.7764C115.934 12.6788 115.989 12.5903 116.063 12.5186L119.566 9.10294Z" fill="#FFE75F" fill-opacity="0.35"/>
<mask id="mask0_166_411" style="mask-type:alpha" maskUnits="userSpaceOnUse" x="100" y="0" width="20" height="20">
<path d="M119.566 9.10294C119.759 8.91671 119.895 8.68003 119.959 8.42001C120.023 8.16 120.013 7.88717 119.929 7.63278C119.847 7.37765 119.695 7.15073 119.491 6.97805C119.286 6.80536 119.036 6.69389 118.771 6.65641L113.928 5.95276C113.827 5.938 113.73 5.89876 113.647 5.83841C113.564 5.77806 113.497 5.69841 113.452 5.60635L111.287 1.21868C111.169 0.97806 110.986 0.775454 110.759 0.634077C110.531 0.492701 110.268 0.418274 110.001 0.419322C109.733 0.418349 109.47 0.492812 109.243 0.634184C109.015 0.775556 108.832 0.978121 108.715 1.21868L106.549 5.60675C106.457 5.79377 106.278 5.92313 106.072 5.95316L101.23 6.65681C100.964 6.69429 100.715 6.80576 100.51 6.97845C100.305 7.15114 100.153 7.37805 100.071 7.63318C99.9877 7.88757 99.9774 8.1604 100.042 8.42041C100.106 8.68043 100.242 8.91711 100.434 9.10334L103.938 12.5186C104.087 12.6644 104.156 12.8743 104.121 13.0793L103.294 17.9019C103.257 18.1068 103.265 18.3175 103.319 18.5186C103.374 18.7198 103.472 18.9064 103.607 19.0649C104.034 19.5723 104.779 19.7269 105.375 19.4137L109.706 17.1366C109.797 17.09 109.898 17.0657 110.001 17.0657C110.103 17.0657 110.204 17.09 110.295 17.1366L114.626 19.4137C114.832 19.5232 115.061 19.5806 115.294 19.5807C115.717 19.5807 116.118 19.3925 116.394 19.0649C116.529 18.9064 116.628 18.7198 116.682 18.5186C116.736 18.3175 116.744 18.1068 116.707 17.9019L115.88 13.0793C115.863 12.9781 115.87 12.8741 115.902 12.7764C115.934 12.6788 115.989 12.5903 116.063 12.5186L119.566 9.10294Z" fill="#FFE75F"/>
</mask>
<g mask="url(#mask0_166_411)">
<rect x="55" y="-40" width="54" height="100" fill="#F9C82B"/>
</g>
</g>
<defs>
<clipPath id="clip0_166_411">
<rect width="20" height="20" fill="white"/>
</clipPath>
<clipPath id="clip1_166_411">
<rect width="20" height="20" fill="white" transform="translate(25)"/>
</clipPath>
<clipPath id="clip2_166_411">
<rect width="20" height="20" fill="white" transform="translate(50)"/>
</clipPath>
<clipPath id="clip3_166_411">
<rect width="20" height="20" fill="white" transform="translate(75)"/>
</clipPath>
<clipPath id="clip4_166_411">
<rect width="20" height="20" fill="white" transform="translate(100)"/>
</clipPath>
</defs>
</svg>
