<svg width="5" height="7" viewBox="0 0 5 7" fill="none" xmlns="http://www.w3.org/2000/svg">
<path d="M1.53252 5.08001V4.87189C1.53252 4.64485 1.55774 4.44304 1.6082 4.26645C1.65865 4.08987 1.73748 3.9322 1.8447 3.79345C1.95822 3.65471 2.05282 3.55065 2.1285 3.48128C2.21048 3.4056 2.33031 3.30784 2.48798 3.18802C2.61411 3.09342 2.70871 3.01774 2.77178 2.96098C2.84115 2.89791 2.91683 2.81908 2.99882 2.72448C3.08711 2.62357 3.15018 2.51636 3.18802 2.40284C3.22586 2.28932 3.24478 2.16003 3.24478 2.01498C3.24478 1.80686 3.19432 1.62396 3.09342 1.4663C2.99882 1.30232 2.86638 1.17935 2.6961 1.09736C2.53212 1.00907 2.34608 0.964919 2.13796 0.964919C1.82893 0.964919 1.5609 1.05952 1.33386 1.24872C1.11313 1.43161 0.996452 1.67757 0.983839 1.9866H0C0.0126133 1.36854 0.22704 0.882932 0.643279 0.529759C1.06583 0.176586 1.56405 0 2.13796 0C2.73709 0 3.24162 0.182893 3.65156 0.548679C4.06149 0.914465 4.26645 1.40323 4.26645 2.01498C4.26645 2.24202 4.24123 2.44383 4.19077 2.62042C4.14032 2.797 4.06149 2.95782 3.95428 3.10288C3.84706 3.24162 3.75246 3.34884 3.67048 3.42452C3.58849 3.5002 3.47182 3.59795 3.32046 3.71778C3.18802 3.82499 3.09026 3.90697 3.0272 3.96373C2.97044 4.01419 2.89791 4.08987 2.80962 4.19077C2.72763 4.29168 2.66772 4.39889 2.62988 4.51241C2.59834 4.61963 2.58258 4.73945 2.58258 4.87189V5.08001H1.53252ZM1.47576 7.00039V5.78951H2.62988V7.00039H1.47576Z" fill="white"/>
</svg>
