<svg width="135" height="35" viewBox="0 0 135 35" fill="none" xmlns="http://www.w3.org/2000/svg">
<path fill-rule="evenodd" clip-rule="evenodd" d="M4.49421 32.0124C5.22814 32.0122 5.93224 31.7224 6.45264 31.2062C6.97303 30.6901 7.26747 29.9896 7.27166 29.2576V20.9921C7.2845 19.5313 7.87544 18.1348 8.91584 17.1063C9.95624 16.0779 11.3619 15.5009 12.8268 15.5009C14.2917 15.5009 15.6973 16.0779 16.7377 17.1063C17.7781 18.1348 18.369 19.5313 18.3819 20.9921V29.2576C18.3861 29.9896 18.6806 30.6901 19.2009 31.2062C19.7213 31.7224 20.4254 32.0122 21.1594 32.0124C21.8934 32.0122 22.5974 31.7224 23.1178 31.2062C23.6382 30.6901 23.9326 29.9896 23.9368 29.2576V20.9921C23.924 19.0287 23.3889 17.1039 22.386 15.4142C21.3831 13.7246 19.9485 12.3307 18.2286 11.3749C16.5086 10.4191 14.5651 9.93576 12.5966 9.97414C10.628 10.0125 8.70495 10.5713 7.02384 11.5933C6.80178 11.11 6.4454 10.7004 5.99696 10.4129C5.54856 10.1254 5.02684 9.97217 4.49378 9.97136C3.75979 9.97158 3.05573 10.2614 2.53533 10.7776C2.01493 11.2937 1.72049 11.9942 1.71631 12.7261V29.2576C1.72049 29.9896 2.01499 30.6902 2.53548 31.2064C3.05597 31.7225 3.76015 32.0123 4.49421 32.0124ZM12.8266 1.70753C13.3724 1.7104 13.9051 1.87442 14.3576 2.1789C14.81 2.48338 15.1619 2.91468 15.3688 3.41837C15.5757 3.92206 15.6283 4.47555 15.5201 5.00904C15.4118 5.54254 15.1475 6.03211 14.7605 6.416C14.3735 6.79985 13.8812 7.06081 13.3457 7.16598C12.8101 7.27111 12.2554 7.21571 11.7514 7.00673C11.2473 6.7978 10.8167 6.44464 10.5137 5.9919C10.2108 5.53912 10.0491 5.007 10.0491 4.4627C10.0501 4.09995 10.1227 3.74091 10.2627 3.40613C10.4028 3.07133 10.6077 2.76734 10.8656 2.5115C11.1235 2.25565 11.4295 2.05297 11.7659 1.91503C12.1024 1.77709 12.4628 1.70658 12.8266 1.70753Z" fill="white"/>
<path fill-rule="evenodd" clip-rule="evenodd" d="M4.48372 1.70752C5.03022 1.70735 5.56448 1.8688 6.01896 2.17144C6.47343 2.47408 6.82767 2.90432 7.03693 3.40775C7.24619 3.91118 7.30102 4.46518 7.19449 4.9997C7.08799 5.53422 6.82493 6.0252 6.43855 6.41062C6.05217 6.79601 5.5599 7.05851 5.02393 7.16487C4.48795 7.27128 3.93237 7.21673 3.42746 7.00823C2.92256 6.79972 2.491 6.44661 2.18737 5.99348C1.88374 5.5404 1.72168 5.00768 1.72168 4.4627C1.72162 4.10094 1.79302 3.74271 1.9318 3.40847C2.07057 3.07423 2.27401 2.77051 2.53049 2.51467C2.78697 2.25883 3.09147 2.05587 3.42661 1.91738C3.76174 1.77889 4.12096 1.70758 4.48372 1.70752ZM12.7694 32.0124C13.5014 32.0101 14.2028 31.7191 14.7203 31.2029C15.2379 30.6867 15.5295 29.9872 15.5315 29.2572V20.9921C15.5295 20.2621 15.2379 19.5626 14.7203 19.0464C14.2028 18.5302 13.5014 18.2392 12.7694 18.2369C12.0375 18.2392 11.3361 18.5302 10.8186 19.0464C10.3011 19.5626 10.0094 20.2621 10.0074 20.9921V29.2576C10.0095 29.9875 10.3012 30.6869 10.8187 31.203C11.3362 31.7192 12.0375 32.0101 12.7694 32.0124ZM29.3413 32.0124C30.0731 32.01 30.7743 31.719 31.2918 31.2029C31.8092 30.6868 32.1008 29.9874 32.1029 29.2576V20.9921C32.1034 18.07 30.9398 15.2673 28.8681 13.2007C26.7964 11.1341 23.9864 9.97277 21.056 9.97222C22.772 11.2546 24.1646 12.9184 25.1231 14.8313C26.0815 16.7442 26.5795 18.8537 26.5775 20.9921V29.2576C26.5797 29.9878 26.8716 30.6874 27.3895 31.2036C27.9074 31.7198 28.6091 32.0106 29.3413 32.0124Z" fill="white"/>
<path fill-rule="evenodd" clip-rule="evenodd" d="M40.0356 20.7401H42.2339V12.3571H40.0356V20.7401ZM39.807 9.33902C39.8003 9.51962 39.8316 9.69961 39.8988 9.86744C39.966 10.0352 40.0677 10.1872 40.1973 10.3135C40.3268 10.4398 40.4815 10.5376 40.6513 10.6008C40.8211 10.6639 41.0023 10.691 41.1831 10.6801C41.3556 10.6788 41.526 10.6426 41.6839 10.5737C41.8419 10.5048 41.9842 10.4046 42.1021 10.2792C42.22 10.1538 42.3113 10.0058 42.3701 9.84413C42.429 9.68254 42.4543 9.5107 42.4445 9.33902C42.4448 9.17418 42.4124 9.01096 42.349 8.85876C42.2855 8.70651 42.1925 8.56834 42.0752 8.45224C41.9579 8.33615 41.8186 8.24438 41.6655 8.18227C41.5124 8.12021 41.3485 8.08901 41.1831 8.09055C41.0095 8.07745 40.835 8.09985 40.6703 8.15632C40.5056 8.21284 40.3542 8.30226 40.2254 8.41912C40.0966 8.53603 39.993 8.67787 39.9211 8.83605C39.8492 8.99423 39.8103 9.16539 39.807 9.33902ZM49.1632 20.7401H51.3611V15.0205C51.6034 14.7683 51.894 14.5673 52.2159 14.4297C52.5378 14.2922 52.8845 14.2208 53.2346 14.2198C54.4575 14.2198 55.165 14.8532 55.165 16.1948V20.7401H57.3629V15.8221C57.3629 13.1954 55.9294 12.2077 53.827 12.2077C52.9067 12.2007 52.0207 12.5556 51.3611 13.1954V12.3571H49.1632V20.7401ZM64.0816 20.7401H66.2795V12.3571H64.0816V20.7401ZM63.8518 9.33902C63.8449 9.51962 63.8762 9.69961 63.9434 9.86744C64.0106 10.0352 64.1124 10.1872 64.2421 10.3135C64.3718 10.4398 64.5263 10.5376 64.6963 10.6008C64.8658 10.6639 65.0472 10.691 65.2279 10.6801C65.4004 10.6788 65.5707 10.6426 65.7287 10.5737C65.8866 10.5048 66.0287 10.4046 66.1468 10.2792C66.265 10.1538 66.3561 10.0058 66.4148 9.84413C66.4738 9.68254 66.4991 9.5107 66.4893 9.33902C66.4897 9.17418 66.4572 9.01096 66.3938 8.85876C66.3305 8.70651 66.2372 8.56834 66.1199 8.45224C66.0026 8.33615 65.8635 8.24438 65.7102 8.18227C65.557 8.12021 65.3931 8.08901 65.2279 8.09055C65.0541 8.07753 64.8799 8.09994 64.7151 8.15645C64.5503 8.21301 64.3992 8.30243 64.2704 8.41929C64.1415 8.53616 64.0379 8.67799 63.966 8.83613C63.8941 8.99427 63.8552 9.16539 63.8518 9.33902ZM73.208 20.7401H75.4059V15.0205C75.6481 14.7683 75.9388 14.5673 76.2607 14.4297C76.5825 14.2922 76.9292 14.2208 77.2793 14.2198C78.5026 14.2198 79.2097 14.8532 79.2097 16.1948V20.7401H81.4077V15.8221C81.4077 13.1954 79.9742 12.2077 77.8717 12.2077C76.9515 12.2007 76.0655 12.5556 75.4059 13.1954V12.3571H73.208V20.7401Z" fill="white"/>
<path fill-rule="evenodd" clip-rule="evenodd" d="M110.861 20.945H113.059V15.2255C113.301 14.9732 113.592 14.7723 113.914 14.6347C114.235 14.4971 114.582 14.4257 114.932 14.4248C116.155 14.4248 116.863 15.0582 116.863 16.3997V20.945H119.061V16.0271C119.061 13.4004 117.627 12.4127 115.525 12.4127C114.604 12.4057 113.718 12.7606 113.059 13.4004V12.5621H110.861V20.945Z" fill="white"/>
<path fill-rule="evenodd" clip-rule="evenodd" d="M86.8897 19.3413C86.8876 19.5406 86.9257 19.7382 87.0023 19.9223C87.0789 20.1064 87.1919 20.2731 87.3349 20.4123C87.4778 20.5516 87.6473 20.6606 87.8335 20.7326C88.0201 20.8046 88.2192 20.8382 88.4186 20.8314C88.8013 20.8169 89.163 20.6521 89.4241 20.373C89.6856 20.0939 89.826 19.7231 89.814 19.3413C89.8029 18.977 89.6518 18.6309 89.3924 18.3744C89.1326 18.1178 88.7842 17.9705 88.4186 17.9627C88.033 17.944 87.655 18.0786 87.3687 18.337C87.0819 18.5954 86.9099 18.9566 86.8897 19.3413Z" fill="white"/>
<path fill-rule="evenodd" clip-rule="evenodd" d="M131.905 18.226C131.2 18.7347 130.349 19.0025 129.478 18.9896C128.121 18.9896 127.088 18.3007 126.898 17.0334H133.11C133.214 16.6576 133.258 16.268 133.243 15.8784C133.243 13.5308 131.389 11.9849 129.172 11.9849C126.343 11.9849 124.623 13.941 124.623 16.3812C124.623 19.0275 126.477 20.7775 129.249 20.7775C130.431 20.8111 131.59 20.4434 132.536 19.7348L131.905 18.226ZM129.077 13.7733C130.338 13.7733 131.064 14.5744 131.046 15.5993H126.822C126.892 15.0648 127.165 14.5774 127.584 14.2377C128.004 13.8979 128.538 13.7317 129.077 13.7733Z" fill="white"/>
<path d="M99.9591 21.3245C98.6806 21.3245 97.6139 20.9102 96.7592 20.0816C95.9121 19.245 95.4888 18.2052 95.4888 16.9623C95.4888 15.7194 95.9121 14.6836 96.7592 13.855C97.6139 13.0184 98.6806 12.6001 99.9591 12.6001C100.798 12.6001 101.557 12.7913 102.236 13.1738C102.923 13.5482 103.459 14.0701 103.842 14.7394C104.226 15.4007 104.417 16.1416 104.417 16.9623C104.417 18.2132 103.994 19.253 103.147 20.0816C102.3 20.9102 101.238 21.3245 99.9591 21.3245ZM99.9591 19.6155C100.454 19.6155 100.902 19.5039 101.301 19.2808C101.701 19.0498 102.012 18.7311 102.236 18.3247C102.468 17.9184 102.584 17.4642 102.584 16.9623C102.584 16.2054 102.332 15.576 101.829 15.074C101.333 14.5641 100.71 14.3091 99.9591 14.3091C99.216 14.3091 98.589 14.5641 98.0775 15.074C97.5741 15.576 97.3224 16.2054 97.3224 16.9623C97.3224 17.7192 97.5741 18.3526 98.0775 18.8625C98.589 19.3645 99.216 19.6155 99.9591 19.6155Z" fill="white"/>
<path d="M42.0823 26.5742C42.5964 26.5742 43.025 26.74 43.3674 27.0714C43.7154 27.4028 43.8896 27.8171 43.8896 28.3143C43.8896 28.8115 43.7154 29.2258 43.3674 29.5572C43.025 29.8887 42.5964 30.0544 42.0823 30.0544H40.8047V32.012H40.127V26.5742H42.0823ZM42.0433 29.3941C42.3757 29.3941 42.6483 29.2931 42.8611 29.0911C43.0794 28.884 43.1885 28.625 43.1885 28.3143C43.1885 28.0036 43.0794 27.7472 42.8611 27.5453C42.6483 27.3381 42.3757 27.2345 42.0433 27.2345H40.8047V29.3941H42.0433ZM48.3415 27.8171H48.8714V32.012H48.318L48.2482 31.375C48.0505 31.6081 47.8091 31.7893 47.5236 31.9188C47.2432 32.0431 46.9342 32.1052 46.5965 32.1052C45.9784 32.1052 45.4618 31.8981 45.0462 31.4838C44.631 31.0643 44.423 30.5412 44.423 29.9146C44.423 29.288 44.631 28.7675 45.0462 28.3532C45.4618 27.9337 45.9784 27.7239 46.5965 27.7239C46.9393 27.7239 47.2509 27.7887 47.5313 27.9181C47.8168 28.0476 48.0586 28.2289 48.2559 28.4619L48.3415 27.8171ZM45.5371 31.0255C45.8333 31.3206 46.2044 31.4682 46.6513 31.4682C47.0977 31.4682 47.4662 31.3206 47.7573 31.0255C48.0479 30.7303 48.1934 30.36 48.1934 29.9146C48.1934 29.4692 48.0479 29.0989 47.7573 28.8037C47.4662 28.5085 47.0977 28.3609 46.6513 28.3609C46.2044 28.3609 45.8333 28.5111 45.5371 28.8115C45.2461 29.1067 45.1009 29.4744 45.1009 29.9146C45.1009 30.3548 45.2461 30.7251 45.5371 31.0255ZM52.3941 29.7981C52.7784 30.0052 52.9706 30.347 52.9706 30.8235C52.9706 31.0721 52.9004 31.2947 52.76 31.4915C52.6252 31.6832 52.433 31.8334 52.1839 31.9421C51.9395 32.0509 51.6643 32.1052 51.3578 32.1052C50.9114 32.1052 50.5424 31.9913 50.2518 31.7634C49.9663 31.5356 49.805 31.23 49.769 30.8468H50.3687C50.4102 31.0436 50.5193 31.199 50.6957 31.3129C50.8724 31.4216 51.0933 31.476 51.3578 31.476C51.6386 31.476 51.8693 31.4113 52.0512 31.2818C52.2331 31.1523 52.3239 30.9814 52.3239 30.7691C52.3239 30.5723 52.246 30.4092 52.0902 30.2797C51.9395 30.1502 51.7473 30.0855 51.5136 30.0855H50.8904V29.5495H51.5136C51.7319 29.5495 51.9057 29.4951 52.0358 29.3863C52.1706 29.2724 52.2383 29.1274 52.2383 28.9513C52.2383 28.7597 52.1578 28.6043 51.9969 28.4852C51.8359 28.3661 51.6228 28.3066 51.3578 28.3066C51.1241 28.3066 50.9294 28.3583 50.7736 28.4619C50.6178 28.5655 50.5193 28.7053 50.4778 28.8814H49.8777C49.8987 28.6535 49.974 28.4515 50.1037 28.2755C50.239 28.0994 50.4153 27.9647 50.6336 27.8715C50.8566 27.7731 51.1036 27.7239 51.3737 27.7239C51.8047 27.7239 52.1604 27.8353 52.4407 28.058C52.7211 28.2806 52.8615 28.5603 52.8615 28.8969C52.8615 29.3009 52.7057 29.6013 52.3941 29.7981ZM57.0095 27.8171H57.7187L55.7164 32.1829C55.5606 32.5247 55.4074 32.7889 55.2567 32.9753C55.106 33.1617 54.9374 33.2964 54.7504 33.3792C54.5637 33.4673 54.3352 33.5113 54.0651 33.5113H53.6679V32.9131H54.0103C54.2911 32.9131 54.5012 32.8562 54.6416 32.7422C54.7816 32.6283 54.9374 32.3953 55.109 32.0431L55.2567 31.7246L53.3871 27.8171H54.1117L55.6073 30.9944L57.0095 27.8171ZM63.4962 32.012H62.8572L62.2575 28.8969L60.7697 31.9266H60.6216L59.1415 28.8969L58.5418 32.012H57.9028L58.7053 27.8171H59.2583L60.6995 30.7536L62.1329 27.8171H62.6859L63.4962 32.012ZM67.3668 27.8171H68.0136V32.012H67.3668V30.1554H65.1158V32.012H64.4691V27.8171H65.1158V29.5339H67.3668V27.8171ZM71.246 32.1052C70.8304 32.1052 70.4516 32.012 70.1088 31.8256C69.7659 31.634 69.4984 31.3724 69.3062 31.041C69.114 30.7043 69.0182 30.3289 69.0182 29.9146C69.0182 29.2827 69.2283 28.7597 69.6491 28.3454C70.075 27.9311 70.6074 27.7239 71.246 27.7239C71.6668 27.7239 72.046 27.8197 72.3833 28.0114C72.7261 28.1978 72.9937 28.4593 73.1858 28.796C73.3832 29.1274 73.4816 29.5003 73.4816 29.9146C73.4816 30.5412 73.2689 31.0643 72.843 31.4838C72.4171 31.8981 71.8846 32.1052 71.246 32.1052ZM70.1319 31.0332C70.4281 31.3233 70.7996 31.4682 71.246 31.4682C71.698 31.4682 72.0691 31.3233 72.3602 31.0332C72.6559 30.738 72.804 30.3651 72.804 29.9146C72.804 29.464 72.6559 29.0937 72.3602 28.8037C72.0691 28.5085 71.698 28.3609 71.246 28.3609C70.7996 28.3609 70.4281 28.5085 70.1319 28.8037C69.8413 29.0937 69.6957 29.464 69.6957 29.9146C69.6957 30.3651 69.8413 30.738 70.1319 31.0332ZM78.4223 29.9301C78.4223 29.9871 78.4167 30.0673 78.4065 30.1709H74.8153C74.8671 30.5594 75.0281 30.8727 75.2981 31.1109C75.5682 31.344 75.9008 31.4605 76.2954 31.4605C76.5861 31.4605 76.8433 31.3983 77.0667 31.274C77.2953 31.1446 77.4768 30.9633 77.6121 30.7303H78.3055C78.1287 31.1653 77.8637 31.5045 77.5106 31.7479C77.1575 31.9861 76.7526 32.1052 76.2954 32.1052C75.6877 32.1052 75.1787 31.8955 74.7687 31.476C74.3582 31.0565 74.1532 30.536 74.1532 29.9146C74.1532 29.288 74.3582 28.7675 74.7687 28.3532C75.1787 27.9337 75.6877 27.7239 76.2954 27.7239C76.9238 27.7239 77.4353 27.9363 77.8299 28.3609C78.2246 28.7856 78.4223 29.3087 78.4223 29.9301ZM76.2954 28.3532C76.0463 28.3532 75.8178 28.4024 75.6097 28.5008C75.4073 28.5991 75.2387 28.7416 75.1034 28.928C74.9686 29.1093 74.8778 29.319 74.8307 29.5572H77.752C77.7054 29.3138 77.6146 29.1015 77.4794 28.9202C77.3445 28.7338 77.1759 28.594 76.973 28.5008C76.7706 28.4024 76.5446 28.3532 76.2954 28.3532ZM83.3031 32.1052C82.8926 32.1052 82.5189 32.012 82.1812 31.8256C81.8491 31.634 81.5867 31.3699 81.3945 31.0332C81.2075 30.6966 81.1142 30.3237 81.1142 29.9146C81.1142 29.288 81.3218 28.7675 81.7374 28.3532C82.1577 27.9337 82.6799 27.7239 83.3031 27.7239C83.8017 27.7239 84.2328 27.8612 84.5961 28.1356C84.9651 28.4101 85.2142 28.7752 85.3439 29.231H84.6894C84.5649 28.9617 84.3778 28.7493 84.1287 28.594C83.8848 28.4386 83.6095 28.3609 83.3031 28.3609C82.8721 28.3609 82.5112 28.5111 82.2202 28.8115C81.9347 29.1067 81.7917 29.4744 81.7917 29.9146C81.7917 30.2046 81.8568 30.4687 81.9865 30.707C82.1162 30.94 82.2955 31.1264 82.5241 31.2663C82.7578 31.4009 83.0176 31.4682 83.3031 31.4682C83.6095 31.4682 83.8822 31.3906 84.121 31.2352C84.365 31.0747 84.5521 30.8546 84.6818 30.5749H85.3516C85.2219 31.041 84.9702 31.4139 84.5961 31.6935C84.2276 31.968 83.7966 32.1052 83.3031 32.1052ZM89.4825 27.8171V28.4153H87.9168V32.012H87.27V28.4153H85.7043V27.8171H89.4825ZM92.5091 27.7239C93.1378 27.7239 93.6544 27.9311 94.0594 28.3454C94.4698 28.7597 94.6749 29.2827 94.6749 29.9146C94.6749 30.5412 94.4698 31.0643 94.0594 31.4838C93.6544 31.8981 93.1378 32.1052 92.5091 32.1052C91.8756 32.1052 91.3538 31.8877 90.9433 31.4527V33.5113H90.2812V27.8171H90.7332L90.8654 28.4619C91.0628 28.2289 91.3016 28.0476 91.5824 27.9181C91.8679 27.7887 92.1769 27.7239 92.5091 27.7239ZM92.4624 31.4682C92.9093 31.4682 93.2778 31.3206 93.5688 31.0255C93.8595 30.7303 94.005 30.36 94.005 29.9146C94.005 29.4692 93.8595 29.0989 93.5688 28.8037C93.2778 28.5085 92.9093 28.3609 92.4624 28.3609C92.016 28.3609 91.6444 28.5111 91.3487 28.8115C91.0576 29.1067 90.9121 29.4744 90.9121 29.9146C90.9121 30.2046 90.9771 30.4687 91.1068 30.707C91.2421 30.9452 91.4291 31.1316 91.668 31.2663C91.9068 31.4009 92.1718 31.4682 92.4624 31.4682ZM99.2659 27.8171H99.7957V32.012H99.2427L99.1725 31.375C98.9752 31.6081 98.7338 31.7893 98.4479 31.9188C98.1675 32.0431 97.8585 32.1052 97.5212 32.1052C96.9032 32.1052 96.3861 31.8981 95.9709 31.4838C95.5553 31.0643 95.3477 30.5412 95.3477 29.9146C95.3477 29.288 95.5553 28.7675 95.9709 28.3532C96.3861 27.9337 96.9032 27.7239 97.5212 27.7239C97.8636 27.7239 98.1753 27.7887 98.456 27.9181C98.7415 28.0476 98.9829 28.2289 99.1803 28.4619L99.2659 27.8171ZM96.4614 31.0255C96.7576 31.3206 97.1287 31.4682 97.5756 31.4682C98.022 31.4682 98.391 31.3206 98.6816 31.0255C98.9727 30.7303 99.1182 30.36 99.1182 29.9146C99.1182 29.4692 98.9727 29.0989 98.6816 28.8037C98.391 28.5085 98.022 28.3609 97.5756 28.3609C97.1287 28.3609 96.7576 28.5111 96.4614 28.8115C96.1708 29.1067 96.0253 29.4744 96.0253 29.9146C96.0253 30.3548 96.1708 30.7251 96.4614 31.0255ZM104.409 32.012H103.661L102.462 30.2642L101.246 32.012H100.522L102.064 29.8291L100.647 27.8171H101.387L102.462 29.3708L103.56 27.8171H104.284L102.859 29.8058L104.409 32.012ZM106.895 32.1052C106.479 32.1052 106.1 32.012 105.757 31.8256C105.414 31.634 105.147 31.3724 104.955 31.041C104.763 30.7043 104.667 30.3289 104.667 29.9146C104.667 29.2827 104.877 28.7597 105.298 28.3454C105.723 27.9311 106.256 27.7239 106.895 27.7239C107.315 27.7239 107.695 27.8197 108.032 28.0114C108.375 28.1978 108.642 28.4593 108.834 28.796C109.032 29.1274 109.131 29.5003 109.131 29.9146C109.131 30.5412 108.917 31.0643 108.492 31.4838C108.066 31.8981 107.534 32.1052 106.895 32.1052ZM105.781 31.0332C106.077 31.3233 106.448 31.4682 106.895 31.4682C107.347 31.4682 107.718 31.3233 108.009 31.0332C108.305 30.738 108.453 30.3651 108.453 29.9146C108.453 29.464 108.305 29.0937 108.009 28.8037C107.718 28.5085 107.347 28.3609 106.895 28.3609C106.448 28.3609 106.077 28.5085 105.781 28.8037C105.49 29.0937 105.345 29.464 105.345 29.9146C105.345 30.3651 105.49 30.738 105.781 31.0332ZM112.84 29.8369C113.053 29.9146 113.222 30.044 113.346 30.2253C113.476 30.4066 113.541 30.6111 113.541 30.839C113.541 31.1757 113.416 31.4553 113.167 31.678C112.923 31.9007 112.617 32.012 112.248 32.012H110.137V27.8171H112.224C112.572 27.8171 112.856 27.9181 113.074 28.1201C113.292 28.3169 113.401 28.5707 113.401 28.8814C113.401 29.0212 113.377 29.1533 113.331 29.2776C113.284 29.4019 113.219 29.5132 113.136 29.6116C113.053 29.7048 112.954 29.7799 112.84 29.8369ZM112.747 28.9979C112.747 28.827 112.689 28.6924 112.575 28.594C112.461 28.4904 112.313 28.4386 112.131 28.4386H110.783V29.5495H112.131C112.318 29.5495 112.466 29.5003 112.575 29.4019C112.689 29.2983 112.747 29.1637 112.747 28.9979ZM112.17 31.3906C112.3 31.3906 112.417 31.3647 112.521 31.3129C112.63 31.2559 112.713 31.1808 112.77 31.0876C112.827 30.9944 112.856 30.8908 112.856 30.7769C112.856 30.6577 112.827 30.5516 112.77 30.4584C112.713 30.36 112.63 30.2849 112.521 30.2331C112.417 30.1813 112.297 30.1554 112.162 30.1554H110.783V31.3906H112.17ZM118.194 27.8171H118.723V32.012H118.17L118.1 31.375C117.903 31.6081 117.661 31.7893 117.376 31.9188C117.095 32.0431 116.786 32.1052 116.449 32.1052C115.83 32.1052 115.314 31.8981 114.898 31.4838C114.483 31.0643 114.275 30.5412 114.275 29.9146C114.275 29.288 114.483 28.7675 114.898 28.3532C115.314 27.9337 115.83 27.7239 116.449 27.7239C116.791 27.7239 117.103 27.7887 117.383 27.9181C117.669 28.0476 117.91 28.2289 118.108 28.4619L118.194 27.8171ZM115.389 31.0255C115.685 31.3206 116.056 31.4682 116.503 31.4682C116.95 31.4682 117.318 31.3206 117.609 31.0255C117.9 30.7303 118.045 30.36 118.045 29.9146C118.045 29.4692 117.9 29.0989 117.609 28.8037C117.318 28.5085 116.95 28.3609 116.503 28.3609C116.056 28.3609 115.685 28.5111 115.389 28.8115C115.098 29.1067 114.953 29.4744 114.953 29.9146C114.953 30.3548 115.098 30.7251 115.389 31.0255ZM122.955 27.8171H123.601V32.012H122.955V30.1554H120.704V32.012H120.057V27.8171H120.704V29.5339H122.955V27.8171ZM128.033 27.8171H128.4V32.012H127.777V29.0135L125.323 32.012H124.941V27.8171H125.572V30.7924L128.033 27.8171ZM133.675 29.9301C133.675 29.9871 133.67 30.0673 133.66 30.1709H130.068C130.121 30.5594 130.281 30.8727 130.552 31.1109C130.822 31.344 131.154 31.4605 131.548 31.4605C131.839 31.4605 132.097 31.3983 132.32 31.274C132.548 31.1446 132.73 30.9633 132.865 30.7303H133.558C133.382 31.1653 133.117 31.5045 132.764 31.7479C132.411 31.9861 132.006 32.1052 131.548 32.1052C130.941 32.1052 130.432 31.8955 130.022 31.476C129.612 31.0565 129.406 30.536 129.406 29.9146C129.406 29.288 129.612 28.7675 130.022 28.3532C130.432 27.9337 130.941 27.7239 131.548 27.7239C132.177 27.7239 132.689 27.9363 133.083 28.3609C133.478 28.7856 133.675 29.3087 133.675 29.9301ZM131.548 28.3532C131.299 28.3532 131.071 28.4024 130.863 28.5008C130.661 28.5991 130.492 28.7416 130.357 28.928C130.222 29.1093 130.131 29.319 130.084 29.5572H133.005C132.959 29.3138 132.868 29.1015 132.733 28.9202C132.597 28.7338 132.429 28.594 132.226 28.5008C132.024 28.4024 131.798 28.3532 131.548 28.3532Z" fill="white"/>
</svg>
