<svg width="181" height="145" viewBox="0 0 181 145" fill="none" xmlns="http://www.w3.org/2000/svg">
<path d="M69.6921 0V32.7866C57.6121 34.3259 48.6296 38.7898 42.7445 46.1783C37.1691 53.5669 34.3814 62.4947 34.3814 72.9618H73.409V145H0V78.5032C0 55.7219 6.34972 37.5584 19.0492 24.0127C31.7486 10.1592 48.6296 2.15498 69.6921 0ZM177.018 0V32.7866C164.938 34.3259 155.955 38.7898 150.07 46.1783C144.185 53.5669 141.243 62.4947 141.243 72.9618H180.27V145H107.326V78.5032C107.326 55.7219 113.521 37.5584 125.91 24.0127C138.61 10.1592 155.646 2.15498 177.018 0Z" fill="#DCDDDF" fill-opacity="0.25"/>
</svg>
