<svg width="25" height="17" viewBox="0 0 25 17" fill="none" xmlns="http://www.w3.org/2000/svg">
<path d="M12.5 16.58C7.8208 16.58 3.34062 13.1375 0.383303 9.56351C-0.127768 8.94583 -0.127768 8.04921 0.383303 7.43157C1.12684 6.53298 2.68502 4.79934 4.7665 3.28421C10.0091 -0.531812 14.9807 -0.539173 20.2334 3.28421C22.6788 5.06414 24.6166 7.39819 24.6166 7.43157C25.1277 8.04921 25.1277 8.94583 24.6166 9.56347C21.6597 13.137 17.1802 16.58 12.5 16.58ZM12.5 1.9546C7.31641 1.9546 2.82305 6.89794 1.5694 8.41302C1.54976 8.43681 1.53902 8.46669 1.53902 8.49754C1.53902 8.52839 1.54976 8.55828 1.5694 8.58207C2.8231 10.0971 7.31641 15.0405 12.5 15.0405C17.6835 15.0405 22.1769 10.0971 23.4305 8.58207C23.5036 8.49369 23.4257 8.41302 23.4305 8.41302C22.1768 6.89794 17.6835 1.9546 12.5 1.9546Z" fill="white"/>
<path d="M12.4996 13.886C9.52851 13.886 7.11133 11.4688 7.11133 8.49768C7.11133 5.52656 9.52851 3.10938 12.4996 3.10938C15.4708 3.10938 17.8879 5.52656 17.8879 8.49768C17.8879 11.4688 15.4708 13.886 12.4996 13.886ZM12.4996 4.64889C10.3774 4.64889 8.65084 6.37546 8.65084 8.49768C8.65084 10.6199 10.3774 12.3465 12.4996 12.3465C14.6219 12.3465 16.3484 10.6199 16.3484 8.49768C16.3484 6.37546 14.6219 4.64889 12.4996 4.64889Z" fill="white"/>
</svg>
