<svg width="17" height="17" viewBox="0 0 17 17" fill="none" xmlns="http://www.w3.org/2000/svg">
<g clip-path="url(#clip0_166_966)">
<path d="M1.49414 8.00195H6.50781C7.33171 8.00195 8.00195 7.33171 8.00195 6.50781V1.49414C8.00195 0.670238 7.33171 0 6.50781 0H1.49414C0.670238 0 0 0.670238 0 1.49414V6.50781C0 7.33171 0.670238 8.00195 1.49414 8.00195ZM2.52344 3.51953H3.51953V2.52344C3.51953 2.24815 3.74229 2.02539 4.01758 2.02539C4.29287 2.02539 4.51562 2.24815 4.51562 2.52344V3.51953H5.51172C5.78701 3.51953 6.00977 3.74229 6.00977 4.01758C6.00977 4.29287 5.78701 4.51562 5.51172 4.51562H4.51562V5.51172C4.51562 5.78701 4.29287 6.00977 4.01758 6.00977C3.74229 6.00977 3.51953 5.78701 3.51953 5.51172V4.51562H2.52344C2.24815 4.51562 2.02539 4.29287 2.02539 4.01758C2.02539 3.74229 2.24815 3.51953 2.52344 3.51953ZM15.5059 0H10.4922C9.66829 0 8.99805 0.670238 8.99805 1.49414V6.50781C8.99805 7.33171 9.66829 8.00195 10.4922 8.00195H15.5059C16.3298 8.00195 17 7.33171 17 6.50781V1.49414C17 0.670238 16.3298 0 15.5059 0ZM14.5098 4.51562H11.4883C11.213 4.51562 10.9902 4.29287 10.9902 4.01758C10.9902 3.74229 11.213 3.51953 11.4883 3.51953H14.5098C14.7851 3.51953 15.0078 3.74229 15.0078 4.01758C15.0078 4.29287 14.7851 4.51562 14.5098 4.51562ZM15.5059 8.99805H10.4922C9.66829 8.99805 8.99805 9.66829 8.99805 10.4922V15.5059C8.99805 16.3298 9.66829 17 10.4922 17H15.5059C16.3298 17 17 16.3298 17 15.5059V10.4922C17 9.66829 16.3298 8.99805 15.5059 8.99805ZM14.5098 14.4766H11.4883C11.213 14.4766 10.9902 14.2538 10.9902 13.9785C10.9902 13.7032 11.213 13.4805 11.4883 13.4805H14.5098C14.7851 13.4805 15.0078 13.7032 15.0078 13.9785C15.0078 14.2538 14.7851 14.4766 14.5098 14.4766ZM14.5098 12.4844H11.4883C11.213 12.4844 10.9902 12.2616 10.9902 11.9863C10.9902 11.711 11.213 11.4883 11.4883 11.4883H14.5098C14.7851 11.4883 15.0078 11.711 15.0078 11.9863C15.0078 12.2616 14.7851 12.4844 14.5098 12.4844ZM8.00195 15.5059V10.4922C8.00195 9.66829 7.33171 8.99805 6.50781 8.99805H1.49414C0.670238 8.99805 0 9.66829 0 10.4922V15.5059C0 16.3298 0.670238 17 1.49414 17H6.50781C7.33171 17 8.00195 16.3298 8.00195 15.5059ZM5.42612 13.6867C5.62066 13.8812 5.62066 14.1964 5.42612 14.391C5.23158 14.5855 4.91639 14.5855 4.72185 14.391L4.01758 13.6867L3.31331 14.391C3.11877 14.5855 2.80357 14.5855 2.60904 14.391C2.4145 14.1964 2.4145 13.8812 2.60904 13.6867L3.31331 12.9824L2.60904 12.2782C2.4145 12.0836 2.4145 11.7684 2.60904 11.5739C2.80357 11.3793 3.11877 11.3793 3.31331 11.5739L4.01758 12.2782L4.72185 11.5739C4.91639 11.3793 5.23158 11.3793 5.42612 11.5739C5.62066 11.7684 5.62066 12.0836 5.42612 12.2782L4.72185 12.9824L5.42612 13.6867Z" fill="white"/>
</g>
<defs>
<clipPath id="clip0_166_966">
<rect width="17" height="17" fill="white"/>
</clipPath>
</defs>
</svg>
