<svg width="20" height="16" viewBox="0 0 20 16" fill="none" xmlns="http://www.w3.org/2000/svg">
<path fill-rule="evenodd" clip-rule="evenodd" d="M16.0465 0.506996C15.9807 0.520594 14.1032 2.53102 11.8743 4.97468C9.64547 7.41841 7.7568 9.43724 7.67727 9.46102C7.59782 9.4848 7.45515 9.46522 7.36023 9.41745C7.26524 9.36961 6.28371 8.5196 5.17889 7.52848C4.07415 6.53736 3.08952 5.69768 2.99083 5.66258C2.89222 5.62755 2.74358 5.62321 2.66059 5.65311C2.51218 5.70651 0.171939 8.02457 0.0373355 8.25148C-0.000540516 8.31534 -0.0114053 8.44306 0.013116 8.53526C0.0595179 8.70976 7.49559 15.4011 7.73529 15.4841C7.80757 15.509 7.93901 15.5041 8.02744 15.473C8.21734 15.4063 19.1516 3.44838 19.2547 3.19478C19.3032 3.0751 19.2951 2.97123 19.2283 2.85931C19.1007 2.64544 16.524 0.57271 16.3226 0.521876C16.2366 0.500161 16.1123 0.493468 16.0465 0.506996Z" fill="white"/>
</svg>
