<svg width="30" height="25" viewBox="0 0 30 25" fill="none" xmlns="http://www.w3.org/2000/svg">
<path d="M20.7896 12.2211C20.7258 12.1989 20.6565 12.1977 20.5919 12.2175C20.5274 12.2374 20.471 12.2774 20.431 12.3315C20.0622 12.8308 19.589 13.2451 19.0438 13.5459C18.4986 13.8468 17.8944 14.0271 17.2724 14.0745C16.6505 14.1219 16.0256 14.0353 15.4405 13.8206C14.8555 13.6059 14.3241 13.2681 13.8828 12.8306C13.4415 12.393 13.1007 11.8659 12.8838 11.2854C12.6669 10.7049 12.579 10.0847 12.6261 9.46731C12.6733 8.84993 12.8543 8.24996 13.1568 7.70851C13.4593 7.16706 13.8762 6.69693 14.3789 6.33033C14.4359 6.29412 14.479 6.24 14.5015 6.17661C14.5239 6.11321 14.5242 6.04419 14.5025 5.98056C14.4802 5.91925 14.4389 5.86657 14.3844 5.83016C14.3299 5.79375 14.2652 5.77551 14.1996 5.77807C12.9406 5.83652 11.7258 6.25684 10.703 6.98791C9.68025 7.71898 8.89352 8.7293 8.43853 9.89599C7.98355 11.0627 7.87991 12.3355 8.14022 13.5595C8.40054 14.7836 9.01359 15.9062 9.90481 16.7909C10.796 17.6755 11.927 18.284 13.1602 18.5424C14.3934 18.8008 15.6757 18.6979 16.8511 18.2463C18.0265 17.7947 19.0444 17.0138 19.7809 15.9985C20.5174 14.9833 20.9409 13.7776 20.9998 12.5279C21.0033 12.461 20.9846 12.3948 20.9467 12.3394C20.9087 12.284 20.8536 12.2424 20.7896 12.2211ZM14.5025 18.0627C13.053 18.0575 11.6564 17.5215 10.5805 16.5575C9.50446 15.5934 8.82474 14.2691 8.67157 12.8384C8.51839 11.4077 8.90253 9.97121 9.75037 8.80423C10.5982 7.63725 11.8501 6.82189 13.2661 6.51441C12.4137 7.44822 11.9557 8.67163 11.987 9.93136C12.0182 11.1911 12.5363 12.3907 13.434 13.2817C14.3317 14.1727 15.5402 14.687 16.8093 14.718C18.0784 14.749 19.311 14.2944 20.2517 13.4483C19.9723 14.7554 19.2484 15.9274 18.2016 16.7676C17.1548 17.6078 15.8487 18.0651 14.5025 18.0627Z" fill="white"/>
</svg>
