<svg width="20" height="13" viewBox="0 0 20 13" fill="none" xmlns="http://www.w3.org/2000/svg">
<path d="M19.8421 4.33336H0V0.342121C1.02761e-05 0.251388 0.0360583 0.164374 0.100216 0.100216C0.164374 0.0360583 0.251388 1.02761e-05 0.342121 0H19.5C19.5907 1.02761e-05 19.6777 0.0360583 19.7419 0.100216C19.8061 0.164374 19.8421 0.251388 19.8421 0.342121L19.8421 4.33336Z" fill="#F5F5F5"/>
<path d="M19.5 12.9998H0.342121C0.251388 12.9998 0.164374 12.9638 0.100216 12.8996C0.0360583 12.8355 1.02761e-05 12.7484 0 12.6577L0 8.6665H19.8421V12.6577C19.8421 12.7484 19.806 12.8355 19.7419 12.8996C19.6777 12.9638 19.5907 12.9998 19.5 12.9998Z" fill="#FF4B55"/>
<path d="M0 4.3335H19.8421V8.66659H0V4.3335Z" fill="#41479B"/>
</svg>
