<svg width="20" height="20" viewBox="0 0 20 20" fill="none" xmlns="http://www.w3.org/2000/svg">
<path fill-rule="evenodd" clip-rule="evenodd" d="M1.82818 20C2.31119 19.9999 2.77457 19.8086 3.11705 19.468C3.45953 19.1273 3.6533 18.665 3.65606 18.182V12.727C3.66452 11.763 4.05342 10.8413 4.73812 10.1626C5.42283 9.48389 6.3479 9.10307 7.31198 9.10307C8.27606 9.10307 9.20114 9.48389 9.88581 10.1626C10.5705 10.8413 10.9594 11.763 10.9679 12.727V18.182C10.9706 18.665 11.1644 19.1273 11.5069 19.468C11.8494 19.8086 12.3127 19.9999 12.7958 20C13.2788 19.9999 13.7422 19.8086 14.0847 19.468C14.4271 19.1273 14.6209 18.665 14.6237 18.182V12.727C14.6152 11.4313 14.2631 10.161 13.6031 9.04589C12.943 7.93079 11.9989 7.01087 10.867 6.38008C9.73505 5.74932 8.45601 5.43031 7.16049 5.45563C5.86494 5.48096 4.59933 5.84972 3.49297 6.52423C3.34683 6.20527 3.11229 5.93493 2.81716 5.74521C2.52207 5.55547 2.17871 5.45434 1.8279 5.4538C1.34485 5.45394 0.881493 5.64521 0.539011 5.98586C0.19653 6.32648 0.00275211 6.78882 0 7.27183V18.182C0.00275211 18.665 0.196569 19.1274 0.53911 19.4681C0.881654 19.8087 1.34508 19.9999 1.82818 20ZM7.31184 6.27611e-06C7.67105 0.00189923 8.02164 0.110147 8.31942 0.311094C8.61716 0.512037 8.84874 0.796677 8.98488 1.12909C9.12105 1.46151 9.1557 1.82679 9.08446 2.17887C9.01322 2.53096 8.83928 2.85406 8.5846 3.10741C8.32992 3.36073 8.00592 3.53296 7.65347 3.60237C7.30102 3.67175 6.93592 3.63518 6.60423 3.49727C6.27252 3.35938 5.98911 3.12631 5.78973 2.82752C5.59035 2.5287 5.48395 2.17752 5.48395 1.81831C5.48457 1.5789 5.53235 1.34196 5.62454 1.12101C5.71674 0.900063 5.85156 0.699437 6.0213 0.530592C6.19102 0.361747 6.39238 0.227986 6.61378 0.136947C6.83522 0.0459104 7.0724 -0.000621893 7.31184 6.27611e-06Z" fill="#2DB4C9"/>
<path fill-rule="evenodd" clip-rule="evenodd" d="M1.81969 8.92739e-08C2.17935 -0.000112587 2.53096 0.106437 2.83006 0.306166C3.12916 0.505899 3.36228 0.789839 3.5 1.12208C3.63772 1.45433 3.6738 1.81994 3.60369 2.1727C3.53361 2.52547 3.36048 2.84949 3.1062 3.10386C2.85192 3.3582 2.52795 3.53144 2.17521 3.60163C1.82248 3.67186 1.45684 3.63586 1.12456 3.49825C0.792272 3.36065 0.508258 3.12761 0.308432 2.82856C0.10861 2.52955 0.00195315 2.17797 0.00195315 1.81831C0.00191653 1.57956 0.0489053 1.34315 0.140235 1.12256C0.231564 0.901972 0.365449 0.701532 0.534243 0.532687C0.703035 0.363842 0.903432 0.229896 1.12399 0.138499C1.34455 0.0470987 1.58095 3.6709e-05 1.81969 8.92739e-08ZM7.27265 20C7.7544 19.9985 8.21597 19.8065 8.55657 19.4657C8.89716 19.1251 9.08907 18.6634 9.0904 18.1817V12.727C9.08907 12.2453 8.89716 11.7837 8.55657 11.443C8.21597 11.1023 7.7544 10.9102 7.27265 10.9087C6.79093 10.9102 6.32935 11.1023 5.98876 11.443C5.64817 11.7837 5.45626 12.2453 5.4549 12.727V18.182C5.45631 18.6637 5.64828 19.1252 5.98885 19.4659C6.32944 19.8065 6.79096 19.9985 7.27265 20ZM18.1788 20C18.6605 19.9985 19.1219 19.8064 19.4625 19.4657C19.803 19.1251 19.9949 18.6636 19.9963 18.182V12.727C19.9966 10.7986 19.2308 8.94893 17.8674 7.58504C16.504 6.22116 14.6547 5.45473 12.7262 5.45437C13.8555 6.3007 14.772 7.3987 15.4028 8.66116C16.0336 9.92363 16.3613 11.3158 16.36 12.727V18.182C16.3614 18.6639 16.5535 19.1256 16.8943 19.4663C17.2352 19.8069 17.697 19.9988 18.1788 20Z" fill="#66747A"/>
</svg>
