<svg width="18" height="15" viewBox="0 0 18 15" fill="none" xmlns="http://www.w3.org/2000/svg">
<path d="M8.68423 3.15792C10.8632 3.15792 12.6316 4.92636 12.6316 7.10531C12.6316 7.61452 12.529 8.10004 12.3514 8.54608L14.6606 10.8553C15.8527 9.86056 16.7922 8.57373 17.3724 7.10531C16.0027 3.63953 12.6356 1.18425 8.68427 1.18425C7.57899 1.18425 6.52112 1.3816 5.53822 1.73687L7.24349 3.43817C7.68949 3.2645 8.17502 3.15792 8.68423 3.15792ZM0.789462 1.00658L2.58946 2.80658L2.94869 3.1658C1.64605 4.18423 0.61579 5.53819 0 7.10527C1.3658 10.571 4.73685 13.0263 8.68423 13.0263C9.90793 13.0263 11.0763 12.7895 12.1461 12.3592L12.4816 12.6947L14.783 15L15.7895 13.9974L1.79604 0L0.789462 1.00658ZM5.15528 5.36844L6.37502 6.58818C6.33949 6.75793 6.31581 6.92764 6.31581 7.10527C6.31581 8.41186 7.37764 9.47369 8.68423 9.47369C8.86186 9.47369 9.03161 9.45001 9.1974 9.41448L10.4171 10.6342C9.89213 10.8947 9.30794 11.0527 8.68423 11.0527C6.50528 11.0527 4.73685 9.28422 4.73685 7.10527C4.73685 6.4816 4.89475 5.89737 5.15528 5.36844Z" fill="#A0AEC0"/>
</svg>
