<svg width="30" height="25" viewBox="0 0 30 25" fill="none" xmlns="http://www.w3.org/2000/svg">
<path d="M15 15.7036C14.2089 15.7036 13.4355 15.4708 12.7777 15.0345C12.1199 14.5982 11.6072 13.9781 11.3045 13.2526C11.0017 12.5271 10.9225 11.7288 11.0769 10.9587C11.2312 10.1885 11.6122 9.48102 12.1716 8.92576C12.731 8.37049 13.4437 7.99235 14.2196 7.83915C14.9956 7.68595 15.7998 7.76458 16.5307 8.06509C17.2616 8.3656 17.8864 8.87449 18.3259 9.52741C18.7654 10.1803 19 10.948 19 11.7332C18.9987 12.7858 18.5768 13.795 17.827 14.5393C17.0771 15.2836 16.0605 15.7023 15 15.7036ZM15 8.75546C14.4067 8.75546 13.8266 8.9301 13.3333 9.2573C12.8399 9.58451 12.4554 10.0496 12.2284 10.5937C12.0013 11.1378 11.9419 11.7365 12.0576 12.3142C12.1734 12.8918 12.4591 13.4224 12.8787 13.8389C13.2982 14.2553 13.8328 14.5389 14.4147 14.6538C14.9967 14.7687 15.5999 14.7097 16.1481 14.4844C16.6962 14.259 17.1648 13.8773 17.4944 13.3876C17.8241 12.8979 18 12.3222 18 11.7332C17.9991 10.9438 17.6827 10.1869 17.1203 9.62864C16.5579 9.0704 15.7954 8.75637 15 8.75546ZM15.5 6.27397V4.28878C15.5 4.15715 15.4473 4.03092 15.3536 3.93784C15.2598 3.84477 15.1326 3.79248 15 3.79248C14.8674 3.79248 14.7402 3.84477 14.6464 3.93784C14.5527 4.03092 14.5 4.15715 14.5 4.28878V6.27397C14.5 6.40559 14.5527 6.53183 14.6464 6.6249C14.7402 6.71798 14.8674 6.77027 15 6.77027C15.1326 6.77027 15.2598 6.71798 15.3536 6.6249C15.4473 6.53183 15.5 6.40559 15.5 6.27397ZM19.2425 8.22392L20.6565 6.8199C20.7054 6.77441 20.7445 6.71963 20.7717 6.65882C20.7988 6.59802 20.8133 6.53242 20.8144 6.46593C20.8155 6.39944 20.8031 6.3334 20.778 6.27176C20.7529 6.21011 20.7155 6.1541 20.6682 6.10706C20.6208 6.06002 20.5644 6.02291 20.5023 5.99792C20.4402 5.97294 20.3737 5.9606 20.3067 5.96163C20.2397 5.96267 20.1736 5.97705 20.1124 6.00394C20.0511 6.03082 19.9959 6.06965 19.95 6.11813L18.536 7.52216C18.4882 7.56794 18.4502 7.6227 18.4239 7.68325C18.3977 7.7438 18.384 7.80893 18.3834 7.87482C18.3828 7.94072 18.3954 8.00607 18.4206 8.06707C18.4457 8.12806 18.4829 8.18347 18.5298 8.23007C18.5767 8.27667 18.6326 8.31352 18.694 8.33848C18.7555 8.36343 18.8213 8.37599 18.8877 8.37542C18.9541 8.37484 19.0197 8.36115 19.0807 8.33514C19.1417 8.30913 19.1964 8.27132 19.2425 8.22392ZM23 11.7332C23 11.6016 22.9473 11.4754 22.8536 11.3823C22.7598 11.2892 22.6326 11.2369 22.5 11.2369H20.5C20.3674 11.2369 20.2402 11.2892 20.1464 11.3823C20.0527 11.4754 20 11.6016 20 11.7332C20 11.8649 20.0527 11.9911 20.1464 12.0842C20.2402 12.1772 20.3674 12.2295 20.5 12.2295H22.5C22.6326 12.2295 22.7598 12.1772 22.8536 12.0842C22.9473 11.9911 23 11.8649 23 11.7332ZM20.657 17.3479C20.7507 17.2548 20.8034 17.1286 20.8034 16.997C20.8034 16.8654 20.7507 16.7392 20.657 16.6461L19.2425 15.2426C19.1482 15.1522 19.0219 15.1021 18.8908 15.1033C18.7597 15.1044 18.6343 15.1566 18.5416 15.2486C18.4489 15.3406 18.3963 15.4651 18.3952 15.5952C18.394 15.7254 18.4444 15.8507 18.5355 15.9443L19.9495 17.3479C20.0433 17.4409 20.1704 17.4932 20.303 17.4932C20.4356 17.4932 20.5632 17.4409 20.657 17.3479ZM15.5 19.1777V17.1925C15.5 17.0609 15.4473 16.9346 15.3536 16.8416C15.2598 16.7485 15.1326 16.6962 15 16.6962C14.8674 16.6962 14.7402 16.7485 14.6464 16.8416C14.5527 16.9346 14.5 17.0609 14.5 17.1925V19.1777C14.5 19.3093 14.5527 19.4356 14.6464 19.5286C14.7402 19.6217 14.8674 19.674 15 19.674C15.1326 19.674 15.2598 19.6217 15.3536 19.5286C15.4473 19.4356 15.5 19.3093 15.5 19.1777ZM10.05 17.3479L11.4645 15.9443C11.5123 15.8985 11.5503 15.8438 11.5766 15.7832C11.6028 15.7227 11.6165 15.6576 11.6171 15.5917C11.6177 15.5258 11.6051 15.4604 11.5799 15.3994C11.5548 15.3384 11.5176 15.283 11.4707 15.2364C11.4238 15.1898 11.3679 15.153 11.3065 15.128C11.245 15.103 11.1792 15.0905 11.1128 15.0911C11.0464 15.0916 10.9808 15.1053 10.9198 15.1313C10.8588 15.1573 10.8036 15.1952 10.7575 15.2426L9.343 16.6466C9.24925 16.7397 9.1966 16.866 9.19665 16.9976C9.1967 17.1293 9.24943 17.2555 9.34325 17.3486C9.43707 17.4417 9.56429 17.4939 9.69693 17.4939C9.82956 17.4938 9.95675 17.4415 10.0505 17.3483L10.05 17.3479ZM10 11.7332C10 11.6016 9.94732 11.4754 9.85355 11.3823C9.75979 11.2892 9.63261 11.2369 9.5 11.2369H7.5C7.36739 11.2369 7.24021 11.2892 7.14645 11.3823C7.05268 11.4754 7 11.6016 7 11.7332C7 11.8649 7.05268 11.9911 7.14645 12.0842C7.24021 12.1772 7.36739 12.2295 7.5 12.2295H9.5C9.63261 12.2295 9.75979 12.1772 9.85355 12.0842C9.94732 11.9911 10 11.8649 10 11.7332ZM11.4645 8.22392C11.5582 8.13085 11.6109 8.00464 11.6109 7.87304C11.6109 7.74144 11.5582 7.61523 11.4645 7.52216L10.05 6.11813C10.0035 6.07202 9.94839 6.03544 9.8877 6.01049C9.827 5.98553 9.76195 5.97269 9.69625 5.97269C9.63055 5.97269 9.5655 5.98553 9.5048 6.01049C9.44411 6.03544 9.38896 6.07202 9.3425 6.11813C9.29604 6.16424 9.25919 6.21898 9.23405 6.27923C9.20891 6.33948 9.19597 6.40405 9.19597 6.46926C9.19597 6.53447 9.20891 6.59904 9.23405 6.65929C9.25919 6.71954 9.29604 6.77428 9.3425 6.82039L10.757 8.22392C10.8508 8.31696 10.9779 8.36923 11.1105 8.36923C11.2431 8.36923 11.3707 8.31696 11.4645 8.22392Z" fill="white"/>
</svg>
