<svg width="11" height="12" viewBox="0 0 11 12" fill="none" xmlns="http://www.w3.org/2000/svg">
<path d="M9.8666 1.42694L5.15965 0.0148363C5.09374 -0.00494544 5.02348 -0.00494544 4.95757 0.0148363L0.250523 1.42694C0.17811 1.44867 0.11463 1.49317 0.0695018 1.55382C0.0243734 1.61448 8.05123e-07 1.68807 0 1.76367V6.94139C0 7.61484 0.272648 8.30423 0.810328 8.99041C1.22098 9.51447 1.78912 10.0407 2.49893 10.5545C3.69136 11.4177 4.86555 11.9472 4.91496 11.9693C4.96014 11.9895 5.0091 12 5.05861 12C5.10812 12 5.15707 11.9895 5.20226 11.9693C5.25164 11.9472 6.42581 11.4177 7.61824 10.5545C8.32804 10.0407 8.89617 9.51447 9.30684 8.99041C9.84452 8.30425 10.1171 7.61486 10.1171 6.94139V1.76367C10.1171 1.68807 10.0928 1.61447 10.0476 1.55381C10.0025 1.49315 9.93902 1.44866 9.8666 1.42694Z" fill="#2DB4C9"/>
</svg>
