<svg width="55" height="55" viewBox="0 0 55 55" fill="none" xmlns="http://www.w3.org/2000/svg">
<path d="M27.5 29.2188L23.5589 27.097C21.3729 25.9198 19.5464 24.1727 18.2733 22.0411C17.0002 19.9095 16.328 17.4729 16.3281 14.9901V5.15625C20.2505 5.15634 24.0852 3.99524 27.3487 1.8193L27.5 1.71875L27.6512 1.8193C30.9148 3.99524 34.7495 5.15634 38.6719 5.15625V14.9901C38.672 17.4729 37.9998 19.9095 36.7267 22.0411C35.4536 24.1727 33.6271 25.9198 31.4411 27.097L27.5 29.2188Z" fill="#DFB428"/>
<path d="M27.5 3.4375L27.3487 3.53805C24.5705 5.38598 21.3714 6.50407 18.0469 6.78906V14.9866C18.0468 17.4695 18.7189 19.906 19.992 22.0376C21.2651 24.1692 23.0916 25.9163 25.2777 27.0935L28.3594 28.7564L31.4411 27.097C33.6271 25.9198 35.4536 24.1727 36.7267 22.0411C37.9998 19.9095 38.672 17.4729 38.6719 14.9901V6.875C34.7495 6.87509 30.9148 5.71399 27.6512 3.53805L27.5 3.4375Z" fill="#F9C82B"/>
<path d="M25.1891 24.0702C23.5486 23.1885 22.1779 21.8784 21.2229 20.2794C20.2678 18.6805 19.7642 16.8525 19.7656 14.99V8.34106C22.4769 7.93862 25.0955 7.05907 27.5 5.74316C29.9044 7.05917 32.523 7.93873 35.2344 8.34106V14.99C35.2357 16.8526 34.732 18.6806 33.777 20.2797C32.822 21.8788 31.4513 23.189 29.8109 24.0711L27.5 25.3146L25.1891 24.0702Z" fill="#FFF2C7"/>
<path d="M21.4844 10.1932V14.9902C21.4829 16.8527 21.9866 18.6806 22.9416 20.2796C23.8966 21.8785 25.2674 23.1886 26.9079 24.0704L28.3594 24.8524L29.8109 24.0712C31.4513 23.1892 32.822 21.8789 33.777 20.2799C34.732 18.6808 35.2357 16.8527 35.2344 14.9902V10.5266C32.523 10.1243 29.9044 9.24471 27.5 7.92871C25.6096 8.95896 23.5849 9.72109 21.4844 10.1932Z" fill="white"/>
<path d="M25.6761 18.6021L23.2458 16.1717C23.0846 16.0106 22.9941 15.792 22.9941 15.5642C22.9941 15.3363 23.0846 15.1177 23.2458 14.9566C23.4069 14.7955 23.6255 14.705 23.8533 14.705C24.0812 14.705 24.2998 14.7955 24.4609 14.9566L26.2836 16.7793L30.5367 12.5263C30.6978 12.3652 30.9164 12.2747 31.1443 12.2747C31.3721 12.2747 31.5907 12.3652 31.7518 12.5263C31.913 12.6874 32.0035 12.906 32.0035 13.1338C32.0035 13.3617 31.913 13.5803 31.7518 13.7414L26.8912 18.6021C26.7301 18.7632 26.5115 18.8537 26.2836 18.8537C26.0558 18.8537 25.8372 18.7632 25.6761 18.6021Z" fill="#33393B"/>
<path d="M40.4629 32.2884L45.8383 26.9121C46.3372 26.4133 46.6705 25.773 46.793 25.0782L49.0197 12.4523C49.0714 12.156 49.175 11.8712 49.3256 11.611C49.6292 11.0871 50.1073 10.6869 50.6764 10.4802C51.2454 10.2736 51.869 10.2738 52.4379 10.4809C53.0068 10.6879 53.4847 11.0885 53.7879 11.6125C54.091 12.1365 54.2001 12.7505 54.096 13.3469L51.2455 29.5229C51.0809 30.4558 50.7254 31.3446 50.2013 32.1337L45.7051 38.9038V42.9687H31.9551V37.149" fill="#FFD0C0"/>
<path d="M31.9546 42.9687V36.3515C31.9547 34.5284 32.679 32.78 33.9681 31.4909L43.5003 21.9578C43.7397 21.7184 44.0239 21.5284 44.3367 21.3988C44.6496 21.2693 44.9848 21.2026 45.3234 21.2026C45.662 21.2026 45.9973 21.2693 46.3102 21.3988C46.623 21.5284 46.9072 21.7184 47.1466 21.9578C47.6299 22.4413 47.9015 23.0969 47.9015 23.7806C47.9015 24.4642 47.6299 25.1198 47.1466 25.6033L40.4624 32.2884M14.5368 32.2884L9.16138 26.9121C8.66247 26.4133 8.32913 25.773 8.20661 25.0782L5.97997 12.4523C5.92821 12.156 5.82465 11.8712 5.67403 11.611C5.3705 11.0871 4.89232 10.6869 4.32328 10.4802C3.75424 10.2736 3.13064 10.2738 2.56175 10.4809C1.99285 10.6879 1.51495 11.0885 1.21179 11.6125C0.90863 12.1365 0.799541 12.7505 0.903642 13.3469L3.75419 29.5229C3.9188 30.4558 4.27427 31.3446 4.79833 32.1337L9.29458 38.9038V42.9687H23.0446V37.149" fill="#FFD0C0"/>
<path d="M23.0445 42.9688V36.3516C23.0444 34.5285 22.3201 32.7801 21.031 31.491L11.4988 21.9579C11.2594 21.7185 10.9752 21.5285 10.6624 21.3989C10.3495 21.2693 10.0143 21.2026 9.67566 21.2026C9.33706 21.2026 9.00177 21.2693 8.68895 21.3989C8.37613 21.5285 8.0919 21.7185 7.8525 21.9579C7.36917 22.4414 7.09766 23.097 7.09766 23.7806C7.09766 24.4643 7.36917 25.1199 7.8525 25.6034L14.5367 32.2885" fill="#FFD0C0"/>
<path d="M7.85299 25.6033C7.40284 25.1512 7.13698 24.5479 7.10712 23.9106C7.07725 23.2733 7.28553 22.6477 7.69143 22.1555L7.34252 20.179C7.08856 20.3427 6.85238 20.5325 6.63783 20.7453C6.23871 21.1443 5.9221 21.618 5.7061 22.1394C5.49009 22.6608 5.37891 23.2197 5.37891 23.784C5.37891 24.3484 5.49009 24.9072 5.7061 25.4286C5.9221 25.95 6.23871 26.4238 6.63783 26.8228L13.3203 33.5027C13.4815 33.6638 13.7 33.7543 13.9279 33.7543C14.1558 33.7543 14.3743 33.6638 14.5355 33.5027C14.6966 33.3415 14.7871 33.123 14.7871 32.8951C14.7871 32.6673 14.6966 32.4487 14.5355 32.2875L7.85299 25.6033ZM47.1471 25.6033C47.5972 25.1512 47.8631 24.5479 47.8929 23.9106C47.9228 23.2733 47.7145 22.6477 47.3086 22.1555L47.6575 20.179C47.9115 20.3427 48.1477 20.5325 48.3622 20.7453C48.7613 21.1443 49.0779 21.618 49.2939 22.1394C49.51 22.6608 49.6211 23.2197 49.6211 23.784C49.6211 24.3484 49.51 24.9072 49.2939 25.4286C49.0779 25.95 48.7613 26.4238 48.3622 26.8228L41.6797 33.5027C41.5186 33.6638 41.3 33.7543 41.0721 33.7543C40.8443 33.7543 40.6257 33.6638 40.4646 33.5027C40.3034 33.3415 40.2129 33.123 40.2129 32.8951C40.2129 32.6673 40.3034 32.4487 40.4646 32.2875L47.1471 25.6033Z" fill="#FFB9A6"/>
<path d="M24.7637 48.125H7.57617V42.9688H24.7637V48.125Z" fill="#C7F2FB"/>
<path d="M24.7637 48.125H10.1543V44.6875H24.7637V48.125ZM8.43555 48.125H23.9043V53.2812H8.43555V48.125Z" fill="#4CCEE3"/>
<path d="M11.0137 48.125H23.9043V53.2812H11.0137V48.125Z" fill="#2DB4C9"/>
<path d="M47.4238 48.125H30.2363V42.9688H47.4238V48.125Z" fill="#C7F2FB"/>
<path d="M47.4238 48.125H32.8145V44.6875H47.4238V48.125ZM31.0957 48.125H46.5645V53.2812H31.0957V48.125Z" fill="#4CCEE3"/>
<path d="M33.6738 48.125H46.5645V53.2812H33.6738V48.125Z" fill="#2DB4C9"/>
</svg>
