<svg width="172" height="45" viewBox="0 0 172 45" fill="none" xmlns="http://www.w3.org/2000/svg">
<g clip-path="url(#clip0_166_607)">
<path fill-rule="evenodd" clip-rule="evenodd" d="M12.7048 15.104C13.0223 14.3135 13.1974 13.436 13.1974 12.4984C13.1974 8.62008 10.3 5.94177 6.53787 5.94177H0.660156V26.9603H3.93128V18.9096H6.56601C7.5511 18.9096 8.44863 18.7641 9.25859 18.4416C10.0686 18.1191 10.7644 17.6795 11.3445 17.1246C11.923 16.568 12.3859 15.8945 12.7048 15.104ZM6.97256 15.455H3.93128V9.63037H7.02885C7.87008 9.63037 8.56434 9.92287 9.08503 10.4794C9.60572 11.0359 9.86685 11.7379 9.86685 12.5569C9.86685 13.436 9.57757 14.138 9.02717 14.666C8.47834 15.1909 7.78252 15.455 6.97256 15.455Z" fill="#66747A"/>
<path d="M35.214 17.6226H42.2785V12.1189H45.4339V26.9618H42.2785V21.0187H35.214V26.9618H32.0586V12.1189H35.214V17.6226Z" fill="#66747A"/>
<path fill-rule="evenodd" clip-rule="evenodd" d="M61.3558 22.2167C60.9509 22.7448 59.4154 24.1788 56.8103 24.1788C53.6471 24.1788 52.3821 21.8373 52.2367 20.6942H63.2963C63.3542 20.3432 63.3823 19.9637 63.3823 19.5242C63.3823 18.4997 63.2087 17.5052 62.8913 16.5676C62.5723 15.6301 62.1095 14.8111 61.5013 14.1091C60.893 13.4071 60.1409 12.849 59.2731 12.4395C58.4037 12.03 57.4483 11.826 56.3772 11.826C55.2483 11.826 54.235 12.03 53.3375 12.4395C52.44 12.849 51.6582 13.4356 51.0218 14.1676C50.3838 14.898 49.8928 15.7186 49.5441 16.6562C49.197 17.5922 49.0234 18.5882 49.0234 19.6412C49.0234 20.8412 49.2251 21.9243 49.602 22.8903C49.9788 23.8563 50.5292 24.6769 51.2235 25.3504C51.9177 26.0223 52.7293 26.5504 53.6846 26.9014C54.64 27.2524 55.5 27.4279 56.7541 27.4279C59.9939 27.4279 62.0798 25.0563 62.2831 24.7053L61.3558 22.2167ZM52.2477 18.0649C52.3899 17.2127 53.4266 15.1621 56.2318 15.1621C58.521 15.1621 59.8688 16.6135 60.2066 18.0649H52.2477Z" fill="#66747A"/>
<path fill-rule="evenodd" clip-rule="evenodd" d="M26.6172 22.2167C26.2106 22.7448 24.6751 24.1788 22.0717 24.1788C18.9069 24.1788 17.6419 21.8373 17.4965 20.6942H28.5561C28.6139 20.3432 28.6436 19.9637 28.6436 19.5242C28.6436 18.4997 28.4701 17.5052 28.1511 16.5676C27.8337 15.6301 27.3693 14.8111 26.761 14.1091C26.1543 13.4071 25.4007 12.849 24.5328 12.4395C23.6635 12.03 22.7081 11.826 21.637 11.826C20.508 11.826 19.4948 12.03 18.5973 12.4395C17.6997 12.849 16.9179 13.4356 16.2815 14.1676C15.6436 14.898 15.1526 15.7186 14.8039 16.6562C14.4568 17.5922 14.2832 18.5882 14.2832 19.6412C14.2832 20.8412 14.4865 21.9243 14.8617 22.8903C15.2386 23.8563 15.7874 24.6769 16.4832 25.3504C17.1791 26.0223 17.989 26.5504 18.9444 26.9014C19.8998 27.2524 20.7613 27.4279 22.0138 27.4279C25.2537 27.4279 27.3411 25.0563 27.5428 24.7053L26.6172 22.2167ZM17.5074 18.0649C17.6497 17.2127 18.6864 15.1621 21.4931 15.1621C23.7807 15.1621 25.1301 16.6135 25.4663 18.0649H17.5074Z" fill="#66747A"/>
<path d="M89.2082 27.4034C85.6447 27.4034 81.623 24.6666 81.623 19.5866C81.623 15.1075 84.9364 11.7999 89.238 11.7999C92.2652 11.7999 94.2463 13.6434 94.6216 14.317L93.7537 16.951C93.7537 16.951 91.9008 15.1945 89.7008 15.1945C86.3014 15.1945 84.8082 17.6071 84.8082 19.5566C84.8082 20.8752 85.271 21.9297 86.1685 22.7487C87.0661 23.5677 88.2529 23.9772 89.7305 23.9772C91.7898 23.9772 93.5552 22.7234 93.9601 22.2554L94.8874 24.8895C94.8874 24.8895 92.864 27.4034 89.2082 27.4034Z" fill="#66747A"/>
<path d="M73.4563 27.4034C69.8928 27.4034 65.8711 24.6666 65.8711 19.5866C65.8711 15.1075 69.1844 11.7999 73.486 11.7999C76.5132 11.7999 78.4943 13.6434 78.8712 14.317L78.0018 16.951C78.0018 16.951 76.1489 15.1945 73.9488 15.1945C70.5495 15.1945 69.0562 17.6071 69.0562 19.5566C69.0562 20.8752 69.5191 21.9297 70.4166 22.7487C71.3141 23.5677 72.5009 23.9772 73.9785 23.9772C76.0379 23.9772 77.8032 22.7234 78.2097 22.2554L79.1354 24.8895C79.1354 24.8895 77.1136 27.4034 73.4563 27.4034Z" fill="#66747A"/>
<path d="M140.863 27.4034C137.299 27.4034 133.277 24.6666 133.277 19.5866C133.277 15.1075 136.591 11.7999 140.892 11.7999C143.919 11.7999 145.901 13.6434 146.277 14.317L145.408 16.951C145.408 16.951 143.557 15.1945 141.355 15.1945C137.956 15.1945 136.462 17.6071 136.462 19.5566C136.462 20.8752 136.925 21.9297 137.823 22.7487C138.72 23.5677 139.907 23.9772 141.385 23.9772C143.444 23.9772 145.211 22.7234 145.616 22.2554L146.542 24.8895C146.542 24.8895 144.52 27.4034 140.863 27.4034Z" fill="#66747A"/>
<path fill-rule="evenodd" clip-rule="evenodd" d="M109.123 25.4071V26.9597H112.134V12.1183H109.07V13.6235C109.07 13.6235 107.323 11.7373 104.468 11.7373C101.231 11.7373 97.1641 13.8939 97.1641 19.5825C97.1641 24.6435 101.018 27.3692 104.693 27.3692C107.522 27.3692 109.123 25.4071 109.123 25.4071ZM104.924 23.9162C101.771 23.9162 100.291 21.524 100.291 19.5825C100.291 17.0481 102.18 15.1619 104.924 15.1619C106.568 15.1619 108.019 15.7832 109.007 16.9089V22.1517C109.007 22.1517 107.728 23.9162 104.924 23.9162Z" fill="#66747A"/>
<path d="M119.921 17.6226H126.986V12.1189H130.141V26.9618H126.986V21.0187H119.921V26.9618H116.766V12.1189H119.921V17.6226Z" fill="#66747A"/>
<path d="M4.61578 45.0005C3.99173 45.0005 3.39942 44.8907 2.838 44.67C2.27658 44.4493 1.79365 44.1341 1.37247 43.7242C0.951293 43.314 0.623611 42.8248 0.373989 42.2575C0.12481 41.6894 0 41.0589 0 40.3645C0 39.6715 0.12481 39.041 0.373989 38.4728C0.623611 37.9056 0.951293 37.4165 1.37247 37.0062C1.79365 36.5964 2.27658 36.2811 2.838 36.0602C3.39942 35.8395 3.99173 35.729 4.63121 35.729C5.05239 35.729 5.45769 35.7763 5.83213 35.8708C6.20612 35.9658 6.54923 36.0915 6.86147 36.2498C7.17328 36.4068 7.43834 36.5807 7.65708 36.7855C7.87496 36.9905 8.04652 37.1957 8.17177 37.4165L7.81277 38.505C7.67208 38.2998 7.48508 38.1107 7.26678 37.9208C7.04892 37.7317 6.79885 37.5747 6.53423 37.432C6.26874 37.2906 5.98824 37.1806 5.676 37.1007C5.3642 37.0218 5.05239 36.9753 4.72472 36.9753C4.1946 36.9753 3.71123 37.0542 3.27461 37.2112C2.838 37.3697 2.46357 37.5904 2.15177 37.89C1.83996 38.1896 1.60621 38.5362 1.43466 38.9465C1.2631 39.3563 1.18504 39.8285 1.18504 40.3488C1.18504 40.8693 1.27897 41.3429 1.45009 41.7688C1.62165 42.1938 1.87127 42.5407 2.18307 42.8248C2.49488 43.1087 2.86932 43.3296 3.30593 43.4865C3.74299 43.6453 4.22591 43.7242 4.75602 43.7242C5.47357 43.7242 6.11305 43.5815 6.67404 43.2819C7.23546 42.983 7.65708 42.6352 7.93714 42.2254L8.28069 43.2983C7.85202 43.8152 6.59157 45.0005 4.61578 45.0005Z" fill="#66747A"/>
<path d="M16.4849 35.8859V37.1159H13.4921V44.8109H12.3381V37.1159H9.3125V35.8859H16.4849Z" fill="#66747A"/>
<path fill-rule="evenodd" clip-rule="evenodd" d="M23.5816 39.6994C23.7223 39.3689 23.7849 39.0069 23.7849 38.6132C23.7849 37.8227 23.2501 35.8859 21.0251 35.8859H18.248V44.8093H19.402V41.2931H21.0251C21.43 41.2931 21.8038 41.2298 22.1478 41.1033C22.4902 40.9784 22.7873 40.7887 23.0203 40.5516C23.2548 40.3144 23.4409 40.0314 23.5816 39.6994ZM22.4746 38.0614C22.5527 38.2337 22.584 38.4235 22.584 38.6274C22.584 39.3626 22.2025 40.1104 21.1799 40.1104H19.3723V37.1618H21.1799C21.3831 37.1618 21.5708 37.2092 21.7428 37.2883C21.9132 37.3673 22.0539 37.4764 22.179 37.6029C22.3026 37.7294 22.3964 37.8875 22.4746 38.0614Z" fill="#66747A"/>
<path fill-rule="evenodd" clip-rule="evenodd" d="M25.3298 44.8109L26.1726 42.7303H30.5555L31.3811 44.8109H32.6289L28.995 35.8859H27.7159L24.082 44.8109H25.3298ZM28.3554 37.3831L30.0395 41.4986H26.6714L28.3554 37.3831Z" fill="#66747A"/>
<path d="M33.4414 44.8109L36.5749 40.1911L33.6118 35.8859H35.0629L37.2926 39.0875L39.538 35.8859H40.9719L38.0104 40.1911L41.1752 44.8109H39.7554L37.3083 41.2947L34.9065 44.8109H33.4414Z" fill="#66747A"/>
<path fill-rule="evenodd" clip-rule="evenodd" d="M44.9357 44.6384C45.497 44.8756 46.0897 44.9847 46.7292 44.9847C49.5203 44.9847 51.4545 42.6495 51.4545 40.3506C51.4545 39.704 51.3294 39.0557 51.0808 38.4897C50.8306 37.9205 50.4866 37.4336 50.0519 37.0225C49.6141 36.613 49.1153 36.2984 48.554 36.0612C47.9926 35.8241 47.3844 35.7134 46.7448 35.7134C46.1053 35.7134 45.497 35.8241 44.9357 36.0612C44.3744 36.2984 43.8756 36.613 43.4393 37.0225C43.003 37.4336 42.659 37.9205 42.4104 38.4897C42.1602 39.0557 42.0352 39.6708 42.0352 40.3506C42.0352 41.0273 42.1602 41.6423 42.4104 42.2115C42.659 42.7775 43.003 43.2677 43.4393 43.6772C43.8756 44.0866 44.3744 44.4029 44.9357 44.6384ZM50.2536 40.3664C50.2536 40.3712 50.2536 40.3759 50.2536 40.3807V40.3506C50.2536 40.3554 50.2536 40.3601 50.2536 40.3664ZM49.9722 39.0557C50.1582 39.4621 50.2521 39.8984 50.2536 40.3664C50.2521 40.8328 50.1582 41.2676 49.9722 41.674C49.7861 42.0834 49.5375 42.4471 49.2248 42.7475C48.912 43.0463 48.5383 43.2835 48.1021 43.4558C47.6642 43.6297 47.1967 43.7246 46.6979 43.7246C46.1991 43.7246 45.7316 43.6455 45.2953 43.4716C44.8591 43.2977 44.4838 43.0621 44.1726 42.7633C43.8599 42.4629 43.6113 42.0993 43.4237 41.6913C43.236 41.2803 43.1422 40.8392 43.1422 40.3664C43.1422 39.8921 43.236 39.451 43.4237 39.0415C43.6113 38.6304 43.8599 38.2684 44.1726 37.9695C44.4838 37.6691 44.8591 37.4336 45.2953 37.2596C45.7316 37.0857 46.1991 37.0067 46.6979 37.0067C47.1967 37.0067 47.6642 37.1015 48.1021 37.2755C48.5383 37.4494 48.912 37.685 49.2248 37.9838C49.5375 38.2842 49.7861 38.6462 49.9722 39.0557Z" fill="#66747A"/>
<path fill-rule="evenodd" clip-rule="evenodd" d="M58.9258 40.8535C58.6928 40.4899 58.3957 40.2227 58.0533 40.0488L58.0689 40.033C58.3019 39.8432 58.4895 39.6061 58.6303 39.3231C58.771 39.0401 58.8492 38.6922 58.8492 38.2827C58.8492 37.9049 58.771 37.5729 58.6303 37.274C58.4895 36.9752 58.3019 36.7222 58.0689 36.5167C57.8344 36.3112 57.5389 36.1546 57.1949 36.044C56.8524 35.9333 56.4943 35.8859 56.1034 35.8859H53.5312V44.8109H56.4943C56.8837 44.8109 57.2418 44.7477 57.5858 44.637C57.9282 44.5263 58.2237 44.354 58.4739 44.1326C58.7225 43.9113 58.9258 43.6441 59.0665 43.3137C59.2073 42.9816 59.2854 42.6038 59.2854 42.1785C59.2854 41.6567 59.1603 41.2156 58.9258 40.8535ZM56.3223 39.6061C56.6804 39.6061 56.9931 39.497 57.259 39.2756C57.5232 39.0559 57.6639 38.7555 57.6639 38.3776C57.6639 38.0155 57.5388 37.7151 57.2887 37.4796C57.04 37.2408 56.7273 37.1159 56.338 37.1159H54.6852V39.6393L56.3223 39.6061ZM56.6804 43.5651C56.868 43.5651 57.0557 43.5334 57.2261 43.4702C57.3981 43.4069 57.5545 43.3137 57.678 43.1872C57.8031 43.0607 57.9126 42.9184 57.9907 42.7445C58.0689 42.5706 58.1158 42.3824 58.1158 42.1785C58.1158 41.8306 57.9907 41.5144 57.7265 41.2472C57.4607 40.9784 57.1339 40.8377 56.7273 40.8377H54.6696V43.5492L56.6804 43.5651Z" fill="#66747A"/>
<path fill-rule="evenodd" clip-rule="evenodd" d="M61.7361 44.8109L62.5773 42.7303H66.9602L67.7873 44.8109H69.0336L65.4012 35.8859H64.1222L60.4883 44.8109H61.7361ZM64.7617 37.3831L66.4457 41.4986H63.0761L64.7617 37.3831Z" fill="#66747A"/>
<path d="M71.9215 35.8859V39.5919H77.1769V35.8859H78.3293V44.8109H77.1769V40.8203H71.9215V44.8109H70.7676V35.8859H71.9215Z" fill="#66747A"/>
<path d="M87.6106 44.8109V37.731L82.4021 44.8109H81.1074V35.8859H82.2614V42.9816L87.5011 35.8859H88.7645V44.8109H87.6106Z" fill="#66747A"/>
<path d="M96.5169 35.8859V37.1159H92.6969V39.5919H96.1275V40.8203H92.6969V43.5809H96.5169V44.8109H91.543V35.8859H96.5169Z" fill="#66747A"/>
<path d="M149.68 26.9618H153.722V22.8732H149.68V26.9618Z" fill="#66747A"/>
<path d="M160.839 21.0187L149.678 0.00012207H172L160.839 21.0187Z" fill="#66747A"/>
</g>
<defs>
<clipPath id="clip0_166_607">
<rect width="172" height="45" fill="white"/>
</clipPath>
</defs>
</svg>
