<svg width="219" height="45" viewBox="0 0 219 45" fill="none" xmlns="http://www.w3.org/2000/svg">
<g clip-path="url(#clip0_1_1529)">
<path d="M20.345 11.8568C18.4443 11.8568 17.0333 12.6867 15.9089 14.4659C14.7108 16.3606 14.1038 19.0115 14.1038 22.349C14.1038 25.9891 14.6769 28.7773 15.8093 30.6382C16.888 32.4154 18.3528 33.2752 20.2912 33.2752C21.955 33.2752 23.4317 32.4094 24.5622 30.7695C25.6727 29.1595 26.5882 26.3652 27.5236 21.742C26.7772 18.3249 25.7384 15.664 24.5064 14.054C23.3581 12.5534 22.0366 11.8568 20.345 11.8568Z" fill="#F1F3F3"/>
<path fill-rule="evenodd" clip-rule="evenodd" d="M13.5222 6.10352e-05H31.9214C39.3726 6.10352e-05 45.4387 6.00643 45.4387 13.388V31.6121C45.4387 38.9917 39.3726 45.0001 31.9214 45.0001H13.5222C6.06494 45.0001 0.000854492 38.9917 0.000854492 31.6121V13.388C0.000854492 6.00643 6.06494 6.10352e-05 13.5222 6.10352e-05ZM39.3368 34.4103C39.9995 33.254 40.2702 31.8211 40.2702 29.4607V28.0298H37.064L37.0481 28.2308C36.9844 29.0109 36.4889 29.801 35.6689 29.801C35.042 29.801 34.5385 29.5722 34.1265 29.0985C33.6329 28.5353 33.1871 27.8586 32.7374 26.6327C34.0111 22.3498 37.9437 8.63148 37.9437 8.63148H30.4845C30.4845 8.63148 29.7939 11.8476 29.1729 14.7752C29.1411 14.7035 29.1093 14.6319 29.0774 14.5642C28.4565 13.2507 27.4634 11.7879 26.3588 10.759C24.4383 8.96981 22.1775 8.09811 19.4489 8.09811C15.6835 8.09811 12.4972 9.47731 9.97963 12.1999C7.472 14.9045 6.15052 18.3774 6.15052 22.2364C6.15052 26.5371 7.40632 30.0677 9.88609 32.7286C12.4713 35.5089 15.5621 36.8045 19.6121 36.8045C21.9705 36.8045 24.2234 36.1099 26.3111 34.7427C27.6604 33.861 28.8923 32.639 30.0546 31.0509C30.5422 32.6171 31.0358 33.6879 31.6248 34.4899C32.5762 35.7815 34.0031 36.5239 35.5375 36.5239C37.1337 36.5239 38.5905 35.7139 39.3368 34.4103Z" fill="#F1F3F3"/>
<path fill-rule="evenodd" clip-rule="evenodd" d="M62.9926 5.37628C66.2067 5.37628 67.6715 6.98236 68.187 9.28102L70.5215 19.6917H68.0258C67.4586 19.6917 66.8934 19.2419 66.77 18.6906L66.2983 16.573H59.6869L59.2152 18.6906C59.0938 19.2419 58.5286 19.6917 57.9594 19.6917H55.4637L57.7982 9.28102C58.3137 6.98236 59.9715 5.37628 62.9926 5.37628ZM61.1616 9.9537L60.3397 13.6395H65.6455L64.8236 9.9537C64.6902 9.35665 64.2225 8.44713 62.9926 8.44713C61.7647 8.44713 61.295 9.35665 61.1616 9.9537Z" fill="#F1F3F3"/>
<path d="M76.6709 8.8566H82.2355V19.6951H85.6805V5.71808H75.2917C74.1553 5.71808 73.2239 6.63754 73.2239 7.76399V14.8271C73.2239 15.7725 72.7861 16.3735 72.0219 16.5248L71.3134 16.6919L71.9542 19.6951H72.609C74.9673 19.6951 76.6709 17.9577 76.6709 15.0023V8.8566Z" fill="#F1F3F3"/>
<path fill-rule="evenodd" clip-rule="evenodd" d="M114.363 5.71206H115.617C119.876 5.71206 122.537 8.58588 122.537 12.6996C122.537 16.8133 119.876 19.6891 115.617 19.6891H114.363V20.3618C114.363 20.921 113.899 21.3828 113.328 21.3828H110.918V19.6891H109.662C105.405 19.6891 102.742 16.8133 102.742 12.6996C102.742 8.58588 105.405 5.71206 109.662 5.71206H110.918V5.10904C110.918 4.54582 111.382 4.08807 111.951 4.08807H114.363V5.71206ZM109.662 16.6023C107.304 16.6023 106.189 15.1236 106.189 12.6996C106.189 10.2775 107.304 8.79883 109.662 8.79883H110.918V16.6023H109.662ZM115.617 16.6023H114.363V8.79883H115.617C117.977 8.79883 119.09 10.2775 119.09 12.6996C119.09 15.1236 117.977 16.6023 115.617 16.6023Z" fill="#F1F3F3"/>
<path fill-rule="evenodd" clip-rule="evenodd" d="M91.4258 9.2606H96.3694C99.7368 9.2606 101.633 11.5035 101.633 14.4789C101.633 17.4542 99.3726 19.6951 96.3694 19.6951H89.0137C88.4465 19.6951 87.9788 19.2334 87.9788 18.6722V5.71808H91.4258V9.2606ZM91.4258 16.5566H96.3694C97.2092 16.5566 98.1904 15.8103 98.1904 14.4789C98.1904 13.1454 97.2092 12.4011 96.3694 12.4011H91.4258V16.5566Z" fill="#F1F3F3"/>
<path fill-rule="evenodd" clip-rule="evenodd" d="M130.191 5.37628C133.405 5.37628 134.87 6.98236 135.385 9.28102L137.718 19.6917H135.224C134.657 19.6917 134.089 19.2419 133.968 18.6906L133.496 16.573H126.885L126.413 18.6906C126.294 19.2419 125.727 19.6917 125.158 19.6917H122.662L124.996 9.28102C125.512 6.98236 127.17 5.37628 130.191 5.37628ZM128.36 9.9537L127.54 13.6395H132.844L132.022 9.9537C131.888 9.35665 131.421 8.44713 130.191 8.44713C128.963 8.44713 128.495 9.35665 128.36 9.9537Z" fill="#F1F3F3"/>
<path fill-rule="evenodd" clip-rule="evenodd" d="M156.356 29.5377C156.356 30.6562 155.966 31.4642 155.357 32.0573C156.24 32.7379 156.837 33.7131 156.837 34.9609C156.837 37.4387 155.086 39.3075 152.447 39.3075L143.493 39.3055C142.924 39.3055 142.458 38.8458 142.458 38.2845V26.3514C142.458 25.7882 142.924 25.3304 143.493 25.3304H151.916C154.417 25.3304 156.356 27.0619 156.356 29.5377ZM151.912 28.2301C152.369 28.2301 152.996 28.7396 152.996 29.6073C152.996 30.483 152.369 30.9308 151.912 30.9865H145.836V28.2301H151.912ZM152.188 36.4078H145.836V33.6514H152.188C152.646 33.7071 153.271 34.1529 153.271 35.0286C153.271 35.8963 152.646 36.4078 152.188 36.4078Z" fill="#F1F3F3"/>
<path fill-rule="evenodd" clip-rule="evenodd" d="M125.365 32.3118C125.365 28.005 128.34 25.0018 132.601 25.0018H133.779C138.04 25.0018 141.016 28.005 141.016 32.3118C141.016 36.6165 138.04 39.6217 133.779 39.6217H132.601C128.34 39.6217 125.365 36.6165 125.365 32.3118ZM132.808 27.8876C130.434 27.8876 129.084 29.8061 129.084 32.3118C129.084 34.8174 130.434 36.7359 132.808 36.7359H133.572C135.945 36.7359 137.294 34.8174 137.294 32.3118C137.294 29.8061 135.945 27.8876 133.572 27.8876H132.808Z" fill="#F1F3F3"/>
<path d="M68.3064 25.3304L68.7602 27.444C68.8796 28.0072 69.4448 28.467 70.014 28.467H73.2241V39.3055H76.6711V28.467H79.7818C80.349 28.467 80.9122 28.0072 81.0336 27.444L81.4874 25.3304H68.3064Z" fill="#F1F3F3"/>
<path d="M184.357 25.3304V30.8791H177.655V25.3304H174.208V39.3055H177.655V33.8763H184.357V39.3055H187.802V25.3304H184.357Z" fill="#F1F3F3"/>
<path fill-rule="evenodd" clip-rule="evenodd" d="M103.208 24.9888C106.424 24.9888 107.885 26.5949 108.402 28.8956L110.737 39.3042H108.243C107.674 39.3042 107.107 38.8544 106.985 38.3051L106.514 36.1856H99.9061L99.4345 38.3051C99.3111 38.8544 98.7479 39.3042 98.1767 39.3042H95.683L98.0175 28.8956C98.5309 26.5949 100.189 24.9888 103.208 24.9888ZM101.379 29.5643L100.557 33.2521H105.861L105.041 29.5682C104.905 28.9692 104.438 28.0577 103.208 28.0577C101.978 28.0577 101.512 28.9692 101.379 29.5643Z" fill="#F1F3F3"/>
<path fill-rule="evenodd" clip-rule="evenodd" d="M165.158 24.9888C168.372 24.9888 169.835 26.5949 170.353 28.8956L172.689 39.3042H170.191C169.624 39.3042 169.059 38.8544 168.936 38.3051L168.464 36.1856H161.855L161.381 38.3051C161.261 38.8544 160.694 39.3042 160.127 39.3042H157.629L159.964 28.8956C160.481 26.5949 162.135 24.9888 165.158 24.9888ZM163.327 29.5643L162.505 33.2521H167.809L166.989 29.5682C166.856 28.9692 166.386 28.0577 165.158 28.0577C163.928 28.0577 163.463 28.9692 163.327 29.5643Z" fill="#F1F3F3"/>
<path d="M69.3768 39.2631V39.3029H62.646C58.5701 39.3029 55.7241 36.4291 55.7241 32.3134C55.7241 28.1977 58.5701 25.3239 62.646 25.3239H67.7508L67.2513 27.4673C67.1239 28.0166 66.5547 28.4624 65.9855 28.4624H62.646C60.4667 28.4624 59.1691 30.0724 59.1691 32.3134C59.1691 34.5543 60.4667 36.1644 62.646 36.1644H67.6214C68.1886 36.1644 68.7578 36.6122 68.8872 37.1615L69.3768 39.2631Z" fill="#F1F3F3"/>
<path fill-rule="evenodd" clip-rule="evenodd" d="M83.3658 25.3258L90.7215 25.3239C93.7247 25.3239 95.9875 27.5688 95.9875 30.5421C95.9875 33.5154 94.0909 35.7564 90.7215 35.7564H85.7779V39.3029H82.3329V26.3488C82.3329 25.7876 82.7966 25.3258 83.3658 25.3258ZM85.7779 32.6199H90.7215C91.5614 32.6199 92.5445 31.8735 92.5445 30.5421C92.5445 29.2087 91.5614 28.4663 90.7215 28.4663H85.7779V32.6199Z" fill="#F1F3F3"/>
<path d="M217.011 36.3561H209.589V33.6713H217.657V30.9766H209.589V28.2799H217.011C217.622 28.2799 218.105 28.0132 218.274 27.2828L218.734 25.3304H207.177C206.61 25.3304 206.144 25.7882 206.144 26.3534V38.2825C206.144 38.8458 206.61 39.3075 207.177 39.3075H218.734L218.274 37.3551C218.105 36.6227 217.622 36.3561 217.011 36.3561Z" fill="#F1F3F3"/>
<path d="M190.165 39.3055V25.3304H193.612V34.551L199.58 26.1524C199.919 25.7006 200.655 25.3304 201.228 25.3304H203.782V39.3055H200.336V30.085L194.364 38.4816C194.03 38.9353 193.289 39.3055 192.72 39.3055H190.165Z" fill="#F1F3F3"/>
<path d="M121.129 32.2443L125.938 25.3304H122.773C122.089 25.3304 121.609 25.5354 121.185 26.1922L118.624 30.1765H118.164L115.601 26.1922C115.181 25.5354 114.701 25.3304 114.013 25.3304H110.747L115.658 32.3916L110.85 39.3055H114.013C114.701 39.3055 115.181 39.1025 115.601 38.4438L118.164 34.4594H118.624L121.185 38.4438C121.609 39.1025 122.089 39.3055 122.773 39.3055H126.039L121.129 32.2443Z" fill="#F1F3F3"/>
</g>
<defs>
<clipPath id="clip0_1_1529">
<rect width="218.733" height="45" fill="white"/>
</clipPath>
</defs>
</svg>
