<svg width="20" height="12" viewBox="0 0 20 12" fill="none" xmlns="http://www.w3.org/2000/svg">
<path fill-rule="evenodd" clip-rule="evenodd" d="M5.32645 5.99975C5.32645 3.63559 7.24944 1.7118 9.61615 1.7118C11.9804 1.7118 13.9033 3.63554 13.9033 5.99975C13.9033 8.36446 11.9804 10.2874 9.61615 10.2874C7.2494 10.2874 5.32645 8.36446 5.32645 5.99975ZM0.110942 5.59067C-0.0369805 5.85822 -0.0369805 6.14128 0.110942 6.40908C2.03138 9.85768 5.67328 12 9.61615 12C13.5564 12 17.1984 9.85772 19.1188 6.40908C19.2693 6.14128 19.2693 5.85822 19.1188 5.59067C17.1984 2.14207 13.5565 0 9.61615 0C5.67328 0 2.03138 2.14207 0.110942 5.59067ZM9.61615 3.11706C8.02474 3.11706 6.73167 4.41009 6.73167 5.99975C6.73167 7.58937 8.0247 8.88243 9.61615 8.88243C11.205 8.88243 12.498 7.58941 12.498 5.99975C12.498 4.41009 11.205 3.11706 9.61615 3.11706Z" fill="#A0AEC0"/>
</svg>
