<svg width="13" height="12" viewBox="0 0 13 12" fill="none" xmlns="http://www.w3.org/2000/svg">
<path d="M12.7455 0.219145C12.6426 0.119006 12.5165 0.049803 12.3802 0.0186436C12.2438 -0.0125157 12.1022 -0.00450784 11.9697 0.0418448L0.539077 4.0497C0.227558 4.15892 0.0163066 4.4547 0.00089445 4.80317C-0.0144923 5.15166 0.169717 5.46724 0.470191 5.60711L2.76564 6.67534L9.52389 2.6858C9.60374 2.6387 9.69682 2.6236 9.78624 2.64324C9.87566 2.66288 9.9555 2.71595 10.0113 2.79284C10.0671 2.86973 10.0951 2.96534 10.0903 3.06232C10.0855 3.1593 10.0481 3.25124 9.98507 3.32146L5.7718 8.0073L4.90771 11.3279L6.98165 9.67614L9.43411 11.8107C9.57696 11.9351 9.75155 12 9.92956 12C10.0158 11.9999 10.1015 11.9848 10.1831 11.9552C10.4412 11.8622 10.6326 11.6381 10.695 11.3559L12.9792 1.02565C13.0111 0.881253 13.0062 0.730439 12.9651 0.588701C12.9241 0.446964 12.8483 0.319411 12.7455 0.219145Z" fill="#9CA5A9"/>
<path d="M3.36328 7.25125L4.15702 11.167L5.06124 7.6923C5.07804 7.62765 5.10965 7.56844 5.15323 7.51997L7.69304 4.69531L3.36328 7.25125Z" fill="#9CA5A9"/>
</svg>
